<mxfile host="app.diagrams.net" modified="2024-02-12T17:42:50.889Z" agent="Mozilla/5.0 (X11; Linux x86_64) AppleWebKit/537.36 (KHTML, like Gecko) Chrome/121.0.0.0 Safari/537.36" etag="8Qav-zMrRLz-Cd3eEtRZ" version="23.1.2" type="github">
  <diagram name="Pagina-1" id="CEir2eMrcSE51uQyd2wk">
    <mxGraphModel dx="875" dy="453" grid="1" gridSize="10" guides="1" tooltips="1" connect="1" arrows="1" fold="1" page="1" pageScale="1" pageWidth="827" pageHeight="1169" math="0" shadow="0">
      <root>
        <mxCell id="0" />
        <mxCell id="1" parent="0" />
        <mxCell id="eqLps-eW9b2hY98P4a72-1" value="" style="edgeStyle=orthogonalEdgeStyle;rounded=0;orthogonalLoop=1;jettySize=auto;html=1;" edge="1" parent="1" source="eqLps-eW9b2hY98P4a72-2" target="eqLps-eW9b2hY98P4a72-16">
          <mxGeometry relative="1" as="geometry" />
        </mxCell>
        <mxCell id="eqLps-eW9b2hY98P4a72-2" value="VIT" style="shape=trapezoid;perimeter=trapezoidPerimeter;fixedSize=1;rotation=90;fillColor=#dae8fc;strokeColor=#6c8ebf;align=center;fontColor=default;labelBackgroundColor=none;whiteSpace=wrap;html=1;spacingLeft=0;direction=east;" vertex="1" parent="1">
          <mxGeometry x="330" y="240" width="120" height="60" as="geometry" />
        </mxCell>
        <mxCell id="eqLps-eW9b2hY98P4a72-4" value="" style="edgeStyle=orthogonalEdgeStyle;rounded=0;orthogonalLoop=1;jettySize=auto;html=1;" edge="1" parent="1" source="eqLps-eW9b2hY98P4a72-5" target="eqLps-eW9b2hY98P4a72-2">
          <mxGeometry relative="1" as="geometry" />
        </mxCell>
        <mxCell id="eqLps-eW9b2hY98P4a72-5" value="Image&lt;br&gt;" style="ellipse;whiteSpace=wrap;html=1;aspect=fixed;fillColor=#d5e8d4;strokeColor=#82b366;" vertex="1" parent="1">
          <mxGeometry x="250" y="240" width="60" height="60" as="geometry" />
        </mxCell>
        <mxCell id="eqLps-eW9b2hY98P4a72-21" style="edgeStyle=orthogonalEdgeStyle;rounded=0;orthogonalLoop=1;jettySize=auto;html=1;exitX=0;exitY=0;exitDx=63;exitDy=30;exitPerimeter=0;entryX=0.5;entryY=1;entryDx=0;entryDy=0;" edge="1" parent="1" source="eqLps-eW9b2hY98P4a72-8" target="eqLps-eW9b2hY98P4a72-19">
          <mxGeometry relative="1" as="geometry" />
        </mxCell>
        <mxCell id="eqLps-eW9b2hY98P4a72-8" value="Observation&lt;br&gt;Prompt" style="shape=note;whiteSpace=wrap;html=1;backgroundOutline=1;darkOpacity=0.05;fillColor=#f8cecc;strokeColor=#b85450;" vertex="1" parent="1">
          <mxGeometry x="247" y="367.33" width="63" height="60" as="geometry" />
        </mxCell>
        <mxCell id="eqLps-eW9b2hY98P4a72-9" value="States(St)" style="text;html=1;align=center;verticalAlign=middle;resizable=0;points=[];autosize=1;strokeColor=none;fillColor=none;" vertex="1" parent="1">
          <mxGeometry x="170" y="170" width="80" height="30" as="geometry" />
        </mxCell>
        <mxCell id="eqLps-eW9b2hY98P4a72-10" style="edgeStyle=orthogonalEdgeStyle;rounded=0;orthogonalLoop=1;jettySize=auto;html=1;entryX=0.5;entryY=0;entryDx=0;entryDy=0;" edge="1" parent="1" source="eqLps-eW9b2hY98P4a72-11" target="eqLps-eW9b2hY98P4a72-20">
          <mxGeometry relative="1" as="geometry">
            <mxPoint x="160" y="250" as="targetPoint" />
          </mxGeometry>
        </mxCell>
        <mxCell id="eqLps-eW9b2hY98P4a72-26" style="edgeStyle=orthogonalEdgeStyle;rounded=0;orthogonalLoop=1;jettySize=auto;html=1;exitX=1;exitY=0.25;exitDx=0;exitDy=0;entryX=1;entryY=0;entryDx=0;entryDy=0;" edge="1" parent="1" source="eqLps-eW9b2hY98P4a72-11" target="eqLps-eW9b2hY98P4a72-16">
          <mxGeometry relative="1" as="geometry" />
        </mxCell>
        <mxCell id="eqLps-eW9b2hY98P4a72-11" value="Environment&lt;br&gt;" style="rounded=1;whiteSpace=wrap;html=1;fillColor=#e1d5e7;strokeColor=#9673a6;" vertex="1" parent="1">
          <mxGeometry x="320" y="140" width="120" height="60" as="geometry" />
        </mxCell>
        <mxCell id="eqLps-eW9b2hY98P4a72-13" value="Action(At)" style="text;html=1;align=center;verticalAlign=middle;resizable=0;points=[];autosize=1;strokeColor=none;fillColor=none;" vertex="1" parent="1">
          <mxGeometry x="440" y="190" width="80" height="30" as="geometry" />
        </mxCell>
        <mxCell id="eqLps-eW9b2hY98P4a72-15" value="Reward(Rt)" style="text;html=1;align=center;verticalAlign=middle;resizable=0;points=[];autosize=1;strokeColor=none;fillColor=none;" vertex="1" parent="1">
          <mxGeometry x="520" y="200" width="80" height="30" as="geometry" />
        </mxCell>
        <mxCell id="eqLps-eW9b2hY98P4a72-25" style="edgeStyle=orthogonalEdgeStyle;rounded=0;orthogonalLoop=1;jettySize=auto;html=1;exitX=0.5;exitY=0;exitDx=0;exitDy=0;entryX=1;entryY=0.75;entryDx=0;entryDy=0;" edge="1" parent="1" source="eqLps-eW9b2hY98P4a72-16" target="eqLps-eW9b2hY98P4a72-11">
          <mxGeometry relative="1" as="geometry" />
        </mxCell>
        <mxCell id="eqLps-eW9b2hY98P4a72-16" value="Linear" style="whiteSpace=wrap;html=1;aspect=fixed;fillColor=#dae8fc;strokeColor=#6c8ebf;" vertex="1" parent="1">
          <mxGeometry x="484" y="310" width="40" height="40" as="geometry" />
        </mxCell>
        <mxCell id="eqLps-eW9b2hY98P4a72-24" style="edgeStyle=orthogonalEdgeStyle;rounded=0;orthogonalLoop=1;jettySize=auto;html=1;exitX=0.5;exitY=0;exitDx=0;exitDy=0;entryX=0;entryY=0.5;entryDx=0;entryDy=0;" edge="1" parent="1" source="eqLps-eW9b2hY98P4a72-19" target="eqLps-eW9b2hY98P4a72-16">
          <mxGeometry relative="1" as="geometry" />
        </mxCell>
        <mxCell id="eqLps-eW9b2hY98P4a72-19" value="BERT" style="shape=trapezoid;perimeter=trapezoidPerimeter;fixedSize=1;rotation=90;fillColor=#dae8fc;strokeColor=#6c8ebf;align=center;fontColor=default;labelBackgroundColor=none;whiteSpace=wrap;html=1;spacingLeft=0;direction=east;" vertex="1" parent="1">
          <mxGeometry x="330" y="367.33" width="120" height="60" as="geometry" />
        </mxCell>
        <mxCell id="eqLps-eW9b2hY98P4a72-20" value="" style="shape=image;verticalLabelPosition=bottom;labelBackgroundColor=default;verticalAlign=top;aspect=fixed;imageAspect=0;image=data:image/png,iVBORw0KGgoAAAANSUhEUgAABEcAAAOICAYAAAA0P59hAAAABHNCSVQICAgIfAhkiAAAABl0RVh0U29mdHdhcmUAZ25vbWUtc2NyZWVuc2hvdO8Dvz4AAAAndEVYdENyZWF0aW9uIFRpbWUAZG9tIDIyIG90dCAyMDIzLCAxOTozMzoxMb9AEgkAACAASURBVHic7N19eJ5lgSb880nz0c+ktKVJM7RQviwqBa1YIow62LHLsCwsOVx1cQeVOdx1Cit0Z9W+O6CsOgV2ZnDQAo5yFNwRcZgBZnBfYLEz1mFsS6niC8LUoh1aKQkoNgktTdPmef/APpI05TPJk/b+/Y7jPvLc133lztlASjl73ddTmjNnTjlJyuVyhjLU+IHmvtw1gEPVxIkTs3379mrHAACAQ0qpVHrd817uHqVSKbXJKy9A9uzZk927d2f37t3p7+9Pf3//qypDFCfAoWrcuHHZs2dPtWMAAMAhr1QqpaamJqVSKXV1damrq0tNTU3l2mDlcvklC5JyuZzaV1KM9PX1ZceOHUmSxsbGtLS0pKGhIQ0NDZUAAAAAACOtv78/vb292bVrV371q1+lp6cn/f39mTBhQsaNG/eaCpLS7NmzBzQhg4uRnp6e7NmzJy0tLZkxY0b27t2bPXv2VFaNWA0CAAAAjJZSqVRZPVJbW5tx48blmWeeSUdHR2pqajJhwoTKvKE+d8h7vrgceXHR0d/fn+7u7owfPz5HH3105ZEaAAAAgLGkvr4+tbW1+elPf5qdO3dm0qRJlRJlsKHGKs/EvLgYKZfL6e7uTmNjY44++ug8//zzihEAAABgTNq9e3eef/75HH300WlqaqpsDfJKn3apGTy5XC7nueeey/jx4zNr1qzs3LnTozMAAADAmFYul/P888/nt37rtzJx4sQ8//zzlfHB8warGVyM7NmzJ3v27MmcOXPS29s7sskBAAAAhlFvb2+OPPLI9Pf3Z+/evUleviDZ761mduzYkZaWlvT19Y1gVAAAAICR0dfXl+bm5uzatesVzR+w58i+RmXKlCkepQEAAAAOSuVyOVOnTk2pVEp/f39lbPCcfQbsOdLb25vJkydnz549o5UXAAAAYNj19fVl0qRJA56MOdBCkAGP1ez7RAAAAICD3eTJk19y25B9ZUllQ9Z9j9XU1taOSkAAAACAkVRXV1d5rGafoVaPDGhC+vv7lSMAQJK6zHn3h/Oh98zO3p/dm5u//s/p2FvtTAAAr05tbW3K5XLK5XJKpdKQc8rl8gvlyIBNSGpqbMYKAIeoI878ZC5+9/QDT9jzw9z0P27NYzkqb/+dY9NUn2Teu7Lgt/45/2fLqMUcMfWt78j5H/l3mddYyk/+9rO58YHnqx0JABhBr7TjGLBMZF+bAgAUXUd+9rOdOeWNE1Pu+Vk2P1PtPK9TzZTMPe3f5X3/Zn6mWyQLAGNSqVQ6YCfxUtdeyos/58WrRwavJPHHAwAoqCfX/10e3DZosP+ZdCRJevKD/311trROS/8vtuXZXaOfb7hMe+Pv5d+d1ZYTZtRXOwoAjElXXXXVS17/1Kc+NeIZSqVS/uAP/iAPPfRQ1q9fP+DaKaeckpNPPjlf+9rXRmxBR+2LN2QFAIrjFxu/n+8/fKCr9Xn7Rz6b9uOT5NHcsuzm/OjXe5nVTDkqp/7Ou7LghCMzs2lCxvX3Zmf39vzymc48sf7/5v995JdJpuc9l3wy752VZOe6fOWK2/OzJJlzVv7HknemMckz//AX+dN7tyWpybTjT0vbW47NkbNmpKmxMVPGJ7u6fpFH71mZv/lR9wtfeEJrTnnPorS9+eg0N9alr+fp/OuP1+S++x7Iky/xdExf0xF5w4z6JHuyffuuTJ06eRi+ewBwaDlQAfJyxclwKZfLeeihh9Le3p5x48Zl7dq1SV4oRtrb23PnnXeOaG9h5QgA8IrVTD8lF/xhe+ZNftGGZuMmZMr0CZkyfVZaen7w63Lk1ajNsb/9b/PO4weOTpo2M3V7d7xwMuG4nLvkw2k7/Dd/dKmd2poTTmvPccccnq+u+D/5191D373noe/n+8d15pdrvpcHJ56Vz/3HE19lPgBgNOxbMdLe3p4k2bt3b6UY2VeWvF4HerRGOQIABXXSh67KSYPGHr5lWf7qR/1Dzk8mZcE55/y6GNmTZ354b+79wdY8N+mted8H3p6X2Ob1VXgmD337e3m8ty6TpzekY8veJLU59t+879fFSG+2rr0339v0XKa+6Yy8960tqWv57fzbU9fky997duhbPv9I7vr6I0mSmsG/YABgTBlckPzt3/7tfo/ZvBYv9W41iXIEAHilGublxOPqXnj9zD/lr771vXSUkxw2O8O3JckzefSfH8iAfqbm2Cx4S9MLr7euyl/d8c/ZniQ//lWajl6S06eWMvsNx2fi99Zm57DlAACKZL+38gUAimHbhruyYdCGrL948iX+TDClKU01L7zc8/OtLxQjo6FpZpobfv169u9l2VW/t/+cqVPTmChHAOAg9+I9RvY9VvPiPUhGipUjAFBQzzx2f+4/4IasQ+jtTe+vX9Y2NWVSkh0HnNyfvXv3Ta59fX/gqKlJzb7XfTvT/fye/ef07MqBHgYCgLFqLLxLzFjy4mLkxWXIvkdsRmLfkX2UIwDAK9Pzr3ni2eTIaUmOPiPvX7Qz//Sz5zL+yKPTuP/k9PT8+mX9tEyfnOS51/h1u36ZX+xJZtUm6dqQm6/5dn4+RD8CAAebsVR+jNa70hxIqVTKySefvN8eI/ten3zyyVm3bt3IvZXviNwVADgEPZn7/++jedsH3piJmZI3/O4H84YDzt2Tjs5fJidMTzI37/ngWSn98KnsPrw19a/2y+75SX704+dz4kkTkhm/nT+4qCnrH9qcXzyfNExqyozf6sv/943v5HFLRwDgNRkLJU25XM7Xvva1IcuP9evX58EHH3zdxchQK0b2jdW+eAAA4KV0/fAbuW7P7+bfvPukHNPSlPr+HXmmY2ca5zRnYpL+/t80FE+u+W4eb2vPsQ3JlGPfmXOOfa1ftTcPf/tv8sPZ/zFvmTYuE2bNzztnzX/R9c50zfhOHn/6dfzCAICqe6leYqQ7CytHAIBXYU+eefju/O+H766MjDvm3+f/+VhzkmTHcy96dmb7A/n6dXvyu4tPz5uPmpnG8aXseX5nduzoya+e2Zaf/Kz7lX/Z7kfyrWu/nE3vfnfe/qajM+uwSakr786O7l/m6Sd/ms6+4fr1AQBFVGptbS2Xy+WUy+U8++yzOf7446udCQAYo2qOWZTff1tD/nXrM+nZuTulya2Zf/rpecNh45LsyLqvfT63b/J8CwAwdmzcuDGNjS/skLbvsZoXP14z4LEaAICX03zMSTnhrTNzwlv3v7bjX+7OPypGAICDUK29RgCAV2pv58Y89PiezJ45NVMmjc+4vc+n65mfZ9OP7s8/3P+TbK92QACA18DKEQDgFXv6R9/ON39U7RQAAMOrptoBAAAAAKpJOQIAAAAUmnIEAAAAKDTlCAAAAFBoyhEAAACg0JQjAAAAQKEpRwAAAIBCqx08sH379mrkAAAAAKiK/cqRrVu3ViMHAAAAwLCrr69/2TkeqwEAAAAKTTkCAAAAFJpyBAAAACg05QgAAABQaMoRAAAAoNCUIwAAAEChKUcAAACAQlOOAAAAAIWmHAEAAAAKTTkCAAAAFFpttQMAAAAAjJRx48alqakpSVIqlQYc+8asHAEAAAAKzcoRAAAA4JDV39+fnTt3Dlgpsu/jvtdWjgAAAACFphwBAAAACk05AgAAABSacgQAAAAoNOUIAAAAUGjKEQAAAKDQlCMAAABAoSlHAAAAgEJTjgAAAACFphwBAAAACk05AgAAABSacgQAAAAoNOUIAAAAUGjKEQAAAKDQlCMAAABAoSlHAAAAgEJTjgAAAACFphwBAAAACk05AgAAABSacgQAAAAoNOUIAAAAUGjKEQAAAKDQlCMAAABAoSlHAAAAgEJTjgAAAACFphwBAAAACk05AgAAABSacgQAAAAoNOUIAAAAUGjKEQAAAKDQlCMAAABAoSlHAAAAgEJTjgAAAACFphwBAAAACk05AgAAABSacgQAAAAoNOUIAAAAUGjKEQAAAKDQlCMAAABAodVWOwAAAADASCqXy0mSUqmUcrlc+biPlSMAAABAoVk5AgAAABzSSqVSSqVS5fXgMStHAAAAgEJTjgAAAACFphwBqIIVK1bkqKOOyvjx47Nw4cI88MAD1Y4EAACFZc8RgFH2rW99K0uXLs0NN9yQhQsX5otf/GIWL16cjRs3ZubMmS/5uf39/dm2bVumTJlSeT4SgGIol8vp6elJa2tramr8HSfAcCrNmjWrnLzwm+2zzz6b3t7eamcCOKQtXLgwp5xySr785S8neaHwmD17di6++OJ8+tOffsnP/fnPf57Zs2ePRkwAxqitW7fmiCOOqHYMgINGQ0NDpk2b9pIbslo5AjCKdu/enQ0bNmTZsmWVsZqamixatChr1qzZb35vb++A0nrfe7HPnz8/48aNe11ZWltb9xtraGh4Xfc8mNTW7v+fwCOPPHJUM/z85z8fcO4vKBhNQ/0MzJkzZ9S+/pNPPrnfmJ+Bl9bX15e77rorU6ZMqXYUgEOOcgRgFP3iF7/I3r1709zcPGC8ubk5//Iv/7Lf/OXLl+eKK67Yb3zcuHGvuxypq6t7RWOHqqH+x3C0y6H6+voB5/39/aP69Sm2av8MDP73P/Ez8Ep5rBJg+HlYEWAMW7ZsWbq6uirH1q1bqx0JAAAOOVaOAIyiGTNmZNy4cens7Bww3tnZmZaWlv3mNzQ0DPk3uXPnzi3UKo+RMNTKm6H+GYykjo6OAee7du0a1a9PsQ21oedo/gwM/vcfAEbK+PEvs+JuXKOVIwCjqb6+PgsWLMiqVasqY/39/Vm1alXa2tqqmAwAAA5N9U3jc3TLSxQk42qVIwCjbenSpfnqV7+am2++OY899lg+/vGPZ8eOHfnIRz5S7WgAAHAIKmXmSVPzUuuuPVYDMMre//7355lnnsnll1+ejo6OnHzyybnnnnv226QVAAAYHuMOn5wpNdvz7AH2/laOAFTBRRddlIsuuqjaMXgN/umf/ull5yxcuHC/saHemQMORvfff//Lznn7298+4Ny//wBUU3+SjKvLxInJs88NPcdjNQAAAMAhq5wkKWXcSzxXoxwBAAAACk05AgAAABSacgQAAAAoNOUIAAAAUGjKEQAAAKDQlCMAAABAoSlHAAAAgEJTjgAAAACFVlvtAAAAAAAjZUfnzvzzzT9NqVQaesLuZ60cAQAAAIpNOQIAAAAUmnIEAAAAKDTlCAAAAFBoyhEAAACg0JQjAAAAQKF5K18AAADgkNXYPDGn/cc3pmZcTWrGlX79sSalmtIL5zU1yhEAeDWmTJnysnNKpdIoJIHqmDx58svO8TMAwMFGOQIAAAAcsro7d+afb360Ut6/+OO+1/YcAQAAAApNOQIAAAAUmnIEAAAAKDR7jgDAq3DyySdXOwJUlZ8BAA5FVo4AAAAAhaYcAQAAAApNOQIAAAAUmnIEAAAAKDQbsgJQSHv27Nlv7PHHHx/VDL29vaP69eDF9u7du9/YaP4M+PcfgLHEyhEAAACg0JQjAAAAQKEpRwAAAIBCs+cIwEHo1FNPzYQJE6odg9fpmGOOqXYEqJpjjz222hEOOs8//3xuv/32ascAOCRZOQIAAAAUmnIEAAAAKDTlCMAw+t73vpezzz47ra2tKZVKufPOOwdcL5fLufzyyzNr1qxMmDAhixYtyqZNm6qUFgAASJQjAMNqx44dOemkk7JixYohr1999dW59tprc8MNN2TdunWZNGlSFi9enF27do1yUgAAYJ/SrFmzyskLf5v57LPPpre3t9qZAA4JpVIpd9xxR84999wkL/w+29ramv/23/5b/uiP/ihJ0tXVlebm5tx00035wAc+8LL37O7uTlNTUzZv3pwpU6aMaH4Axpaenp7MnTs3XV1daWxsrHYcgINGQ0NDpk2bllKplCQDPu57beUIwCjZvHlzOjo6smjRospYU1NTFi5cmDVr1lQxGQAAFJu38gUYJR0dHUmS5ubmAePNzc2Va4P19vYOWNHX3d09cgEBAKCgrBwBGMOWL1+epqamyjF79uxqRwIAgEOOcgRglLS0tCRJOjs7B4x3dnZWrg22bNmydHV1VY6tW7eOeE4AACga5QjAKJk7d25aWlqyatWqylh3d3fWrVuXtra2IT+noaEhjY2NAw4AAGB42XMEYBg999xzefzxxyvnmzdvzkMPPZRp06Zlzpw5ueSSS/L5z38+xx13XObOnZvLLrssra2tlXe0AQAARp9yBGAYPfjgg/md3/mdyvnSpUuTJBdccEFuuummfPKTn8yOHTvysY99LNu3b8/pp5+ee+65J+PHj69WZAAAKLzSrFmzyklSLpfz7LPPDnhXBADGlu7u7jQ1NWXz5s2ZMmVKteMAMIp6enoyd+7cdHV1ecwS4FVoaGjItGnTUiqVkmTAx32v7TkCAAAAFJpyBAAAACg05QgAAABQaMoRAAAAoNCUIwAAAECheStfgIPQmjVrMnHixGrHADhoNA06nzrEnOcGnf9yhLK8Vjt37qx2BIBDlpUjAAAAQKEpRwAAAIBCU44AAAAAhWbPEYCD0N/8zd+krq6u2jEADhrHv8x5kjwx6PzhEcryWvX19VU7AsAhy8oRAAAAoNCUIwAAAEChKUcAAACAQlOOAAAAAIWmHAEAAAAKTTkCAAAAFJpyBAAAACg05QgAAABQaLXVDgAAACNu/KDzhiHm9A063zlCWQAYc6wcAQAAAApNOQIAAAAUmnIEAAAAKDTlCAAAAFBoNmQFAODQN2fQ+fFDzHli0PnDI5QFgDHHyhEAAACg0JQjAAAAQKEpRwAAAIBCs+cIAACHvM5B571DzOkZjSAAjElWjgAAAACFphwBAAAACk05AgAAABSacgQAAAAoNBuyAgBwyOvKkYPO5wwxq2PQ+aYRywPA2GLlCAAAAFBoyhEAAACg0JQjAMNk+fLlOeWUUzJlypTMnDkz5557bjZu3Dhgzq5du7JkyZJMnz49kydPTnt7ezo7O6uUGAAASJQjAMNm9erVWbJkSdauXZv77rsvfX19ee9735sdO3ZU5lx66aW56667ctttt2X16tXZtm1bzjvvvCqmBgAAbMgKMEzuueeeAec33XRTZs6cmQ0bNuSd73xnurq6cuONN+aWW27JGWeckSRZuXJlTjjhhKxduzannnpqNWIDFMLxaRh03rTfnCeyfcD5wyOaCICxxMoRgBHS1dWVJJk2bVqSZMOGDenr68uiRYsqc+bNm5c5c+ZkzZo1VckIAABYOQIwIvr7+3PJJZfktNNOy5vf/OYkSUdHR+rr6zN16tQBc5ubm9PRMfjtI1/Q29ub3t7eynl3d/fIhQYAgIKycgRgBCxZsiSPPPJIbr311td1n+XLl6epqalyzJ49e5gSAgAA+yhHAIbZRRddlG9/+9v5x3/8xxxxxBGV8ZaWluzevTvbtw98pr2zszMtLS1D3mvZsmXp6uqqHFu3bh3R7AAAUETKEYBhUi6Xc9FFF+WOO+7IP/zDP2Tu3LkDri9YsCB1dXVZtWpVZWzjxo3ZsmVL2trahrxnQ0NDGhsbBxwAAMDwsucIwDBZsmRJbrnllvzd3/1dpkyZUtlHpKmpKRMmTEhTU1MuvPDCLF26NNOmTUtjY2MuvvjitLW1eacaAACoIuUIwDC5/vrrkyTvfve7B4yvXLkyH/7wh5Mk11xzTWpqatLe3p7e3t4sXrw411133SgnBQAAXkw5AjBMyuXyy84ZP358VqxYkRUrVoxCIgAA4JWw5wgAAABQaMoRAAAAoNCUIwAAAEChKUcAAACAQrMhKwAAh74tg847h5jTNxpBABiLrBwBAAAACk05AgAAABSacgQAAAAoNOUIAAAAUGjKEQAAAKDQlCMAAABAoSlHAAAAgEJTjgAAAACFphwBAAAACq222gEAAGDEzekaeH78E/vPeeLZgecPj1wcAMYWK0cAAACAQlOOAAAAAIWmHAEAAAAKzZ4jAAAc8joHnfcOMadnNIIAMCZZOQIAAAAUmnIEAAAAKDTlCAAAAFBoyhEAAACg0GzICgDAIa8rTYPOj3wFn/XkyIQBYMyxcgQAAAAoNOUIAAAAUGjKEQAAAKDQlCMAAABAoSlHAAAAgEJTjgAAAACFphwBAAAACk05AgAAABSacgQAAAAoNOUIAAAAUGjKEQAAAKDQlCMAw+T666/P/Pnz09jYmMbGxrS1teXuu++uXN+1a1eWLFmS6dOnZ/LkyWlvb09nZ2cVEwMAAIlyBGDYHHHEEbnyyiuzYcOGPPjggznjjDNyzjnn5Mc//nGS5NJLL81dd92V2267LatXr862bdty3nnnVTk1AABQW+0AAIeKs88+e8D5F77whVx//fVZu3ZtjjjiiNx444255ZZbcsYZZyRJVq5cmRNOOCFr167NqaeeWo3IAABArBwBGBF79+7Nrbfemh07dqStrS0bNmxIX19fFi1aVJkzb968zJkzJ2vWrDngfXp7e9Pd3T3gAAAAhpdyBGAYPfzww5k8eXIaGhryX/7Lf8kdd9yRN77xjeno6Eh9fX2mTp06YH5zc3M6OjoOeL/ly5enqampcsyePXukfwkAAFA4yhGAYfSGN7whDz30UNatW5ePf/zjueCCC/Loo4++5vstW7YsXV1dlWPr1q3DmBYAAEjsOQIwrOrr63PssccmSRYsWJD169fnL/7iL/L+978/u3fvzvbt2wesHuns7ExLS8sB79fQ0JCGhoYRzw1wyNsy6HyoNwvrG40gAIxFVo4AjKD+/v709vZmwYIFqaury6pVqyrXNm7cmC1btqStra2KCQEAACtHAIbJsmXLcuaZZ2bOnDnp6enJLbfcku9+97u5995709TUlAsvvDBLly7NtGnT0tjYmIsvvjhtbW3eqQYAAKpMOQIwTJ5++un8/u//fp566qk0NTVl/vz5uffee/O7v/u7SZJrrrkmNTU1aW9vT29vbxYvXpzrrruuyqkBAADlCMAwufHGG1/y+vjx47NixYqsWLFilBIBAACvhHIEAIBD367eQeddQ00alSgAjD02ZAUAAAAKTTkCAAAAFJpyBAAAACg0e44AAFAAT7zMOQBFZuUIAAAAUGjKEQAAAKDQlCMAAABAoSlHAAAAgEJTjgAAAACFphwBAAAACk05AgAAABSacgQAAAAoNOUIAAAAUGjKEQAAAKDQlCMAAABAoSlHAAAAgEJTjgAAAACFVjtx4sSUy+Ukyfbt26scBwAAAGD41NTUZOLEiUmSUqk04Ng3VtvV1VUpR/bu3Vu1sAAAAADDbe/evenq6kqSAYXIPqVSyWM1AAAAQLEpRwAAAIBCU44AAAAAhaYcAQAAAApNOQIAAAAUmnIEAAAAKDTlCAAAAFBoyhEAAACg0JQjAAAAQKEpRwAAAIBCU44AAAAAhaYcAQAAAApNOQIAAAAUmnIEAAAAKDTlCAAAAFBoyhGAEXLllVemVCrlkksuqYzt2rUrS5YsyfTp0zN58uS0t7ens7OziikBAADlCMAIWL9+fb7yla9k/vz5A8YvvfTS3HXXXbntttuyevXqbNu2Leedd16VUgIAAIlyBGDYPffcczn//PPz1a9+NYcddlhlvKurKzfeeGP+/M//PGeccUYWLFiQlStX5vvf/37Wrl1bxcQAAFBsyhGAYbZkyZKcddZZWbRo0YDxDRs2pK+vb8D4vHnzMmfOnKxZs2bIe/X29qa7u3vAAQAADK/aagcAOJTceuut+cEPfpD169fvd62joyP19fWZOnXqgPHm5uZ0dHQMeb/ly5fniiuuGJGsAADAC6wcARgmW7duzSc+8Yl84xvfyPjx44flnsuWLUtXV1fl2Lp167DcFwAA+A3lCMAw2bBhQ55++um89a1vTW1tbWpra7N69epce+21qa2tTXNzc3bv3p3t27cP+LzOzs60tLQMec+GhoY0NjYOOAAAgOHlsRqAYfKe97wnDz/88ICxj3zkI5k3b14+9alPZfbs2amrq8uqVavS3t6eJNm4cWO2bNmStra2akQGAACiHAEYNlOmTMmb3/zmAWOTJk3K9OnTK+MXXnhhli5dmmnTpqWxsTEXX3xx2tracuqpp1YjMgAAEOUIwKi65pprUlNTk/b29vT29mbx4sW57rrrqh0LAAAKTTkCMIK++93vDjgfP358VqxYkRUrVlQnEAAAsB8bsgIAAACFphwBAAAACk05AgAAABSacgQAAAAoNOUIAAAAUGjKEQAAAKDQlCMAAABAoSlHAAAAgEJTjgAAAACFphwBAAAACk05AgAAABSacgQAAAAoNOUIAAAAUGjKEQAAAKDQlCMAAABAoSlHAAAAgEJTjgAAAACFphwBAAAACk05AgAAABSacgQAAAAoNOUIAAAAUGjKEQAAAKDQlCMAAABAoSlHAAAAgEJTjgAAAACFphwBAAAACk05AgAAABSacgQAAAAoNOUIAAAAUGjKEQAAAKDQlCMAAABAoSlHAAAAgEKrrXYAAA5+cwadTx9iTseg86dGKAujb/A//yT5nUHnN49GEACA18jKEQAAAKDQlCMAw+Szn/1sSqXSgGPevHmV67t27cqSJUsyffr0TJ48Oe3t7ens7KxiYgAAIFGOAAyrN73pTXnqqacqx/3331+5dumll+auu+7KbbfdltWrV2fbtm0577zzqpgWAABI7DkCMKxqa2vT0tKy33hXV1duvPHG3HLLLTnjjDOSJCtXrswJJ5yQtWvX5tRTTx3tqMOqYdD55CHm1I9GEEbc7w0xNng/GQCAg42VIwDDaNOmTWltbc3RRx+d888/P1u2bEmSbNiwIX19fVm0aFFl7rx58zJnzpysWbOmWnEBAIBYOQIwbBYuXJibbropb3jDG/LUU0/liiuuyG//9m/nkUceSUdHR+rr6zN16tQBn9Pc3JyOjgP/vXtvb296e3sr593d3SOWHwAAiko5AjBMzjzzzMrr+fPnZ+HChTnyZaoUfAAAIABJREFUyCPz13/915kwYcJruufy5ctzxRVXDFdEAABgCB6rARghU6dOzfHHH5/HH388LS0t2b17d7Zv3z5gTmdn55B7lOyzbNmydHV1VY6tW7eOdGwAACgcK0cARshzzz2Xn/70p/lP/+k/ZcGCBamrq8uqVavS3t6eJNm4cWO2bNmStra2A96joaEhDQ2DtzuF6nnLEGPfHGLs5pEOAgAwjJQjAMPkj/7oj3L22WfnyCOPzLZt2/KZz3wm48aNywc/+ME0NTXlwgsvzNKlSzNt2rQ0Njbm4osvTltb20H/TjUAAHCwU44ADJOf//zn+eAHP5hf/vKXOfzww3P66adn7dq1Ofzww5Mk11xzTWpqatLe3p7e3t4sXrw41113XZVTAwAAyhGAYXLrrbe+5PXx48dnxYoVWbFixSglAgAAXgnlCADwin2h2gEAAEaAd6sBAAAACk05AgAAABSacgQAAAAoNOUIAAAAUGjKEQAAAKDQlCMAAABAoSlHAAAAgEJTjgAAAACFVlvtAAAcAo4bdN4yxJwtg86fGKEsJOcNMdY7xNj/GekgAAAHBytHAAAAgEJTjgAAAACFphwBAAAACk05AgAAABSaDVkB4GDyhiHGugadbx5izp4RyAIAcIiwcgQAAAAoNOUIAAAAUGjKEQAAAKDQlCMAAABAodmQFYDX7elB588NMWeoMV6DdwwxtmnQ+f2jEQQA4NBh5QgAAABQaMoRAAAAoNCUIwAAAECh2XMEgNet62XOGUZ/P8RY76inAAA4pFg5AgAAABSacgQAAAAoNOUIAAAAUGjKEQAAAKDQbMgKwDA4btB5yxBztgw6f2KEshxMPjXo/PYh5mwaePrLkcoCAFBcVo4AAAAAhaYcAQAAAApNOQIAAAAUmj1HAGDYnTjE2LFDjP1o0Hn3CGQBAODlWDkCAAAAFJpyBAAAACg05QjAMHryySfzoQ99KNOnT8+ECRNy4okn5sEHH6xcL5fLufzyyzNr1qxMmDAhixYtyqZNm17ijgAAwEhTjgAMk1/96lc57bTTUldXl7vvvjuPPvpo/uzP/iyHHXZYZc7VV1+da6+9NjfccEPWrVuXSZMmZfHixdm1a1cVkwMAQLHZkBVgmFx11VWZPXt2Vq5cWRmbO3du5XW5XM4Xv/jF/PEf/3HOOeecJMnXv/71NDc3584778wHPvCBUc9Mtd1T7QAAAMTKEYBh8/d///d529velve9732ZOXNm3vKWt+SrX/1q5frmzZvT0dGRRYsWVcaampqycOHCrFmzphqRAQCAKEcAhs3PfvazXH/99TnuuONy77335uMf/3j+63/9r7n55puTJB0dHUmS5ubmAZ/X3NxcuTZYb29vuru7BxwAAMDw8lgNwDDp7+/P2972tvzJn/xJkuQtb3lLHnnkkdxwww254IILXtM9ly9fniuuuGI4YwIAAINYOQIwTGbNmpU3vvGNA8ZOOOGEbNmyJUnS0tKSJOns7Bwwp7Ozs3JtsGXLlqWrq6tybN26dQSSAwBAsVk5AjBMTjvttGzcuHHA2E9+8pMceeSRSV7YnLWlpSWrVq3KySefnCTp7u7OunXr8vGPf3zIezY0NKShoWFkgzMCHn6FYwAAjAXKEYBhcumll+Yd73hH/uRP/iT/4T/8hzzwwAP5y7/8y/zlX/5lkqRUKuWSSy7J5z//+Rx33HGZO3duLrvssrS2tubcc8+tcnoAACgu5QjAMDnllFNyxx13ZNmyZfmf//N/Zu7cufniF7+Y888/vzLnk5/8ZHbs2JGPfexj2b59e04//fTcc889GT9+fBWTAwBAsZVmzJhRLpfLSV5Y3r179+4qRwLgQLq7u9PU1JTzzjsvdXV11Y7zG8cdN/B8qD1Ufr33SsUTT4xcHoBDUF9fX26//fZ0dXWlsbGx2nEADhr19fWV3zdLpdKAj/teWzkCwOu36WXOAQBgDPNuNQAAAEChKUcAAACAQlOOAAAAAIWmHAEAAAAKTTkCAAAAFJpyBAAAACg05QgAAABQaMoRAAAAoNCUIwAAAEChKUcAAACAQlOOAAAAAIWmHAEAAAAKTTkCAAAAFFpttQMAcCjYOui8Y4g5u0cjCAAAvGpWjgAAAACFphwBAAAACk05AgAAABSaPUcAGAa7XuYcAADGLitHAAAAgEJTjgAAAACFphwBAAAACk05AgAAABSacgQAAAAoNOUIAAAAUGjKEQAAAKDQlCMAAABAoSlHAAAAgEJTjgAAAACFphwBAAAACk05AgAAABSacgQAAAAoNOUIAAAAUGjKEQAAAKDQlCMAAABAoSlHAIbJUUcdlVKptN+xZMmSJMmuXbuyZMmSTJ8+PZMnT057e3s6OzurnBoAAFCOAAyT9evX56mnnqoc9913X5Lkfe97X5Lk0ksvzV133ZXbbrstq1evzrZt23LeeedVMzIAAJCkttoBAA4Vhx9++IDzK6+8Msccc0ze9a53paurKzfeeGNuueWWnHHGGUmSlStX5oQTTsjatWtz6qmnViMyAAAQK0cARsTu3bvzV3/1V/noRz+aUqmUDRs2pK+vL4sWLarMmTdvXubMmZM1a9Yc8D69vb3p7u4ecAAAAMNLOQIwAu68885s3749H/7wh5MkHR0dqa+vz9SpUwfMa25uTkdHxwHvs3z58jQ1NVWO2bNnj2RsAAAoJOUIwAi48cYbc+aZZ6a1tfV13WfZsmXp6uqqHFu3bh2mhAAAwD72HAEYZk888US+853v5Pbbb6+MtbS0ZPfu3dm+ffuA1SOdnZ1paWk54L0aGhrS0NAwonkBAKDorBwBGGYrV67MzJkzc9ZZZ1XGFixYkLq6uqxataoytnHjxmzZsiVtbW3ViAkAAPyalSMAw6i/vz8rV67MBRdckNra3/wW29TUlAsvvDBLly7NtGnT0tjYmIsvvjhtbW3eqQYAAKpMOQIwjL7zne9ky5Yt+ehHP7rftWuuuSY1NTVpb29Pb29vFi9enOuuu64KKQEAgBdTjgAMo/e+970pl8tDXhs/fnxWrFiRFStWjHIqAADgpdhzBAAAACg05QgAAABQaMoRAAAAoNCUIwAAAEChKUcAAACAQlOOAAAAAIWmHAEAAAAKTTkCAAAAFJpyBAAAACg05QgAAABQaMoRAAAAoNCUIwAAAEChKUcAAACAQlOOAAAAAIWmHAEAAAAKTTkCAAAAFJpyBAAAACg05QgAAABQaMoRAAAAoNCUIwAAAEChKUcAAACAQlOOAAAAAIWmHAEAAAAKrbbaAQB49U499dRMmDCh2jEAGEXPP/98br/99mrHADgkWTkCAAAAFJpyBAAAACg05QgAAABQaKUZM2aUy+VykqS7uzu7d++uciQADqS7uztNTU3ZvHlzpkyZUu04AIyinp6ezJ07N11dXWlsbKx2HICDRn19feX3zVKpNODjvtdWjgAAAACFphwBAAAACk05AgAAABSacgQAAAAoNOUIAAAAUGjKEQAAAKDQlCMAAABAoSlHAIbJ3r17c9lll2Xu3LmZMGFCjjnmmHzuc59LuVyuzCmXy7n88ssza9asTJgwIYsWLcqmTZuqmBoAAFCOAAyTq666Ktdff32+/OUv57HHHstVV12Vq6++Ol/60pcqc66++upce+21ueGGG7Ju3bpMmjQpixcvzq5du6qYHAAAiq222gEADhXf//73c8455+Sss85Kkhx11FH55je/mQceeCDJC6tGvvjFL+aP//iPc8455yRJvv71r6e5uTl33nlnPvCBD1QtOwAAFJmVIwDD5B3veEdWrVqVn/zkJ0mSH/3oR7n//vtz5plnJkk2b96cjo6OLFq0qPI5TU1NWbhwYdasWTPkPXt7e9Pd3T3gAAAAhpeVIwDD5NOf/nS6u7szb968jBs3Lnv37s0XvvCFnH/++UmSjo6OJElzc/OAz2tubq5cG2z58uW54oorRjY4AAAUnJUjAMPkr//6r/ONb3wjt9xyS37wgx/k5ptvzp/+6Z/m5ptvfs33XLZsWbq6uirH1q1bhzExAACQWDkCMGz++3//7/n0pz9d2TvkxBNPzBNPPJHly5fnggsuSEtLS5Kks7Mzs2bNqnxeZ2dnTj755CHv2dDQkIaGhpEPDwAABWblCMAw2blzZ2pqBv62Om7cuPT39ydJ5s6dm5aWlqxatapyvbu7O+vWrUtbW9uoZgUAAH7DyhGAYXL22WfnC1/4QubMmZM3velN+eEPf5g///M/z0c/+tEkSalUyiWXXJLPf/7zOe644zJ37txcdtllaW1tzbnnnlvl9AAAUFzKEYBh8qUvfSmXXXZZ/vAP/zBPP/10Wltb85//83/O5ZdfXpnzyU9+Mjt27MjHPvaxbN++PaeffnruueeejB8/vorJAQCg2EozZswol8vlJC8s7969e3eVIwFwIN3d3WlqasrmzZszZcqUascBYBT19PRk7ty56erqSmNjY7XjABw06uvrK79vlkqlAR/3vbbnCAAAAFBoyhEAAACg0JQjAAAAQKEpRwAAAIBCU44AAAAAhaYcAQAAAApNOQIAAAAUmnIEAAAAKLTaagcA4JUrl8tJkp6enionAWC07fu9f99/CwAYPsoRgIPIvj8Yz58/v8pJAKiWnp6eNDU1VTsGwCFFOQJwEGltbc3WrVszZcqU9PT0ZPbs2dm6dWsaGxurHe0V6e7uPugyJ3KPtoMx98GYOZF7tL3e3OVyOT09PWltbR2BdADFphwBOIjU1NTkiCOOSJKUSqUkSWNj40H1PwfJwZk5kXu0HYy5D8bMidyj7fXktmIEYGTYkBUAAAAoNOUIAAAAUGjjJk6c+Nl9J729vbnsssuqGAeAV2PcuHF597vfndrag+cpyYMxcyL3aDsYcx+MmRO5R9vBmhvgYPa5z30uDQ0NSX7zaPq+j/tel2bMmFHe93Zg3d3d2b179+gnBQAAABgB9fX1lb2eDlSOeKwGAAAAKDTlCAAAAFBoyhEAAACg0JQjAAAAQKEpRwAOQitWrMhRRx2V8ePHZ+HChXnggQeqHWmA733vezn77LPT2tqaUqmUO++8c8D1crmcyy+/PLNmzcqECROyaNGibNq0qUppX7B8+fKccsopmTJlSmbOnJlzzz03GzduHDBn165dWbJkSaZPn57Jkyenvb09nZ2dVUr8guuvvz7z589PY2NjGhsb09bWlrvvvrtyfSxmHsqVV16ZUqmUSy65pDI2FrN/9rOffWFH+xcd8+bNq1wfi5mT5Mknn8yHPvShTJ8+PRMmTMiJJ56YBx98sHJ9LP5MHnXUUft9r0ulUpYsWZJk7H6v9+7dm8suuyxz587NhAkTcswxx+Rzn/tc9r0BQjI2v98ARaccATjIfOtb38rSpUvzmc98Jj/4wQ9y0kknZfHixXn66aerHa1ix44dOemkk7JixYohr1999dW59tprc8MNN2TdunWZNGlSFi9enF27do1y0t9YvXp1lixZkrVr1+a+++5LX19f3vve92bHjh2VOZdeemnuuuuu3HbbbVm9enW2bduW8847r2qZk+SII47IlVdemQ0bNuTBBx/MGWeckXPOOSc//vGPx2zmwdavX5+vfOUrmT9//oDxsZr9TW96U5566qnKcf/991eujcXMv/rVr3Laaaelrq4ud999dx599NH82Z/9WQ477LDKnLH4M7l+/foB3+f77rsvSfK+970vydj8XifJVVddleuvvz5f/vKX89hjj+Wqq67K1VdfnS996UuVOWPx+w1QeDNmzChPnz69PH369HJdXV0ZgLHt7W9/e3nJkiWV871795ZbW1vLy5cvr2KqA0tSvuOOOyrn/f395ZaWlvL/+l//qzK2ffv2ckNDQ/mb3/xmNSIO6emnny4nKa9evbpcLr+Qsa6urnzbbbdV5jz22GPlJOU1a9ZUK+aQDjvssPLXvva1gyJzT09P+bjjjivfd9995Xe9613lT3ziE+Vyeex+vz/zmc+UTzrppCGvjdXMn/rUp8qnn376Aa8fLD+Tn/jEJ8rHHHNMub+/f8x+r8vlcvmss84qf/SjHx0wdt5555XPP//8crl88Hy/AQ4ldXV1ld5jxowZ5RkzZpQPP/zwyjFz5syylSMAB5Hdu3dnw4YNWbRoUWWspqYmixYtypo1a6qY7JXbvHlzOjo6BvwampqasnDhwjH1a+jq6kqSTJs2LUmyYcOG9PX1Dcg9b968zJkzZ8zk3rt3b2699dbs2LEjbW1tB0XmJUuW5KyzzhqQMRnb3+9NmzaltbU1Rx99dM4///z8/+zdfXxT5d348c8pNFVTpEFtUFOgYdJOGpWWScukTopz9QF0a3XgWDuwKOATingj+kMUYaIO1OEDTIGpdQr3EOasChVXHFQRxLvI3SIrKEXXqncKNmWmQH9/pAlNk7RJzmlOQr/v18uXJTnnXNe5zvV0vjkPX375JRC9eV6/fj3Dhw+nsLCQ5ORkhg0bxvLlyz3fx0KbdDqdvPzyy0yaNAlFUaK2rAFGjhxJeXk5e/bsAeDTTz/lgw8+ID8/H4iN8hZCiJ6ot94ZEEIIEbxvv/2WY8eOYTabvT43m81UV1frlKvQ/Pvf/wbwuw/u7/R2/Phx7rzzTn7605+SkZEBuPJtMBhISkryWjYa8l1VVUVOTg7/+c9/SExMZO3atZx//vns3LkzavMM8Je//IUdO3awbds2n++itbxHjBjBypUrSUtL4+uvv2bevHmMGjWKXbt2RW2ea2trefbZZ7nrrru477772LZtG7fffjsGg4GioqKYaJNvvPEGjY2NFBcXA9FbPwD+67/+i8OHD5Oenk6vXr04duwYjzzyCDfeeCMQG32gEEL0RBIcEUIIITqYPn06u3bt8nqWRDRLS0tj586dHDp0iDVr1lBUVMQ//vEPvbPVqQMHDnDHHXewYcMGTjnlFL2zEzT3r/8AF1xwASNGjGDgwIG8/vrrnHrqqTrmLLDjx48zfPhwFixYAMCwYcPYtWsXzz33HEVFRTrnLjgvvPAC+fn5nHPOOXpnpUuvv/46r7zyCqWlpQwdOpSdO3dy5513cs4558RMeQshRE8kt9UIIUQMOfPMM+nVq5fPGxnq6+vp37+/TrkKjTuf0boPt956K2+++SabNm3CYrF4Pu/fvz9Op5PGxkav5aMh3waDgR/96EdkZWWxcOFCLrzwQp588smozvP27dtpaGggMzOT3r1707t3b/7xj3/w1FNP0bt3b8xmc9Tmvb2kpCSGDBnC3r17o7a8zz77bM4//3yvz3784x97bgeK9jb5xRdfsHHjRm666SbPZ9Fa1gD33HMP//Vf/8Wvf/1rbDYbEydOZMaMGSxcuBCI/vIWQoieSoIjQggRQwwGA1lZWZSXl3s+O378OOXl5eTk5OiYs+ClpqbSv39/r304fPgwH374oa770Nrayq233sratWt57733SE1N9fo+KyuL+Ph4r3zX1NTw5ZdfRl3ZHz9+nB9++CGq85yXl0dVVRU7d+70/Dd8+HBuvPFGz9/Rmvf2mpqa+Ne//sXZZ58dteX905/+1Oe11Hv27GHgwIFA9LZJtxUrVpCcnMxVV13l+SxayxqgubmZuDjvKXavXr04fvw4EP3lLYQQPZXcViOEEDHmrrvuoqioiOHDh3PxxRezZMkSHA4Hv/vd7/TOmkdTUxN79+71/Hvfvn3s3LmTfv36MWDAAO68807mz5/PeeedR2pqKg888ADnnHMO1157rW55nj59OqWlpaxbt44+ffp47v3v27cvp556Kn379mXy5Mncdddd9OvXj9NPP53bbruNnJwcsrOzdcv37Nmzyc/PZ8CAAXz//feUlpby/vvv884770RtngH69OnjeZ6Lm9Fo5IwzzvB8Ho15nzlzJtdccw0DBw7kq6++Yu7cufTq1Yvx48dHbXnPmDGDkSNHsmDBAq6//no++ugjli1bxrJlywBQFCUq2yS4An0rVqygqKiI3r1PTFujtawBrrnmGh555BEGDBjA0KFD+eSTT/jDH/7ApEmTgOgubyGE6NHkVb5CCBF7nn766dYBAwa0GgyG1osvvri1srJS7yx52bRpUyvg819RUVFra6vrVZYPPPBAq9lsbk1ISGjNy8trramp0TXP/vILtK5YscKzzJEjR1qnTZvWajKZWk877bTW6667rvXrr7/WL9Otra2TJk1qHThwYKvBYGg966yzWvPy8lrfffddz/fRmOdA2r/Kt7U1OvN+ww03tJ599tmtBoOh9dxzz2294YYbWvfu3ev5Phrz3Nra2vq3v/2tNSMjozUhIaE1PT29ddmyZV7fR2ObbG1tbX3nnXdaAb95idayPnz4cOsdd9zROmDAgNZTTjml1Wq1ts6ZM6f1hx9+8CwTreUthBAnq2Be5auceeaZra2trYDrkj6n06lDiEYIIYQQQgghhBBCewaDgdNPPx1wXcHX/v/uv+WZI0IIIYQQQgghhOjRJDgihBBCCCGEEEKIHk2CI0IIIYQQQgghhOjRJDgihBBCCCGEEEKIHk2CI0IIIYQQQgghhOjRJDgihBBCCCGEEEKIHk2CI0IIIYQQQgghhOjRJDgihBBCCCGEEEKIHk2CI0IIIYQQQgghhOjRJDgihBBCCCGEEEKIHk2CI0IIIYQQQgghhOjRJDgihBBCCCGEEEKIHk2CI0IIIYQQQgghhOjRJDgihBBCCCGEEEKIHk2CI0IIIYQQQgghhOjRJDgihBBCCCGEEEKIHk2CI0IIIYQQQgghhOjRJDgihBBCCCGEEEKIHk2CI0IIIYQQQgghhOjRJDgihBBCCCGEEEKIHk2CI0IIIYQQQgghhOjRJDgihBBCCCGEEEKIHk2CI0IIIYQQQgghhOjRJDgihBBCCCGEEEKIHk2CI0IIIYQQQgghhOjRJDgihBBCCCGEEEKIHk2CI0IIIYQQQgghhOjRJDgihBBCCCGEEEKIHk2CI0IIIYQQQgghhOjRJDgihBBCCCGEEEKIHk2CI0IIIYQQQgghhOjRJDgihBBCCCGEEEKIHk2CI0IIIYQQQgghhOjRenf8YM+ePXrkQwghhBBCCCGEEEIXcuWIEEIIIYQQQgghejQJjgghhBBCCCGEEKJH87mtpr0hQ4ZEKh/AiVt6elq6IrrLPprzJoQQQgghhBBCvU6DIxC5E7XXXnuNG264ocem25VInaBHOlDUvryjtewhuvMmhBBCCCGEEEKdLoMjIrJ27tzJRRdd5Pe77j5Bj3SgKNoCAZ2VvRBCCCGEEEKIk5c8c+Qk9cYbb7B69Wq9syGEEEIIIYQQQkS9k+7KkYMHD3LuuedGLL39+/czaNCgiKUXjJdffpmHH34YgMbGRkpKSjTdvtPp5K233uL111+nrq6OI0eOkJiYSFpaGuPHjyc3NxdFUTRNM5ocP36cTz/9lJaWlqDXSUhIYOjQofTufdI1OSGEEEIIIYSIeSfVmVp6ejrV1dWsXbuW6667rtvTy8jIYNeuXTz//PPcfPPN3Z5eMNoHRgAef/xxAM0CJM8//zwrVqzAbrd7fX748GG++uorNm3axMCBA7njjju46qqrNEkz2ixZsoTnn38+5PXMZjOPPfYYI0aM6IZcCSGEEEIIIYQI10lzW01aWhrV1dWkpaVx3XXXsXnz5m5N7/zzz2fXrl2kpaVx88038+yzz3ZresHoGBhxe/zxx1m+fLnq7T/00EP84Q9/8AmMdPTFF19w11138frrr6tOE2Dbtm384he/4PLLL+fyyy8nPz+f//mf/9Fk2+HYu3cvp556KgsWLODKK6/0+f6KK65gwYIFLFiwgLFjxwJQUFBAS0sLJSUlbN26NdJZFkIIIYQQQgjRiZPiypG0tDRqamp8/t9dXnzxRXbv3u2T3rPPPsvUqVO7Ld3OtLa2eq4S8efJJ5+kqKgIg8EQ1vYfeughXnnlFc+/FUVh9OjR/PznPycxMZHvvvuOtWvX8sknn3iWeeCBBwC4/vrrQ07vX//6lycI8/HHH7Nv3z6v77dt24bT6QxqW3369CEtLS3kPHQmPj6eX/3qVxw6dIi33nrL67vs7Gx+9atfeZZbv349V111FZMmTWLixIncfPPNPP/88+Tk5GiaJyGEEEIIIYQQ4dE0OLJ161ZmzpzJsWPHePTRR7n00ksByM3Npb6+HoAXXniBSy65RLM0AwVG6urqsFgsmqXT3qRJk8jLy/Obrl4BEkVReOONN2hoaODFF19k06ZNAIwcOZKpU6dy5plnhh0Y2bp1q1dgZNCgQSxfvpwBAwZ4LXfDDTewbds2pk6dyvfffw+4giqjR4/mzDPPDCnNJ554gvLycs92O9q/fz+LFi0KalsjRozgz3/+c0jpd4fBgwfz0ksvSYBECCGEEEIIIaKMZsGRV199lYcffphjx44BcMsttzBr1ix+97vfceTIEc9y7f9WK1BgpLa2FqvVqlk6/pSXl0ddgGTQoEEMGjSIv/3tb57PzjjjDC6++GJV23355Zc9f1ssFv785z9jNpv9LvuTn/yEF198kaKiIpqbm2lpaeEvf/kLt956a0hpTpw4kby8PMD1kN2OzjnnHBYsWBDUtpKTk0NKuzt1DJD89a9/5Uc/+pHe2RJCCCGEEEKIHk11cOTYsWM88sgjnisLfvvb33LKKaewbNkyfv/73/Ovf/2L48ePq85oR3oGRtzKy8sZPXq0bgGSHTt2MGTIEBITE0Nar7m5md27dzN8+PAul/3qq6947733PP++7bbbAgZG3C644AIKCgo8V2u89tpr3HLLLSG9qaX9FRXvvfceiqLQ2toKQFxcHBdeeCEjR44MenuR5M5nx7/dBg8ezIoVKxg3bhyrVq3y+5wYIYQQQgghhBCRo+qBrIcPH+amm27ilVdeoXfv3jz88MMMGzaMwYMHs2jRIuLj41m9ejVNTU3PV8WJAAAgAElEQVRa5ReIjsCI23vvvec3QDJ16tRufUjryy+/zPjx4/nTn/4U8rovvfQSN954Y1APaf3ggw88wa2kpCS/DyD158Ybb/T83dDQwO7du0POp9vo0aOprq6mpqaGmpoa/vd//zdqAiNxcb5N6LnnnmP8+PGMHz+eP/zhD36XS0tLo3///nz55ZcRyacQQgghhBBCiMDCDo7s37+f66+/ni1btpCUlMQLL7zA119/zYwZM7j33nuprq5m5cqVnHHGGVrmN2BgZNSoUVitVq699lqAgP+vra0NKb2JEyd2ur1rr72W9957z2++uitA0v6tND/88EPI67sfZBrMW2zav5nGarUG/dySQYMGkZCQ4Pn3oUOHQs5nsFpaWli3bh1r1qxhzZo1/PWvf/U886S7XX755Vx44YUMHDjQ89+pp57Kd999x3fffUdCQgKXXXYZF1xwgc+67a+GEUIIIYQQQgihn7Buq9myZQt33HEHhw8fxmq1snjxYv74xz+yYcMGzzIvvvgie/fuZeXKlcycOdPz9hj3g1nDESgwEur/g3XPPffw0ksvqU7vxRdfZNKkSWHvd3sdX9f76quvej1jBPAKDLz77rs+D8B1OByev91vuCkpKfGbnqIonr9DvT2qq9tLtLJhwwZmzZrl9Vl9fX1Envty7rnnavbKYiGEEEIIIYQQ+gg5OFJaWsr8+fM5duwYo0aNYubMmcyaNctv0KGiooK6ujoWL17M008/zcaNG5k/fz5OpzPkYEF+fr4mgZHf/va3Qb+55LHHHot4QKYzO3fu9Hk+xZEjRzp9yO0PP/zAN9980+l2H3/8cWw2m9/v+vXr5/l77969NDc3c9ppp3WZ1z179ni9avfss8/ucp32nnjiCT7++OOglh02bJjPZ9999x3jx48HYOjQodx///0hpS+EEEIIIYQQoucI+raa48eP89BDDzFv3jyOHTtGUVERU6ZMobi4uNOT/9raWn77298yYcIEpkyZQmtrK48++ij33XcfR48eDTqjZWVlmgQqQnml6+23365JYGTmzJlBp9mZH/3oR2RkZGiyrfaGDBlCenq63+9+9rOfER8fD0BTUxPr168PapsvvfSS52+LxcJ5550XUp6+//57vv3226D+a2lp8Vn/+PHjnu8PHz4cUtpCCCGEEEIIIXqWoK8c+f7773n77bfp3bs3c+fORVEUJk2a5PfEtKNDhw5RUlLCfffdx6JFi5gzZw4bNmxgxowZnHXWWUGlf+zYMU0CFe5X8AbjqaeeIiMjQ1V6JSUlQT34NBiJiYmsWLGC4uJiPvvsMwAuu+wyrrnmGq/lVq9ezdatWwHIysryejgqwDvvvMM777wDuAIjq1atIikpyW+aZ555JldccQVvvvkmAEuXLiUnJ4eBAwcGzOeWLVtYu3at599jxowJcU/hwQcfDHrZv//97z5Br379+nnd5tVd9u/fz9SpU2lsbAxq+T59+vD000+TlpbWzTkTQgghhBBCCBGsoIMjffv2ZdmyZfznP/+hV69e/PrXvw4poWPHjvHwww/zwgsvUFpayrFjx4IOjAD06tWrywBJQ0MDNTU1NDU1+f2/0+kMOjDitmvXroDbc/9/woQJ3R4YcTv99NNZuXKlJ0BitVq56qqrvJaprKz0BEfOOeccn+9ra2t55513PIGR9rfO+DNx4kRPcKShoYHf/OY3LF261Ocho62trbz77rvcc889nqCZ0WjU7HkrgVx22WXMmjXLk6aiKFx33XXdmqbbpk2bqK2tJSsrC6PR2OmyP/zwAx9++CEbNmyQ4IgQQgghhBBCRJGQnjnivqVjy5YtYSd45MgRnweEBqtXr14cPXq00wBJc3MziYmJAD7/D/ZNKx0F2l5iYiKTJ0+mtLQ0IoERN3eA5IEHHgirLHNycqiurubhhx/uMjACcNFFF3Hrrbfyxz/+EXAFSAoLC7nooou44oorSExM5Ntvv2XdunXs37/fa92jR4+yd+9ezGZzyPkM1mmnncbkyZO7bfudcT9odt68eV3eOvTVV19x2WWXyRtqhBBCCCGEECLKhPW2mkAKCwsZOXIkANu3b+fll1/WcvMA9O7du8sAyZEjRzj11FM1T7ujyZMn88ILL0Q0MOJ2+umn8+STT4a17vDhwxk+fHhI69x2220AngAJuB4Qu3Pnzk7X++GHHzyvNP7pT38aembbeeCBBygvL/f8e8CAAbz66qteb9QRQgghhBBCCCFC1RtctyFo8Wt2RkYGV155JeC6YqA7giMQXIDkP//5D6ecckq3pA/6Bkb0ctttt9G/f3/+9Kc/+Vwh0t6gQYO46qqrePbZZzl+/HhYAZLPPvuMb7/91vPvpKQktm/fznfffef57LvvvqO6upqGhoZOt2UymXxuARJCCCGEEEII0bP4+2Hd/ZmmV45EUjABku7y6quvRmVg5I477uDLL7/k66+/9nxWUVHBddddx9lnn83TTz9Nr169VKVRWFhIQUEBH3zwAatXr6auro7m5maMRiPDhw8nLy+PrKwsevXqRWpqKrNmzQorQLJ06VKvq0QyMzP9LldaWsrrr7/e6bZGjBgR0luKhBBCCCGEEEL0LDEbHIHOAySvv/46119/fbekO378+KgLjAAcPHiQ3bt3e3126NAhDh06xLFjxzRLR1EURo0axahRozpdzv0WnfYBkltuuYVXXnmlyys5brrpJq+38JhMJh566CGf5QoKCjy3cgVyxhlndPp9qBRFwel0smrVKj7++GMA1q9fz5lnntnpeu5XCn/66aesWrUKh8MhtwQJIYQQQgghRIT5Ow8LKzhy+umnh52Jvn37hr2uP/4CJPfffz/z58/XNJ2Ooi0wAvDiiy96vebXbciQIaxcuVL1VSPhuOaaa1AUhXvuuYfjx4/jdDrZtGlTl8ERf1eKZGRkeF0Vk5KSwgUXXMCFF16oeb47M3ToUDZu3MiCBQs8ny1btizo9Tdv3szmzZs92xJCCCGEEEIIoS9PcCSUX7AzMjJ4++23OXLkiNfnZ599tufvSy+9lLVr13p9n5CQwODBg8PNa0C9e/f2vOZ3/fr13R4YcXNfoRINgRHwfc0vEPTrervT1VdfjaIo3HvvvfTp04err746rO0sWrRI45yFZ9q0aVxxxRWeVweHq3fv3litVo1yJYQQQgghhBAikK5iHmHfVpOamtrp93379tX8KpHOuK+KGDt2bMTSBLrt1p1wuQMkkyZNwul0snLlSl0DI25XXXUVl112Gb179w77lcrRpDuCfEIIIYQQQggh9NFbqzfVCG1cdNFFAb977bXXgt5OYWEhABs2bAg7L6GkdzLorOyFEEIIIYQQQsS+9leQtP+7yytH9DpB7mnpdmXPnj3ccMMNJ216EL1lD9GdNyGEEEIIIYQQ6ihnnXVWK0BrayuHDh1i165deudJCCGEEEIIIYQQQhMZGRn07dvX57kj7f8dF+lMCSGEEEIIIYQQQuipY6AkLtAXQgghhBBCCCGEECeDzmIeiqL4PnMkIyMj5ET0eqCr0TyQs05VOO5o4MtvmnXJgxBCCCGEEEIIISJDiws7/G3D6201SUlJgHeww1/go6tgSKSCJRm/ms7158VzpKqUhaurI5KmEEIIIYQQQgghIqOrYIi/7wO9kaaz7fl9W037gIl7xfYBD3+fBZOY1uJ69aZ379707hUntwUJIYQQQgghhBA9RFdBkUDLBFqnt/sfHQMdHT/rLEjSXiRvsWkfHBFCCCGEEEIIIcTJR+3VI4E+87rCJDk52RPNCOUWGr2eM9LeKcmDObcPtHx/kC8b/qN3doQQQgghhBBCCBEhgYIm4QRLvIIjEH4wJBqCJUIIIYQQQgghhDg5hXMFSaDPO37m88yRQM8TiZbnjAghhBBCCCGEEEK4hRIUCfR5b3/PG3EvHOjz9uSKESGEEEIIIYQQQkRKKA9aDfbzgA9k7bhStF4xYjabofk76r8/qms+hDiZmM1maGmm/v++1zsr4iTmqmeHqf+/I5qtazn/fE7vuPDR79i9pz78jIqwqDm+0chsNlNfH9l6pKY+98S2EGtzwmg9Rv3MZuIBaKa+XuYBXZGxLDCZTwpQOZYNHUpfP+t+VvPvgOuEe9sNtLutJpTbZrS4WqR3/wwutvoUU5da/r2LbbWHARh281PcerGRlqrnuGXJNtV5EkJA75/cybxbbMQ7PuKPdz3PJ7ExxxQxpn/+XB4pGABfv8Xk+/9bm3VPG8mEuyeT1nGFbzcx+d6XVedZBE/N8Y1Gw6Y/xa2ZRlp2PMctSyM031BTn3tgW4i5OWGUHaOUkZOYOO5iBp8Z3+7Tf/HqjAVsPBzx7MQMGcsCk/mkAFSOZT9lwt2TSW/3kaIo8O0mfnfPn70WVXMVSXt+nznSVfBDi1f4Jl1wHVMmDA5pHQDHh0+w7dkqVz7ietGrVy+O95LnnYiTi63wbq4aDIc+LOXZTV9HNG1FcbWrXr3iONkfJaRnOfd07v6buNBfxR5w3eYtbHl7EHVtc/veA0YwOr0vyOveI07N8Y1GnvlGXAQ7RTX1+SRoC6H2zzE3J4yiY3Ra5lRmThlBX6Dl0Fd8fegILS0AdRzu5IRWxlAZyzrTk+aTeomJNqhqLPsnW8oGetaNH5hN3o+TIC4u5LtXgl3eJzjSceVggx6hZrDl8AE+3xfnk4HTzv4R5xiBlkN8+cU3ODt831x3xJPWiclK6AUkRDRLHnIRQ9Ph23+/haIEvmysOxz9vo79+xLp3VzHJ0eVk3pA07OcezrPpLBXGANcJ+v+c82r/LPt79N/fh6XD+0XVhpCHTXHNxopvdwn3pHdHzX1OdbbQqj9cyzOCaPlGGXl/4R+vXrh+J9lTH38gw7fBp4HyBgqY1lnetJ8Ui+x0gY1G8uuGMLPM86AIIPg4QRQ/AZHAm1Uy4evHv5wFQs+9P08e9ZKbrswHv7vI+5/6KXO86bHLzlCRICrbkOcHnW7+nUWPBT5ZPWgazn3cIoS1zYpDL3sg11XiYs7qa5eiCVqjm80iob5hpr6HIttIdT+ORqOkRr6HaMfc17yKfTqBQc/2RHSmjKGyljWqR40n9RLLLZBVWOZEkdcXFyn64YbQHSvF1KuFEXx+q87uAusVxAH2b1sLFUIEZv69vV5FFC3ck/y1NTtSOc5FmlRzmrE4jHSLM+Ku68PY7IX7Lpq0ohhUVGvIlj2kdhfrecbYeU5Em0mioTaP8f8nFCvYxRvIOEUV1kfPdoS0qp6j6FqyFgmukMsni+oocdYFhcX57WuFvGJ9ut1eeVIsBvSihJ3IiLU5ZNm43oRFxdHXJxCvPE8flZUROHIISQZAJw07v+Y1c8sZeMXgW+YPG1gDoUFVzJ86BCSjW0fOg6ye9tbvLJqI3ubNds1LwNziphw7UjOH5SEwf2h00HD/s/YuWUjL5R92un6fX80hoLCy7n4/EFt++ta/+DeT9n27hu8uvULv+uFs7/nj59L0UWn4dxdyrzVjpgqZwi/rAZeOpkJ4y7m/HNPHCPHwd1s27CaZ8t2+10n3LI6bfhU5hYOavtXPEnnxBEXB/0vmcaitA6Fs2c1977wsU/aOeMmM/KioQwaeBbJRs+O4ji4l23/eINn1wWuU/l3P8rPkjt82LyTe+e9GnAdNfvbntq2EIpwy3nc3EcZeZqT3aXzWPVpEE8UO2cMd99xOcns540Fz7L10ImvwqlXalxY9DATzjfQvHMVj205i/HFBfzs/GRX2s4G9nz8FquWlwVsg2rqFUBO0WwKL72Ic42u9Rr37+T90lX8w9PXBx7M1KwL7X9hCG3AVNNfRbI+u4V7jLRov2qPUST3Vw1FaZtvKArGQT9jfHEBPz0/GdduN7L/47dYtXIduw/5X1+LPIdbn9WuGylqx8FYnhNCZPsrd9tv2wJn9YsjDkgrXMSiq9oHSLzHMC3mKuGSsSyyY1m4wp1Puukxhrr1lPMFgIHjZjNtZBLsf4N7n93KOTlFFBVeykXntlUUZwO7t6zzW0/UzmPVjmWuq060Gcv8baN3V2+pibT2BRbssnEJafxm3q1cNciA09HI4SOnkWQ8hX7WS7h5noHmOx5ji58Jy1k/u5MHS35KcltFdDQ04jAYSU5KIWP0zczLyGDpg0vY8o22+3jehMd48LpBbR16Iw0NTTgxYEpOpn96Nr+wxvE/Gz9lW4AA/tAJj3DPdUPw9HONDTicBoxJSaRkXEJKholvix5kQ4fKHO7+Gs2pWK1GnEeG8Zt5l8dMOUP4ZXVhyWJm/dzSdowcNDY6ICmZpJQMRk/KIHPYMkoWbPBJL9yyijeZsVitJwYCtz79sfbx/sh5KNEn3dN+9iB3/Waoewkcjd/icILBneffZDDi4lconvOG33IyW6xYLR0+dHzNT+IJWA/V7K+b2rYQqnDLuVmxYLUaSByWyqpPP+8yndOGXEym1YqhYa9XYCTceqWG8VwrVqsBx9FrmXPFMIYYXfXjW5JITupP+iWTmDcolUVznuHTDu1Abb268sGV/G6oq/U5HY00OuJJsmbzy/utpH2Gq68PMLipWdcjiMsvO1LTX0W6PoO6Y6S2/WpyjCK4v2q4f7iJ638Zs+YNY6jRNZ642lE/rJf8hnlDUll83xKfstIsz2HUZ03WjRC142CszglP7EDk+it32++oT/8UvIraeRRTu3+qPUZqyFgWubFMjXDnk6DPGOrWU84X3BKTLVityXDUxIXXPsKMG0/sOwCn9Cdj9HVctnEje9tNezWZx6oay5Sg4wSdb0aDV/lGjDuKGuTreOLi4jjFdg1X1H/Cyvue5u+fu2rQuSNnMOfuSzD3yeaGqwex5ZX9XuvGD53C/beNoj9Q/8nLLH36TT475GptxkE/Y8qMm7nEMorbbt3Nlrnvard/fX/Ob66xckqck31vPsrMFTu9vj73op/z85+fRaB2f9bP7mfWr9JJbMv3suffZOc3J5YeNPJGfnNDqk/xqdnfmCxnwi8r48WzuO0XAzgFJ3UfPM0di7d4vht64zxm/TKDflmTePy6z5m51nt/wy2rQxse5MZ2fcnP5/03N2dA/Tv/j2nLPutyXxWa+Wr3Bt79+yb+/pH3yfu5I6cw47YrSE2fyJM37uSODscIYOWMQla2/R0/8n7+fPcwDIpCV61QTd1Q2xbCEW457/78a+JsqfRPTQW6Do6kDrVySlwcTV+c2KaaeqVKW5/aJz2LdPsnvHjfYv7+uQOAsy76HffeezWpA/K47eaPuWnxR16rqqlXg258nIm2PsRRz4fPL2LRu67v488dyZRZtzHa1ja0+xng1KzrvQNKSCfoqvorHeozqDtGatqvZscogvurKl13WVmzsNl38fKDf2DtZ66y6nvRjdw745ek9R/FzbftZMv897snzyHWZ83WjRDV42CMzlXa7UDE+qttS4opXOLe0EXM+NMDXJIInzz9a+a/H7iXUnuMVJGxLDJjmUrhzif1GkOhZ50vtMuAq06ZrmDSDRaOfv4Oy1//O+/uPOgqk/NGcsnVl3Bau1U0m8eqGsva7izR4PaZQHxCNt39TJGueNIPZkLVVkCK8g3vP/Oop1IBHNyymJUfNaMoCikZGT6rXv2b0aQoCi17Xmba/LWeTgPAsf99Fi/+O/sVhQTbL5k0RJNdAyA+LQNrgoLSspu1L+/0+f7gzndZsegVdvpr/fHDuOG3mfRRFJp3r2Da/LVejRdg/5ZXmH/HfN51eK+qan9jsJzVlNVl12XST1Fo2f93r4YP8Nkrc1n2UTOKkoD1mqsZFt8hXRVl5b0ZVzuIC7IdOt5fxB1zl/kM+q50l7Fsw0FXuiMu6XpjEWqDqtqCRoIt54Of7ueQoqBYM7i44zH3Y4i1H4qi8NXuE5cXqqpXKpzo0w/xz2UnJpMA3+xcwaOv7KFFUeg34hquTvJeN+x6FT+MX+ZZSVAUDm1a7pkQArQc3MLStnbvd6xRs26gfQ/yBF1Nf6VXfVbV9sNtvxoeo1Bp2teFwlNWzXy0YpEnMAJwaOcrLCrdTYui0CfzGq47t3vyHGp91mpdvYQ6DsbkXKV99iPYX3VI2VPWoTbXkI+RCjKW6VE3VAoh37rNCXvY+YJnPXf6/VPot3cFN923zBMYAfjm8y2sXbyIV9o1Ga3msWrHMvctrqGsE8p8pNPrWSLxAFbfNOOCTs+Tt2+28fwu39ay5zNXZ6f0OxevqmWZyKj0BBSlmW1vvOl/4/tf5p/7FRTFTMaIjteHqeDOc4IRk6nrxduLzxxNtsnVkD547Z3gV1S5v7FYzmGXVdIVZA9OQFGOsn+T/zx/9O5HrhNlk42L07y/C7usOnJvJ/icd2rfZ1/QrCgo/S2M6OrEu62TDSZ9Vfuroi1oJthy3reT/UcVlMRU0tqd+CRfcTe///3vmT+x3d4ZL8GWoqAoB9m7q9H1mcp6pYanTz30CZs+cfh8/80H77P3qIKSkEbmMN/LrDsTsF6lXYytrf19+P4nvivuf5l/7gkwtqhZ10cIE361/VU01Gc/Omv7YbdfTY+RtkLq60LgKavmnbz/kW87avzgPXYfVVAUKyOGJfnZQmDB5zm8E1j16+okxHEwFucq3iLYX3VMOdw5h8Zzlc6TkrFMj7qhSgjzSb3G0J57vuCuU9/w/ksB6kl7ms5jtRjLOntGj7r4RUgPZA0mAdW35SjuS21CWPbbfX6/djQfcX2fkED7vs44xEpKXBxxHGR/g4nkjg8OAsBA86GjxMUZMJvPBepC3xc/Wmo+44ujuWQYfkzR/5uN+c33+GDHDmoaug6FWoak0icuDpo+Z2dN8KFT1fsbg+UcblmRkkpyQhxxNLL/80a/i7Ts+Zyv4sbQj/4MsBhhV7tBOsyy6sh173Rwba69pLRLGHVxBqkWEyaDATBgMACnnUtCXBxxCQl0PWVQXPfXB5O2iv1V0xa0EnQ5Oz7gs4P3kGXtT3q6Efa7jvmI0bn8OB3odwm2l3ZRBWDNwJIQR1zTF+xwB+HV1it1O+k6Bl99zif+irbxHeoap2EzJ2CxWmBTjc8iodarJMsA+sXFgfMrPvdfNfj8q0PE/djk09erWTfgvgdRl9X2V3rX57DafpjtV9NjFCZt+roQuMvq4B4+9HdIHZvY13AnWSnQ35oK+J4Mqc5zCPVZ03V1EvI4GINzFb/5j0B/5Zu0u6xDzXJ4c5WwyFimS91QJ/j5pF5jaE89X3BfgYH9Mz7aE8QKWs5jVY5liqKA0n39jqq31fijNqOeKE8Q0R73ss6WFr/LerZlSEAxKChtdd5kMpGgKMCPKXryTxR1kaeERIN2B+DQO/zpz9k8WJKJaUAO46blMA5wNtVTt28PO95bz0vv+a+lpn59XPlobOCjo8FH3NTubyyWc7hlFW/sRz9FQaGZb+wB1mtppNGhoCSCMdmEopx4OlO4ZeXLlbYSbOM/LYOJ981krM3k+5AmLwZXup28cKVjxLWz5FXtr4q2oJ3gy3nXngaUwWZSbWko73wCp40ma7CCw9FEYn8bI1IVdu2HswZZ6a8oOPd/ws62uqe2XqnaQ/cxcjQG3Mdvml15Suxn9F4mzHqVmNy2nZZmGlv8729TowNF6efT16tZ18/eBz2eqO6v9KrPKtp+uO1X22MUIg37ulB4yupI4HbU6G5HiYmatCM/uQi6Pmu7rl5CGwdjca7SIYeR66+8kj0x1of+S2uIcxUVZCzToW6oFMp8Uq8xtMedL5xIoG2/D7JL6frKE23nserGI/e63UXz4Ih6Sgg73fWlRO7okpfEtjSc9VRX1dHV77POXf4jZOHa/+Y8pn8ygtHXjCbblk5qionEPv0ZfEF/Bl+Qy5i85RTN+Zvvioa2DuxoiBVC9f7GYDmHW1a0dUi0dP7Qp7ZO3uCz+TDLyl8eul7M4xdz7qPQlgjOA2x/+2+8XVFFbYPjxD5k3MQzs3JJJLiNdjmInVhS1f6G3RY0Eko57/tkH44r+9Mn1QZ8Qrwtk7QEBzv+/A6WkgJsWefC/oOk2QajKAoH93j/aqWuXqnhOkadpXuiHLynjWHXK8XQZT1vUY767+vVrOt3v4I8wBr0V3rUZ3VtP8z2q+ExCpXWfV3wui6ro20Ta6XD2ZdWeQ6pPmu4rl5CHQdjcq7SIW+R7K86JB5WUw39GKkhY5kudUOl4OeTOs0Je9j5Qsf0aQn+ahmt5rHRPpZFX3BE6fB/Vcv6X8DR0BbJcu7h1QWP+b88r5s5Dn7I3577EHcTTx1xDWMLxpOXlojJVsSCX2zmvre9O6zmxmYgEfqZyAB2BZuW2v2NwXIOt6xanM00AwYSMScCfl9xZiSxbdxttncYdsIsq0CLBTWgpP6WsbZEoJHNj83isQ99h8J4EtumCpo0rBAW7Xpb4bQFzYRQzi01uzhIDmlmK6ON8TRkX0Bi0y4q39uMNb+AsVk2ktYnkj7YADSyb8eJB1uprldqtO2bISHwBfumtnSPOtqlq6JeOextbd9gCHibQKIx0St/WqzrK/gDrFV/FdH6rLbth9u3a3qMQqB5XxcCTzsK/GpE9y47m7VpRwEzEVbASc26Ogk1yzE4V/EW+f6qQ8qht5pIVisZy3SpG+qEXrMiPSfsUecLXuu5VwxucW3nsdE9lkXdC++VICJpvssGXtpfRK3x4AEaFAWljwWrWXWWNbHvw7/x5D0TWFOnoCgJpGam+yxTV1tHi6KgmKxkhvD8JLX7G4vlHG5ZcbAOu6KgKGYslgDDmdWKJUFBURw0HPRu/OGWlZ+lUBQFQxAtId5ixawoKI4qNu/w3xlZ0y0kBBu9V4KPRGu3vycE0xa0E3w50/g3auoUlAQrtjQr2TYTLfsr+cCxjw+rGkhIyybTPIQ0s4LSUsuO9reRqqxXariPUYLF6n+B+FFYzK5l6utO3Hespl45DjbgUBSUBAvWAEJuTXUAACAASURBVO0vNcXkt69Xs25HLW2XqyoGsHWxbHf1V91Zn9W2/XDbr5bHKBSa93Uh8JSVJdV/XYrPxprsWuab2hOzRi3zHEp91nJd/YTQPxObc5X29OuvlLZfe8M7UQnlGKkhY5m+Y1lYQphPBtLdc8KedL7gvRahjdEazmOjfSyLuuDICRp0tIE2Uf0B2+sBrORfE13ThIMNTgAMfh6/49ixmSongJXcX2UGv9Hu3t8oLOewy6rhv9lVD2AgLS/b7yJpuZmYAZw17Ajl4U0QdLV2NLnqgdEUzFsPXMtiMPp/aJMxk1/knhghI/q7oYrEOmsLWgmtnGHHvibAhDVvLDazk9rKHQDUfliF3ZBG9q+ysADU7mBz+3Ghu+tVMMyZlPh5ergxexRpBoAD7PG6vDb8etVSs4MaJ0AKWbl+ZhtJeWSnGfysqW7djpwNdpoAjCmkdnWIu7m/6p763M1tP8AKWh6j0ERBX2fK4hKbb+rxtlHYEgHq2bWr/cMNtctzSPVZw3UB8u5YwIIFC1iw4D4KNHybVmdC7Z+7FIVzlfaior8KsdFofoyCIWNZ56KkPmutu+aEPet8QUVCGu6vnmNZMKIvONIWvQ7uF+6ulnV/32GBlir++7934VAU+l81i3lj/Y/0ybY8iubMIl/Dt1wZs4u4s8B/pYpPLSL/ggQURWHfLt+nbNNYzqtv16EoCv0vn8E8fzMUYxr5s6Yxqn1QT+3+xmA5h11WQNnb+2hRFPoML2ZOnnemjLYSpucPQFEUGj98m/KOgdFwy6qDfXtcr/BKGD6OgrTO37nQsm8PBxUFJeECxo1L9fk+f9YMLu8XXLqh5NG1aPj7q6otaCSUcgao2bWfFkVh8KWXMlg5yIc7XBOwlqoP2eXow8hLh9NHUWjY45tnVfVKDc8xGkD+9CK8djMpm5LikfRRFFpq3mN5u6tdVNUrRzlvf+h6aN7g/OmMTfWezORNL2Z4QoC6o2bdDlpqKtnlaNuHKXldLKyuv9KjPqtu++G2Xw2PUSi07+tC4Cmr/lxeUozNqx1lUlKSQz9FoWXf2yxvd4i1zHNI9VnDdQGs6RdwwQWu/6zG7gtYtxdq/xyTc5X22Yhgf9WRu1xCbTUhHyM1ZCzTpW6oE3x/rNucsAedL4SWvi+t5rF6jmXBiL5njkRIQ9lsltheYFaumawpT/DXwlpqquuod4DRlIzFaiXFZAAOsHqVhgmb0hlTXMiY4ibqa2uorbNjb4LEFNel+iYDUL+R0vIGv6vXLJ/KMutLTLGZyCp+gr/m11JVW4e9BYymVNLTUjAZqli6NDr2V7dyJvyyqltzO+ty/0qh1UTOjKd4Kb+KqgYH8aZUbLYUEgHsFSxbVqlthtvnYeM6thfMICsxneInXqLAbsfeFh1uqVnF7UvapV23htVbx3Fvjon04id4KXs7VXV2nIYU0mxppJicVG2tIjXHhr+75fNnPU6+pd3Dy4zJrntvEzMpeeIpJni+cFK7ej5LNmt0r6fKtqCFkMoZcFRVU4cNK8CB7axx/0DcUsnWGie5WQagiZqqWt+0dK5Xzvp6HNZCFj6XRVVVHY54E6k2GymJgLOWdcvXdcywqnpVuWwZFbZ7yTXZmPLEi4ypqqLOEU9yWhbpZqivt2M2m/zmVc26XhybWVU6DtuUdMy5M3gzdzpNbceXmuX8em651+Kq+is96rPKY6SGZscoFDrur0f9AezWcSx8IZOqHfuwd2xHS7VtR15CrM+arauTUPtnNfScq3hEsr/SSCSPkZuMZdFbN1TNJ3WcE/aY8wW1aWm1v1E+lvXY4AhA5aLJzK66k5IJuaSbrNhyrF73LznttVRtXccqDV//7azdztbaZGxWM2ZrFmavWyebOLB1DcuXriHAbZEArJ89kbqiORTn52A1W8lqvxFnPdUbN1LmZ3099lfPdCH8slo1ezb26dOZkGvFlJ5FrucWRyf1VWUsX7ycyu58wHdjOfNnQ/GEcWTbLJhNZhLd42eDb2R48yMTSZz1LEW5KZjSc07kt+kAFUsXsbR+HM/l+L+8Mjk1HWuKv28SMVs7TBXMnb8ELxRatAXVQixn6nZQay/EaoL6Ku/Of0dlDc4sGwbnPqqq/V9OqGe9ctasZP6aXO4sySEr90RhO+u3U7pkEWv8XAKppl7RuJnFs8E5azpjrCasWbmuoJLTTtXqxZRSzMLCAJNCNet2ULd+JrMd0yguyMGWYiLR/bQwg/+6HG5/pVd9VnWM1NDwGIVCt/1t46wtZX5pDrNKcrHlnug4Xe1osfbtqINQ67Mm6xrzsLjvOrBXsrEqQk94DLV/VknPuYpbpPorzUT4GIGMZdFcN9TMJ/WeE/aU8wW1tNpfXcayICn9+/dv1WRLMS4p1Ua6JRmjwYnT0UhdbS37GrrzrAwsaZlYkk0YDU4c9gYqd4R+qVhyWiZW9zYa9lFZFVwvp8f+6pkuhF9WtuxRJBsNOB126mqr2Neg66O/OxWflIot3YLJCI6GOiqr9nW9UhTQoi3EmkjVq1Hz/sq9WQaaKubz60WugE5a5iiSjeBoqGFHTde/wqitV0aLDVtqEvEtjWyurIrYumqF21/pUZ/1bPt6HKNo6OvSMrPb2lFtRNqRXuIzZ/HSQ7kk4qR62S3MXN99V/NFCz3nKuGKxTyHQsay8MVa3dB7TtgTzhe0cLLurwRHhBDiJOZvQimEEMFKK3mBJ8aZof4tZt/yDJG6cESI9mQsE0JEQvQ9kFUIIYQQQkQFm80MOKlaUyqBESGEECe1Hv3MESGEEEIIEZi96i3eqqrhmbLuvHFeCCGE0J8ER4QQQgghhF/ly58h+t5lI4QQQmhPnjkihBAnMaPFhtXkejJ9TV30PoBNCCGECETGMiFEJEhwRAghhBBCCCGEED2aPJBVCCGEEEIIIYQQPZoER4QQQgghhBBCCNGjnfQPZLVYLOC0U9eg7f2JFouFuro6TbcZzSwWCzTVU9co7/ETQkSv1MxMTB0/bGlgR1V099c9vY91jdVN1DV07xtReno5a0nN/CrQurHafkXwpA2KaBep8Sha0o0Erfv27iyrk/qZI5aCp3iu2AoHVnP11FWabTd7zl+4PycR59ZH+eUjmzXbbrTKnvUX7s9NxLn9UX459+TfXyFEjDLmsfC1Gdg6fl7/FldPfkaPHAWlp/ex8aPm8dq9WRiaKpg/cRGV3XTO1NPLWUtq5lcB143R9huOeEs2uWlGwEFdZSU1XcSXMvPyMAHOuu1srondEydpg+FJzR7LmGwbFpMBp6Oeuu2bWVVepXe2TkqRGo+iJd2I0Lhv7+6yOumvHBG+MovmUZgO9orlLCqTX2OEEF2LiX7DUc7G1VZqDa5/xltzudLm81tFt4uJshJhk+PbTaKk/UZCi9PEmJLp2BKhfuNsJi8JfKJrGfs4909Jx0A9b82uQEIKPYjRRtG8ORSmJ3p/nnsl4woqWDx3EZsb9MmaEEGLsb5dgiM9kDk9C5sN6g+sAWRiJ4ToWqz0G+WrllPe9nfS2DRdBuBYKato0dJYS021kXhHbUz8WibHt/tEQ/uNiIYylpXl80ShFXNuCQVrbmeNv6pkHEXRhHQMuIJxz1TFQAMRmsmf5Q6M2Kl6ax0bq+oxWHMZOy6HlJRcZsyz03j7cqRaaEev8SjWxsFQadm3d3dZSXBECCGEEPqpWsXsmXpnQojI2le6nI25C7nSbKWgJI81c8t9lkkrKiYnEWiqonRlZeQzKXQTnzmLCVmJQBNVy+5m9vq2S0Q2b6ai6k6eemgM5pR8isaVMdNvZE2ERa/xSMbB4HVzWcnbaoQQJ4WkpCS9sxBRsr9CiFBJO4oiLVWsWrkVO5CYNYE7bfHe3yePpWSMGXBSW7aMsiBun+hpx/dk3t/s/LYHWNZXnAiMtHHsWMKaKidgID0vT4/sRb2TuW6I7hU1V44YU0cxYcI4sm3pmN231jUdoKpyPSuXl3X6sKpRJfOYkJdFSiKAE3vtdjauPHH5TvfmO4+iKRPItZlxJW+ntnIdy5etoarDM7NSC+YxI9cE9WXc/khZ4G1mT2PehHQMzmpK5z5DpcoX7Riz72ThBGvbv+IxWVx/mXPv5Kn0DhuvLuX2ZwL/OhFvTGNMSQkTctMxGcBV3pWULl5M2b7A1zapOb5qhJOurWghJVlGnFUrmV3qiMj+ZpY8TrHNQG3Zauy5UxhnM2Fw2qlat4j5a6Dg/lmuz3ByYOtyprarP3rVKzW0ynNq3jSKC3KwpZhou5WRpgNVVJaVsmS9/3u404oWUmKLp6VmFbOX+y4Tn1nCwglp4Khk5tw14e5ip5LS8pkwIZ8cm7WtXgHOJg7U7KDyrdWs2rzP73rh7G+49VmrfsNzrGtXc/uSzVhGlVAyIY+slLaG4aynqmKN33YRzv7qoSf3seEe37FznmKMucPGHNu5fXZwD/f0Hveh6cB2ypYvpsxYzIwrzVC/kdlLAs8CQilnLY9vqNxjg2P7cuZXJFM0ZQJjbGZXe3DWU125juVL1wc8vqMKppGbZcOaasac6OlsaDpQQ2X5apas2dFp+mrmV3rNzfRqC+FwbH6E1Vf+lSk2M7kl41hy+4kxJ7ukkHQDUL+R5aX+xwSI3XEwnL4unPrsGQOrS5nZSdv09GV167h9kW8tjWi9is8kx+ZKxL7d/1NmtlbUMN1mg5QsCpJXsUbjZ4+oGbsjOQd2U9PXhTseqT1f0CtdUD+GRpraOUMooiI4kpw3i4XTczG3HdSmejsOgxGzKQXbmOkstNlYPNv/Q4fGLvwLU9o6EGeTHbsjHpM1h8KHrKR399zZPIb7F2ZhS4Qmez31mDCbTFhzi1mYZuXRuxexuV2ApK6mHmNxFmbrWIpSy1gVYKzLHjeGdKsB5/Z1mpzAxpvMWKxWz6DpkWjG2uEZT067MfCGDOkUL5zBOKvBVdZOI6ZEAyZrLtMXxtN0yyNe++um5viqEW66RnMqVmsiTkcWxQvzI7K/RosVq9WApWQGOOzY7U7MJhO2wlkszAKrBerr7ZjMJlJySliYv5XZZa7E9apXamiR58xpz3L/lSltJwlN2O0OMJkxpdgYM2UhWVlLmTjXdwA1mVNJT0/E6Qjwq4LJQnp6OjQ1kBkPOzS+n9FW9DhzCtPxzBfs9TicBowmEym2XFJsJhp2zKZMo/0Ntz5r1W8kJluwWs3gNJFZ8Dizik/sOwAGM7YxBeSVlVFTo35/9dBT+1gI//iaLVasKR021lRHdjxd3kPcftynyU69A0wpWRTevxBLFdhsKZBUHXgDIZazZsc3DO6xoclZwLz8LNITnTTZ67Fjwmwyk547hYWpVubPXMKOjicoeQu5t9j9fgBnW18DBnc7KraRnb2SX8/0f/KrZn6l19xMz7YQrvXL1jHmiUKs1gLm5W1kbnkj8WklFOWYADsVy1cFfKZErI6D4fR14dbn2tomkgttJFryyVtVSXmA+U9+fhZWMxzYXuvzXcTrldmKpS2oWFvjmx+AxtoD1GPDTDJp1nho0PYghdu3R3oODOr7unDHI7XnC3qlq3oM1YGaOUOodA+OxNumMW9GLmagfvtKlixeR1Xbu8+NqXlMnzWd3JRcZsyoYvNs7w4+tegpim2JQD1bl87nkTLXGVa8ZRTT58xgjM1nKqMpgzULm72KlbMfZU3bZSJJmUXcP6uQdHMu02dsZ3O7e0hbqp6h4sCVFKakkJufxqpnanw3mjyW/DQD0MT2jdr8+tRYNptftiu6/IVvMt0G9W/NZvIzwc9SDLZx5NdvZ9ndi1nf9io5y6hZzLs3F3NiDhPGpbK5w1mumuOrhhbp6rG/hrp1XH27Kwpa8NSbFFtNWC3VrLx9JmvqILXoWZ4uTCEtOwvKXHVLr3qlhto8G7PnMOPKFNevCBWLmbroxC8rtqKFzCm0Ycoq4amCam5fE/gXt0hLzpvnCYzUb1/J0qXr2NFuQpM6qohizy/UJ2ixv6HWZ636DQ9TPiUTUmipfoulpesp2+G6Rzo5bRS543Jpf0oZa8e3J/axPkI4vgDLp17Ncvc+uF/LF0QyJ8Z9O9uXzWfuelffEZ+cTcn9s7gyq+ut6N4WwpCYnkW6fTvL7l7E+rafXZMzS7j//nFYU8YwY3olExd17NubOFD1FmXryllf6d3HWkZNY9aMK7GmF/Ns0XamdqhXauZXes3NoqYthGrfKlZW5PLQGDNZEyZgq1hDanE+KUBTVSmLAvyaEWv9ZHvh9HXh1mdHZTk7mnLITbQxJjeJ8jI/Z4u2aWSZAWqpLI+CPjbZ4rqlBgf2hgDRnPo67ICZREzJJqCbIn4h9O16zIFdwu/rIPzxyJPvsOqzPulqMYbqQW1ZhUL3Z46MKxpDCuCsXsnkuWs8jQjAsa+cRYvWUQsYbAWUpLVbMT6TwjGuX3LsG5d6Bl+AlrrNLGlbr3s1sXXZfE9gBKBxxyrmr6rCCSRmjaPA4r1GWXk1TsCck09mh9tLASy5Y1yXUdorKdP7530f9WxcMt/TAAHqNi9i+dYmAFJsPm+wDv/4qqRNupHf3/qqE5Pbqqp694eep9jv21GDHTAke1esWKxXavKcV5CFCXDWrvOaEAJUrZrN0q1NgAHruHF+t62L+EwmFGfherbeMibPXeMVGAHYt3kVc6fO9blqRJv9Db0+a8qcgqlmGRNnPuOZXAE01GxmzaJHWNVuPhOTx1cTsdPH+gjh+IbNa9xf7JnUAbQ0VPLMolJqncFsSOe2EBY7FUtPBEYAGnYsZ/5KVz9qyh7H2A4XATjKH2Hq7Gd8ThYA6jY/w9KyAwCkZOd6f6lmfqXj3Cxq2kIYdqxcydYmwDyGaQ/NotBmAGctZcsCn2zHdj8ZehsMuz63VFKxww4YSMvN8Zsb26gcXLGRClZ1eLapHvUq3mhqCzo04XAVCalj5/DUC8+ysCSzLXEH7t7AaNL2ijUvIfTtes2Bw64bmtFrTAkxXc3G0JObvsERSxG56a5fhivXrPO/zL5VVNQCmLFlt2sM6dm43gJUz9ZyP/eR7VtFRXdfEdS0g3I/J5qNFRupcgJYyc70nq00bCynxjWTIT/LtzPLy3P9alxfUab9ZYxq1Vf6fY1cdVVbr2Wy4NUM1RxfNbRKV4f9ddjtnr/t9ra61dju14AmO00AiSYy260Xi/Uq7Dwn5ZNjNQBOajf6L+fKskrsACYb2ela5zw88VljyG7rsypKQ/h1Sav9DbU+a66e8pXru14sRo+vJmKlj/UryOOrRlfjft0aNgZz5q17WwiDfTsbt/vONxoq2vpRQxpZfvrRztRW7XONJ2YL2e1PntXMr/Sam0VVWwhD42aWl1bjxECKLR0TUL9xecBbTmO+n+yGNhiwPgPbN253nVSn5ZLf8U6ieBt5OSbASfXGCu/v9KpXBtp+FW/B2QIY8yguzsFqTsE2roSSVAAnzrYTWYOhO3/tD7Jv13EO3JXO6oYm9BpTQk1XqzH0JKfrbTXGNCuuplFHbb2J5GR/Sxlw2F1PZE42WwDXAU+ypLguOXPWEeB2PGrq7JAe/nuUu1RX7f8+J0c5tfUzyEoBs9UKtKuAjWW8tb0IW04iWfnZUNnusrC0EnJTAGqpKNPiZzaNNfgvaIejrQMzGGjf56g5vmpolq4O++t0On3/bvcZLQ5aAOINGOIBd/2LxXoVbp5TUkk2ANiprfFzeSzQUlNDHWMwYSbFYoQq/a+WsaSluu7XbaphR3UIESqt9jfE+qw5exV+ftTxFaPHVxMx0sf6FezxVcFr3A9wgr2vNohxX++2EI66Gv+B7cYyDtinYzMbsFgtUO57EJLSRpGbbcNqMWEyGAADBgNgtLhOwAwGr0vj1cyv9JqbRVVbCFPD+pmU5b/JuBSgaSsrV3Vyy1as95Mq2mCo9Rmgpaqc7fYxjDGlkZebTFm7t7/E2/LIMgHOGioqvG9N0b9exUM84Gyg3nUPDTQ1UGt3pxwBQfbtus6B24RTNzSh15gSYrqajaEnOV2DIyaT+8na6RQ//SLFXSxvMJ44xInJbdXb6cAe4BKgJnsT0H0H2OmwB/zOHfA0Gn2bYWVZJfacMZhsY8hPKsd9+6Mt33WfnrN6o89lfdGgfaflV7zB1Ym3dVZqjq8aWqWrx/62tAT6hztTgbcXi/UqnDzHG02ee3EbAjVBpx17E5AIxmQToP+k0GRqe/iVvT6kh0dptb+h1mfN2esI5ukMsXp8tRArfaxfQR5fNbzG/UDZcHQ97uveFsLgbAo833A/ksDn0nqjjSLPWx460/Yzddv+qplf6TU3i6q2oEJtA5AC2OvY3Em3Fuv9ZFhtMMz6DEBLFWVb6xlzpRlrbjasP3ElhG1M2+1JNRWs7xBn0q1eOZy4QghtJ/ctVTxz991U5VhwVFWwoxEwei4vwensxmMbZN+u6xxYTd3QgF5jSqjpajWGnuz0fSCrexx31lNdVddlt+30ejdu1x1Qi44zG0+b9tNKW3YsoaJ+DOPMNvLHJFO2pgHiM8l3ha6pKqvwXSkWqTq+km6oYrFeqcuzs7NYkUfUTIENbTkJu1uKsf3tqKtB3HeF2N7fSNC5z/HeuNyo3J2CK13vCUf+/XMotCWC8wDby9ZTVlFFbX3TiW3ZpvDcvbkk+mxHzfxKp7lZNLWFiOo5/WT49dmlpryS+ivHYU7PpSB5vevVt/HZjMlsm290vKUGdKtXLQ5728NWjZiMbWe3jTVsbn8lrcnkOYVtDBgh00CwfbuObVBt3RCiPV2DI03unzucNZTOXxTSsxCa3JdmGOIDXiLl76oNLRkMgZuZ0ROc8989lFXUMq7QijUvH9aswpidT6YJaNpOWeXJMWirOb6SbnhisV6FmucWp+shZAaMmAM2cSPGtvMEh70ppPx01727DrsDSASTCRsE/St7d+9vtOlp+6tGNPQ5keTZX4MRU4Bf/0zGk3P6azAEns+Y3HHXpnbzjdQixra9kaBi0Uy/bzyJx+j3V1Y18yu95mY9rS3E6jgYNhX12aNmOZUHxjEuJZ3cXAtr1tQRn5VLpusp6Wz0s03d6tWBE2+iSbYYcV0q4i3e80YbO/V1+l8VpFtZaVE3eoiePIaGQtcHsjbWHaAeINGC1Rzauo66BtfDdQwWrAGef2RN6ebLgiyp/h+wE5+Nte1eu4Za/6/WqivbSLUTSMllWloS2WNcb7GwV5YRqZeJdHdHoeb4SrrhiYZ6FaqQ81xX13Y5oBmLJcCs0GrFYgBooqHDpMHpdI0GgSZ/yckdn9amjbraOtevGCYrmaE8s03l/mqt2ycYGu5vi/sSPgO6PGDzZO1j9dJYd8BVNwwW0nzfeA1AqjVylwNHcrJtsATY4fhRWNqOfX3dgRMfW6yut280VVHh50GuANZ0i999UDO/0nJuFkr77WltIVbHwXCpqc/tlVW62og1NxuArLzMtjfIbfR7G5Nu9apxPTVtL2ux2Pw/TddsS2t7fkQtVVHwEE29ykqrutETRMsYqvfcrCv6vq2mejPb6wGs5I8NrXhaara7ntBOClm5fkbgpDyy07q5KZiyGGXzvVgx3paLLRGgnqqqAA95aFhPWZUTMJMzYTr5NgNQT0WZn6cHa6ypyXWhmdHUzYOfiuMr6YZJg3qVd+dCFi5cyMKFcyiIxOsOQ81zwxpcb3gzkDYm2+8iabmZrsHSWcP2Gu/QuN39C1qy/53LykoJYye65the4XmLVW5BCM9ZV7m/WolYv6Hh/jrr255sb0whNYJz/ZO+j9VLdSVVdgAzOXl+2pClgDEBJnxaitjxbc+c6ffVl8bsXFxTnQPUeF2m7n6NhdH/LRXGTPJz/Z/BqJlfaTk3C6n9atoWbBQtfJzHH3+cxx+/k1HRFSdwidFxMHzh1+f26srLXa+S/v/svT1oG9ne+P95Ck0jFZ5Gcwup0DRSM43USIWnsRqFJeK52LCYZ7FhcbgbQ4i5wYtJeIIXB7MmS0Iuzl1i7kPM/jF7iVmwuawaq5ELq5GbaaxGLqxGbsaF1IyL37+Q/CZLsaUZaSTrfCDgaHR03r5vc+bM96g6M+FxJjQfUOUwm29dwEUbm69XjE9LMd5i/SsVr8+RVcyTHYSHX66NlTOyMRIMiA91Kza7L+4ujpwbbG8bVAHl0SLLj1sbab82wczLRVLX/WwtSyZfXzdXU/M8Dt1UiYn5WWI9XyZUSM7Not1I8x5lbi7eOHs+w8ZXMjznMnmqgBxLEJGAk9xXv+8Ux8X6go0USzMZ7uGrR3bmV9TbNXblSg1raFr9n9qnpHWdtjmTKWEBvtgsLyduDqRXm2M+VQ8azHzmVtBQNo7rK+eKznLqZjr18ORbJnvlGM6ybGXqT62U5ALLrVaevGFSi09vBUJ2+usUfbMbONff8+IBRhWQNNJPJnrX4CYevI11i/NDvuzVZUNOLrCcCl1dG4sytziN2ofHg/3UhSuCpOZnuFHdWJy52QQ+wDrKsnHt2Nfz42L9HAhJI50O0UxqcYFkuweEduIrB2OzjvTXSV3wjBEIR4hEIkQiKsqAPnIeSj/YJbbk+Trl7cZR0ir682liPsA8JFdos8juoo01djOU6hPMk+fjN66FZz5Qn16T/JcBySfn0lg5JhujwID4ULdis/vibkJW4DSzxHvtXyzqCrEnv/DHVIniUZlKDbyyn4CqEpQl4IQvmzfL5j99Iqf9iC5rPPnl/0gaBuWaB384RkSBSsVEUXqoEZUTTDXN6r+iGIfHmB6ZkKYR9AFWiZ31Nud8NzgvZMib+qXSHmUzvWvrNcp7OxQmF4j5Isz+8huTponZeBJ2Xtzk2fs2K+hdYGd+Rb3d4ZZc2aHTNpe3n7Gj/8GUKpNY+MBvKQPjtIZHDqFpwXrSLTPHp0+3Zfn8cI3ciU466CM2/yv/mjAomeALhNGC5xQOSsQSvYkMixs/8En9jSeaTGz2uvkesQAAIABJREFUF/5IlTBKZcxz8MohIuEgsmSwvu5cf52in3bDsf7W9tncSqM9iaDoC/xHn7986k9xg29fZ79evtv2j4CNtUNq8S2pwLUIzOuvb3n2RZn75QPTlxcsSl9WeL9/tSPiePMZnyO/13Vo/h/8MVOhYoKsKPgokTvwoCd6+9S7n/N7gVWpUFOnWP01hmGUqTXHGxtN8UZ5my8HaX5MyERmf+G3eAGjbGJJQcJamKBsYRwYhBJayySFduIrx2KzDvV3GHXBDsPqB7vCpjxfJ5c7YjoSQQk2Fo8Ke189Qc41uSpv824rzi+zEeTEj/zxrzRGqYYUCKMF672s5NZZOxyEbSN1XBkrm7Jhxx/Zwa16B8GHdmrb+z1Wri+OAOTXvmfJeM7ctE5EVtES6o13kCyzhHGwc/sY0rN93i2BtThPUpVRYzpqvQDGl3dsMcvqVA+P8i1tsbKVYHFOR9OvBMmqFNh6/47tu7a3nxtkchWSaQUsg+xe6/wkjnOWZWUJZqfTxLUAiqzguximU+efgnU9v6Le7rAjV96Jy/fXMfPsGX3KqNVFmzeXljDn55nWVeRIDP3ytVyLipFh490G7XLQfl5bx/9qjoQioURija3HJ+TW1/hkzfL/JRzqVwt2l76jPPOS2VQCVVGJKdcCUKvC0d4emRaxjp3+OkKf7YZT/S3vvmCp9pTZyQRaUMbnazjYXiYcHBEb2y3+UAS1ZezlQ1GbwtcWj+13l77FnFtmeiJG0KcQ9FmYpQM+b6yTj/6EDr09hrfP8wtgFT+zsq3zfC5BTL+yGfV4Y61lvLH/5jt8i/9kRg8iRxJXOlSt27r1SppfE222v9uJrxyMzTrV32HTBbsMqx/sBlvyfI3TXJbibARNAjApZO9Oj+6WXB1vv2DJesnz6QRBJULsIj6zTI721nnxsXcPRLrFjbGyIxt2/VG3uFUvDIAPpTPb3u+x+q+//OUv/8/2rzjIWEgjEvDjlSys2hnlUonj07tXRb0BDS00huf8jP38fc+BcI5wNI7fC7XTEofF+9+MTiz/zkLMh1V4x1979BRzkOh2fkW9ndGtXHmii/z2k44Pi6NPf+PFbp8W7LCnC1p8HL9XwqqZlEsGx6f3s+oBLU7I7wWzzP5hH95pa8IfjqL6ZbySRe30mHy7HEVNdNvfYWXU+msHt2zOoBB++i9+eaSAsc43S4O/a+4uxpf/4MeYRDW3wrdr9RuhcHS8EW8U7xVveMZCaJEAshdqp2XyxvGdZa5jJ75yMzYbNV0YVj/YKXbl2S5uyVUoGidQ77Qr9znd0O+xcls2HgIPzYd2w0DsHLnO2bFBvgtZrpUN8i4+CSge5unYpfgfk2okg8pnBuSdwR7T7fyKejvAhlypsXB922Flj81M/xZG7OqCkd/vqtqykcfNB4inxUNOu4hFu+3vsDJq/bWDW7ZuUAg3Mu1XTgbg+IYeUTzc7yjeOD875tCGUNiJr9yMzUZNF4bVD3aKXXm2i1tydXyYZ9jEud9j5bZsPARGwYfehbsJWUecibmpevLJSo5Mu2RQAkGH2JErTVMAC2N7i369UQNCFwQCwf3RoreT7gGMxZ+TrhsS8tnBfwIuEAgEAkG/ET706wzczpGHTnTmJWlVwhsIE1HqT8oLW/29ERU8PJySK9P4kz+NIh8zvUxeUUfogkAg6BhPnNTiK5bPTygaBkelMqYlE9BiJBIqMlDZ2+jLyW8CgUAgEAwVwofeiVgc6TMBLUHsIlGQVeHg8xpvsr2/ERU8bJySq+zGR/qV+UbogkAg6JjzGqZZRQoG0fQgmn7tmmViZNZZ2hi8JIUCgUAgELiO8KF3MnAJWR86Y6H60XtW1aR4PExveQoGmWGUq2Fss0AgGAw8YyEiqsKYLOOToGqW2M8/vEdd3oCGKtdPeCiWH24yUYFAIBD0j1Hxod0gFkcEAoFAIBAIBAKBQCAQjDQiIatAIBAIBAKBQCAQCASCkUYsjggEAoFAIBAIBAKBQCAYaURC1hEiEAhAtUL57OEfBxKKRpGbPzw/5dAQuS0EvSUQCIBlUj7tPD9Au7IPRZ7r/atSPhWJdweFUfILreiXTI76OF/HHwggAVClXB4cWyDmSCC4HyLOGXzszFGvCAQClMuDP58i58gQ4AlE0cO3TMadWOUC+8V64BFf/J1Xug+r8DN/fb3vdBMHC+8Eq/9eQGv+vPIn33z/0Y0WDRXeUJy46oVTg6xx6nZzhorA5Ad+nVXh5Avf/LDpTNkHIs+e8WX+/WMMqZpj5bs18uL+w3VGyi+0oF8yOerjDBCaeM78tE5Eka59esSn/3nB7gCsj4g5Gi1EnNM9Is4ZfOzMUa+Iv/ydVwkf1sHP/PXNYNtYsXNkCJCj0yw8idz9xSaquf9lf+2wBy0acGpZ9r6olBoxmEfVeaR1vrg0qviTMyykg1gHP4ugYRAQ8uwK0ZllpiJg5jZYywz+kw4YzjYL7s+wzq83vshPCzoyYJknlM0algVQwuzRgtSwjpWgP4g4Z8AQcY5ggBCLI0OAZZYwjsDT9Lk3ECHoAyyTUqmC1XS9VhqcrVT9Jru5Qbbx99jjsDCygqHmIcjz+VmJ4pEXT600FLtGlEgMTYPKyTYwHDdXw9hmNxEy2R/i6TgyUC2849vX2Tu/7wTDOlYCwajyEOIcwcNALI4MAWf7H1lqsQNpfPkPfoxJYOZ49mKj/w0TCASC+2JssvTC7UYIBNcQMtkHNML++uPg43ze5bYIBAKBQPB1xGk1AsE9GBsbc7sJgh4i5lfQC4RcCR4SXcmzx4PU2CpvWc37WwUCQb8Q/qg/jNo4u9XfXtbr6s4RbWaVuZgX62iLFx/bP1EITS6zoMtQ3uHZ2u0tmd7QONPTaeJaBMXX+LB6gpHf5fNGhuJX3i4Jjc8xO6WjqTKXacKsKpWSQSGX4ePuw8vZ4fGGSc7NMa1HkCUAC7OUZ+vdOzLH7fcW2xnnbojOvWVWk6gVNljJ+Zl5Mk1SU+rzZFU4yu+wsb7reL0A45NP0WMaakhB8V1IhkX1pEg++4X327fl4lJOKxmevcm0/W1v/CnL0xEk64it1x/JN7XfljxftKH0hWfv9wmMzzE3PUEs2Pghq4KR23Z8vvqtR3Zlo5v5vVF+bpnpiVj9tTYszFKBvc9XW0J7VdYO/dZfgMcvP5BUmj6sFXi2dL8EYf2UK2/8OavTauN/HuRA/S9Ff86HSNPgHG3xrI3PCk08ZXYygRa8anP1xCCf2eL9ruFYe51sMwyPX7igW1tnVyZv6i9UTwpkNt6R8c6y8EiByh5L79trcyfj7OT8dks38nwR29Xx4m/sjg9Pf+BD+nofS3z53/fsO5CQdZR1oZt6L+Nv4zNLW7W+9PfCb5cyXzD1J6Q1GckyMXbWWNmGyVeL9c+wODnY4IdrcZRT8ZUdRJwj4pxWdDvOTuigG+NsV64AvKEJZp5Mo2sK9aablPI7bHzaxviKP+hXfOXq4kipVMU/peELpJjYzJNtI7SpVAxVgZNC6dY1/8Qiq/M6SkOYqhWTmuRFkYNoyXlWNY13S2vst8i3FJ75wOqU2jA0JpVKFQsJWVFQIgkeqXCYORyKd5HvjRRhdnWBtCphVU1My4vsk5BVnflVD9W/vWkZqNgZ527xBlRUVaJqTbKcihHxWVTNCiYyiqwQ0Z+wGlJZefGeQwcNnndilR9nL3Jm1+usWSDJCnJQIzmrEY9/5tsX2zfKlYsVvLMxFPUxM6EMm8etfz+eThJRJazCzi3HbXecff4AqqqAJROdfMvibATf9S9IClpykolMhmKx87FphRt6ZEc2up3fCx6v/s4TrT6qVtXErHmQ1QRTP6lE7rDNdsrawQ39BVACKmqw6cNqmbiHO+Wh33LlkRUCqnoV9F7gU1B9Nz+yTG/ztwCIPv0nrx4FG22uYpo1uJCrJ6vEYut897p9YO9Gm4Gh8gsXdGvr7Mjkdf2lalKpgRyMMfVqlYABmhaEsaP2P9DhODs2v13SrTx7lRBqcwMBnxK8OUeWdfvozi4ZVV3ott6LObJqMWZXU33p74XfDswtQM3ENC0UWUabWmQ1BmoAKhUTWZEJJuZYTR2wlKlX7kR8ZQcR54g4pxV2xtmuDroxznblCgAlyavVGJoPqmaFCjKKLKPqs6yGVX7++1rL/vYzvnJ1caSWz3JYTaD7NJL6GNlMi9HQnhJTAErkszetoUd7yvKCjgJUCp95/24Ho3E+vTc0wfziPHpQZ2HBYH+pacDGUsymVSQsSjsrPNu4udIViKZIpfy3kpwOO5KWJlUp8Onv79htHPMbGF9k+UcdxZdgOh1if9PBcXYAXyRGxCzw6e9r7DaWff3ROV69SqMGkyzM5/luzcknZlVOjD/J7GTZzd9cQQiMP2Vx4RFqZJZ/zhT44dpYnRsfyZ08YioYRE+F2fzYYvXB/5hUWAKqFPZuttnRcZZTzE0HOT/6k/WtXTKH9YR0/vA4elrna2G0md/li+WnVmwTfVzHZT3qTja6m1+A0MwHZjUfUOFgfYU3mfp1T2Cc+ZcLJLVbobkjZe3gpv5u/PANF9mQLo9NvU9BF+TqLLPEX691P7X6H+Y1qPy5xPcf7440vPGXLDwK1p965t7xw9pVoihtZpWXUxpybI4Pk0c8276HbvWhzRcMo1+4pENb161MXumvSeHTCq9367bD448z92qRR7G7f6XTcXZqfrvBjjzn177lm7XGfzxRFn/7Cd0HhXf/zetsb542jaIuOFGvG/2Vyjt886y+U2vyw3+YVWXUwBGfn71guwyhmX/yj6kg4XgMMvVn4Hbjq2ZEnCPiHGfofpwv6EYH3RpnR/qrxtBMg89LP7Pd2CYyFp3h1eIUEUVnfqHAflPi7n7HV+7mHDnPkzs0AYmwnmj5FW08QX1tJMdmU8Lx9EySIGAdfeb719uXigBQO86ytrZDCZC0SebCN8t6IhohCbAMvny+vQWofJhh480mhw9p1wgAFfber1wqIEB5f42NgyoAQe3WKeO2xtkZTHLrV04B4PRwg5XPR1iAHE/z2MFXz2rZN/yw9PGW4gOU9z+ynjkBIBjXb13PZOttUhIpos3HCwEBPUlEAsw8mabHGo6OsxJELn7iuxcfL28WAE6L+2yvvWHzK7tGzowMm5ubbOfvzvDvvh51Lhtdz68nylSy/uTI3Fu/dEYA5+V93jfmpyV2ytrEff3tHPflqnMmJmP1o0pLOzccN4CxucT6QRWQUNPplrbBXYbRLzSwYevuzQ39fXe5MAJwfprn49oWpXvdGXU+zm4x3PJsh+HRBWfq7X9/K8bVjbxhVC4+ZLuhvseHRUxA8gdulLMTXzUj4hwR5ziBnfuFKzrUQRfH2Zn+Vjn4tHK5MAJwdrjJyqaBBfhiaSZvqn7f/ZHrCVkLe4W6EQzrpJpvcD0aEwkZsDjay928FphBj9RXiPPbO61//HiTXAlAQYsHWn9H8iKP0mlRlTwfjdsW/MhoOAg5wA01dGqc7WAW2CvcdnSnuSxFC5DCxGLObyluR8k4pgqgBIg3KeHpXqNNcpxUizZNTNTfia7kMjcdqePjXCH7efc+3XEGt/SoB7LRdn4jceony1U4yLZ4p/J4k1y7HfV2ytphEPTXDsNin8dSJFQJsCjttR7nfCaPCSBrxCP9bNw9GEa/cEkfbN1d+lveZu8+0Win4+wWwy7PdhgWXXCqXhf6WzPNy79Ns+G/z66961A16z7YJxO9Vq7r+MopRJwj4pwO+dr9wiWd6qBb43wP7tXf6iHZFouXZ7k9DAtAJR69tiDggj9y/SjfcyNLwUySlMNM6H4yu1cG0qNNEJMBq0gud/MlMW9YpS7eZUoVGb+/1a9L1EwLkPArAa6fdX9+ZHBs6WhShNnllyi7WXKFAsXTAXoU2QtOW0dwtVpDUCWJ6/Jsd5wdoVxs7ejOMpyY82iKREANQNahJBoNxsLj6HENNSAjSxIg1bPuewP1bdiSdPv1lLMMfxZm0BI+Yqk45K9tDQvPoQcBSuQyN9vq+DibBi0Wdh3HdT2yIRudzu9YIFh/P94qU2xzI1QsmxC5HT3ZKWuHgdDfLnBdrjolGKJ+WqlJqdg6m9h5sUiZJDIKwYAXjB5lZ+yGYfQLF/TB1t3Q3zZB53HpHvrb4Ti7xrDLsx2GRBccq9eF/l4/tejy7+snGZ3XOAfwSEge4MLsdxlf2cV1fyTinK8yCP6oq/uFCzrUQbfG+Tq2+ls+ap2bp5alVFkgFgRFVYHGwo8L/sj1xRHODTIHFZKPFFQ9DrtXT4C0ZGMbTTHHbtN4yPJFptoIs//4P2bvqEbyNoUcZxk+fY7z05MYcjBBej5BGrCqFcrHRQp7O2w6fLM9CNx5lJ5HgmvOyPY4O4BVNdteO23Iv1d2cOeIV2PmMmv615BA4spxN8hn8piJJLKWJDWW5SKVjpaqvw9pHe3dekXM8XE2y/T2jfQGLutRV7LR5fz6/I3fsWqYbdSoalahRYpBO2XtMAj62xVDZp89XrkxczVO24mkZWJWAR94/TIwODeTw+gXLumDrbuhv+2aUbtbfzsdZ7cYdnm2w7DoglP1utHf8/N2/7loVPvf6ya+so2Ic24g4pxr2LxfgM510K1xBpzpb629PF9sJPN6r+TZDX/k/uIIUMzmqTxKo0R0Jv27bJ8CnjjJaP2VGqP5lRrgcknKqnBklO8cBqvF2UDHu6/522GciccTJLQIoaCMz6egagqqppNMfuK7pT6+mjCIODDOdrlfkivnkg+lXr1kSvOBdUIhs0smZ1CqVK/aoT3h1x91bufir3N++J5cJUla0Ugl/WS2T8ETJRVryHOmN/J88wv9SyXsph51Ixvdz+/dDvW87V2NnbI2GAD97ZbhtM/WvWRyQJagumeQ5KqPtm70GBF5toNbujBq9TboKr5yABHnXCHinCvs3i90h0vjTO/7e7lW2vKWrn/+aCAWRyhukD9Jkw5G0PUA29tlPDGdqA+oGuy1eDeperFcahXZWlnr+v3CWjnP7sc8FyYtFH9MenKaZMSHrM2ymspdHiU2ijg1znaQpPa7QuSGFpxXHXpqFZrhceNEgtzaC9ZayJ4H751LMZlcifSUijqRgu1NvPEUURmoFsjkb8vTIIyzHdzSo45lw8b8Vi+WtCVP2+2C11e7nSprByFX/eHcqlEDJLwobafRi7chWDWz2qeW9YZhl6tOueyv5EVu8zRM9job/rrJqMmzHdzShVGr9zqdxldOIeKcOiLOaeDQ/UKnuDXOTvVXktr7Su/lppir33bDH7mekPWCTL6e4VbV4wDEJqLU10b22G9x33tWPqEC4AugKs614zi/y/sX3/LlBEAiFH1ImcY6p1fj3AlSQG19wTNOoNGmSvmkbfnzi6VIiTuT3XkCav10pKpBrkUCLAA1ErhT+cuZPY4sIKjzNDxGPBnDB5j5DK2SqA/CODtJv/SoU9mwM7+18mk90ZQUQG2Tz0sNtt7GaKdsM53Is5Ar+9wrsCmXG69bKAQCbby3qhKQAKqclnv7CkKvDvG74KHJ1V2clU/q8ysFCLcxOSG1f5kaez2/gybPdnioujBq9V6n0/iqV4g4x7myzQxDnOPU/UKnODnOneBYfwOh1nPqiaM28sWclq7lGXXBHw3M4kg5m60fPaTqzITHmdB8QJXDbJuzyo/2KVQAVFKPnc/vXj6tb965Oz2axszqW96+fcvbt88Zd/BI2YGgx+N8L5Roy6O3vHGdsARwQvEr2+SsSiPzuTdI6M75aWzakrytZ94bJaXfw/qe7pIxLEAhMT1PSpOACrlMi8zSMBjj3APur0dd0rFsdD+/58VCPTM8QWJ6C480NkE83Not2CnbTEfyLOSqa6rVeh1e+R5G/XSb+omUEuFkvOVXwnq0HlhYRQrF3jza6qjNdnigctWWozyGCaCQmIjevh6YJNnm/sVJ+ja/AyLPdnjwujBq9V6n0/iqx4g4x37ZZoYjznHofqFDnBznznCov3KMce32L3g0Hc0HUMEwriUOcsEfDcziCOXtxtFDKvrzaWI+wDwkV2jTyXOD7W2DKqA8WmT5ceuDq/3aBDMvF0k1yY83PsPzydaD7AnNNIwtlIw7kix5xgiEI0QiESIRFaXnj3T6jM1xdoYgqfkZwjdSaseZm03gA6yjLBvH7crCefEAowpIGuknE1+t6fy4WM9hLWmk06Fb11OLCyTvuSCby+SpAnIsQUQCTnJstBOngRjnznFMj7qmM9mwNb+1LJl8ff1aTc3zOHTTuE/MzxJrp/92yjbRiTwLueqe42LdOUuxNJPhu7eoZjIlLMAXm+XlxM2B9GpzzKeCQP3pZrZHTzc7bXPXDKlcdc35IV/26vMrJxdYTl2zHWNR5hanUfvg+/s2vwyGPNvhwevCqNXbREfxlU3c90cizvn6l92RSSfvFzrCwXHuBOf6q5Ccm0W7Ic9R5ubi9UNYSplbutxvfzQYOUca5HJHTEciKMFGJwt7rY/7aXCaWeK99i8WdYXYk1/4Y6pE8ahMpQZe2U9AVQnKEnDCl82mwnKE5OwUydkqlVKRUrme6dYXVNHCav294soeW9nTFjWPFrbG2QGsSoWaOsXqrzEMo0zNIxPSNII+wCqxs9HmXPMLavtsbqXRnkRQ9AX+o89fPlWiuMG3r68dB1fe5stBmh8TMpHZX/gtXsAom1hSkLAWJihbGAcGoYR2Z8Kh80KGvKlfGoujbOar33d7nLvCZT3qWDZszm/+0ydy2o/ossaTX/6PpGFQrnnwh2NEFKhUTBSltXewU/YGncgz7slVavEtqcA1D+3117db+qLM/fKB6csLFqUvK7zfv/bkawDsc3lvh8LkAjFfhNlffmPSNDEb43xe3OTZ+5u7Gsvbz9jR/2BKlUksfOC3lIFxWsMjh9C0YF2ezByfPrXZDelCm+0wjPbKjkwebz7jc+R3nmgysfl/8MdMhYoJsqLgo0TuwIOeCPa0/f2c30GQZzuMgi6MWr3X6TS+soWIc0Sc0woH7xc6xbFx7gSn+ls5wVTTrP4rinF4jNksz+u37+n67Y8GanHkNJelOBtBa5xnXMjefUBffu17loznzE3rRGQVLaHeeJfJMksYBzu3jvaySgUOSn40VUFRYyg3tsRWOTnYZmN9m8MBfCLiBt2OsxNYxc+sbOs8n0sQ068myqoU2Hq/xvY9tlCVd1+wVHvK7GQCLSjj8zUCZOn28ur+m+/wLf6TGT2IHEmgX7xGWj0ht77GeiXNr4l7bN07N8jkKiTTClgG2b27Haeb49wNbutRN7Jha37P9nm3BNbiPElVRo3pqACWifHlHVvMsjrVxiHZKdtEJ/IM7siVPxRBbXmv6ENRm1xn05Y7t+UKgLMsK0swO50mrgVQZAXfxfSctn4Svbm0hDk/z7SuIkdiV7KFRcXIsPFugx7mC+yqzXYYNntlRyYBdpe+xZxbZnoiRtCnEPRZmKUDPm+sk4/+hA69PYa3z/PrujzbYUR0YdTqvaSL+Kpb3PZHIs4Z3DjHsfuFTnFwnDvBif5apS1WthIszulo+pVDrsvzu7b3dP30R//1l7/85f8581PuMxbSiAT8eCULq3ZGuVTi+PRuaxUIRwn4ZbySRc08JX/Yu63aD4Fux7lTxpf/4MeYRDW3wrdr9dXAcHQcvxdqp0UOi73d1eMZC6FFAsheqJ2WyRtfeXenDRPLv7MQ82EV3vHXppXuu+jXODtFP/XICdmwO7/egIYWGsNzfsZ+/u6FXKfK2kXIVX/Q4uP4vRJWzaRcMjg+Hby8DE4ybHLlNOGn/+KXRwoY63yz1MOn2C4xavJsB7d0YdTqtRNfdYuIc/pT1i79lkkn7he6xY1xdqq/4Wi8Ic+lju7peu2PHtTiiOBh0coxDBX+x7z99QkRqUpu5TvWvvaOmKAjhl42BALBg+Lx2z94EpGo/Pl3vv84HAt4AsHQMgLxlYhzBAJ3GJyErALBA2NibqqeKKySI9MusbBAIBAIhgItejsJHcBY/DnpurEnnxULIwJBrxHxlUAg6BUDlXNEIBh2ojMvSasS3kCYiFI/jrqwtYUhfLdAIBAML544qcVXLJ+fUDQMjkplTEsmoMVIJFRkoLK30bMTMwSCUUfEVwKBoB+IxRGBwEECWoLYRZIgq8LB5zXeZAc1Y51AIBAI7sV5DdOsIgWDaHoQTb92zTIxMussbYit7wJBrxDxlUAg6Aci54hgYPEGNFS5nmG6WB6OxH5jofpxVFbVpHg8IEc0PECGUTYEAsHw4xkLEVEVxmQZnwRVs8R+XmwXEQh6zajFVyLOEQjcQSyOCAQCgUAgEAgEAoFAIBhpREJWgUAgEAgEAoFAIBAIBCONWBwRCAQCgUAgEAgEAoFAMNKIhKwuEAgEoFqhfCZSbAsEXyMQCIBlUj7t/H3bdmVD0Shy85fPTzk0Hv47zN0wSvZKyIbALYSta0+9f1XKpyL55qAwSn6hFf2SyVEf5+v4AwEkAKqUy4NjC4ZxjgKBAOVyf/2AHX/Ub18mco70mfji77zSfViFn/nr6323myPoMd5QnLjqhVODrHHqdnOGisDkB36dVeHkC9/8sOlMWe8Eq/9eQGsuUPmTb77/aLvNg4QnEEUP33Ind2KVC+wX64HHSNmrEZKNXiBsXfcIW9cez/gy//4xhlTNsfLdGvnhuf94sIyUX2hBv2Ry1McZIDTxnPlpnYgiXfv0iE//84LdAVgfGcY5ir/8nVcJH9bBz/z1TZ/abMcfueDLxM4Rm0RnlpmKgJnbYC0zXE9jBL3Hn5xhIR3EOvhZ3DAMArUse19USg0/61F1HmmdLyAMA3J0moUnkbu/2EQ197/srx32oEUDzgjJRi8Qtm7AEPLsCsMYEw5jmwX3Z1jn1xtf5KcFHRmwzBPKZg3LAihh9mhBaljHauAOxJ8iAAAgAElEQVSx449c8GViccQmSiSGpkHlZBsQiiQQDDrZzQ2yjb/HHocf7A2DZZYwjsDT9Lk3ECHoAyyTUqmC1XS9VhrdIwNHRTYEo8FDkOfzsxLFIy+eWmkodo0MY0w4jG12EyGT/SGejiMD1cI7vn2dvfP7TjCsYzUM2PFH/fZlYnFEIBAIHiBn+x9ZarFjcnz5D36MSWDmePZio/8NEwgEgvtibLL0wu1GCATXEDLZBzTC/vpWgeN83uW2CEYNcVqNQCBwlLGxMbebIBAMBEIXHjZifgW9QMiV4CHRlTx7PEiN1ygsq3l/q2CQeIj2ytWdI9rMKnMxL9bRFi8+tl8ZDE0us6DLUN7h2drtrVXe0DjT02niWgTF1/iweoKR3+XzRoaig7vEvfHnrE6rjf95kAP1vxT9OR8iTRUdbfHsK/3yeMMk5+aY1iPIEoCFWcqz9e4dmeP2e/X62V+79V7OsfGZpa1aX/obnXvLrCZRynzB1J+Q1mQky8TYWWNlGyZfLdY/w+LkYIMf3mQuy17KWiXDs2uf32pT/CnL0xEk64it1x/JOzjmofE5Zqd0NFXmMgWVVaVSMijkMnzcdTYfxMV41QobrOT8zDyZJqkp9bqtCkf5HTbWd9vK1fjkU/SYhhpSUHwXLbaonhTJZ7/wfvvr7R2fW2Z6IlZ/1QMLs1Rg7/PVFrpelbWDWzroJsNir+zKsx260QWnbI6dcb5sQ+kLz97vExifY256gliw8UNWBSO37fh8CVsnbF0rHr/8QFJp+rBW4NnS/ZLV9lOunIoJQxNPmZ1MoAWv2lw9Mchntni/azjWXifbDMPjFy7o1tbZlcmb+gvVkwKZjXdkvLMsPFKgssfS+/ba3Mk4Ozm/3dKNPF/cL9Tx4m+8ORGe/sCH9PU+lvjyv+/ZdyAh6yjrQr3uCWaeTKNrCnXXYlLK77DxaRujzfja9YPDgKuLI6VSFf+Uhi+QYmIzT7aNAKRSMVQFTgqlW9f8E4uszusoDUGsVkxqkhdFDqIl51nVNN4trbHvUH44j6wQUFWk5gs+BdV38yPL9DZ/6wopwuzqAmlVwqqamJYX2Schqzrzqx6qf3vTUvH73V+79XqVEKrqw6rFmF1N9aW/3oCKqkoE5hagZmKaFooso00tshoDNQCViomsyAQTc6ymDljK1CsvFyt4Z2Mo6mNmQhk2j1uPRzydJKJKWIUdRxdGwjMfWJ1qyJdlUqlUsZCQFQUlkuCRCoeZQ0ffc70Yr6o1yXIqRsRnUTUrmMgoskJEf8JqSGXlxXsOm2/IJlb5cfYih3S9XM0CSVaQgxrJWY14/DPfvthuWffj1d95otUVx6qamDUPsppg6ieVyB3xoJ2ydnBLB11liOyVHXm2VW+XuuCEzbE7zj5/AFVVwJKJTr5lcTbCDXcmKWjJSSYyGYrFzsemFcLWCVvXDiWgogabPqyWiXu4Ux76LVdOxITRp//k1aNgo81VTLMGF3L1ZJVYbJ3vXrdfOHWjzcBQ+YULurV1dmTyuv5SNanUQA7GmHq1SsAATQvC2FH7H+hwnB2b3y7pVp4v7hduNzt4c44s6/axrl0yyrqAkuTVagzNB1WzQgUZRZZR9VlWwyo//33tVpvt+sFhwdXFkVo+y2E1ge7TSOpjZDMtJEd7SkwBKJHP3owaPdpTlhd0FKBS+Mz7dzsYjXOmvaEJ5hfn0YM6CwsG+0vOOJazzBJ/vfZTqdX/MK9B5c8lvv94/yhF0tKkKgU+/f0du41jMwPjiyz/qKP4EkynQ+xvut9fp+p1o79SeYdvntVX9Sc//IdZVUYNHPH52Qu2yxCa+Sf/mAoSjscgU1+xPzc+kjt5xFQwiJ4Ks/mxxZ2A/zGpsARUKex9fcXdzO/yxfJTK7a547nOWIrZtIqERWlnhWcbN1dfA9EUqZT/VgJNp/BFYkTMAp/+vsZuY6naH53j1as0ajDJwnye79aa+1vlxPiTzE6W3fzNsQqMP2Vx4RFqZJZ/zhT4oWl+QzMfmNV8QIWD9RXeZOrXPYFx5l8ukNRuuStHytrBLR10m2GyVxd0J8926E4X7NocR8dZTjE3HeT86E/Wt3bJHNYT0vnD4+hpna+F0cLWCVvnFBs/fMNFNqTLY1PvU9AFubIbE3rjL1l4FKzvZM2944e1q0RR2swqL6c05NgcHyaPeLZ9D93qQ5svGEa/cEmHtq5bmbzSX5PCpxVe79Zth8cfZ+7VIo9id/9Kp+Ps1Px2gx15zq99yzdrjf94oiz+9hO6Dwrv/pvX2d5kvh1lXZDUGJpp8HnpZ7Yb20TGojO8WpwioujMLxTYv5UIt3s/OEy4m3PkPE/u0AQkwnqi5Ve08QT1tZEcm02Jg9MzSYKAdfSZ719vXwoVQO04y9raDiVA0iaZC/eoD11TYe/9yqUSAZT319g4qAIQ1G6d6Oxaf52pt//9rRhXwa1hVC4+ZLshR8eHRUxA8gdulMtkj7AAJZEi2nzUBxDQk0QkwMyTuWPbyJmRYXNzk+383VmvPRGNkARYBl8+396WVj7MsPFmk8OeZUc3ya1f3SwAnB5usPK5Ph5yPM3jplcLa9k3/LD08ZaRBCjvf2Q9cwJAMK7fvOiJMpWsr9abe+uXAT/AeXmf9425bYmdsjYZbptjh+GxV1d0Ls926FoXsGdzHB1nJYhc/MR3Lz5e3iwAnBb32V57w+ZXdo0IWydsndu4L1edMzEZqx9VWtq5cSMJYGwusX5QBSTUdLqlbXCXYfQLDWzYuntzQ3/fXS6MAJyf5vm4tkXpXit1nY+zWwy3PNthGHWhysGnlcuFEYCzw01WNg0swBdLM3nz9shWnDNMuJ6QtbBXqN+ghnVSzYGqR2MiIQMWR3u5m9cCM+iR+pO0/PZO6x8/3iRXAlDQ4oHW33GLSp6Pxm0PfWQ0jLQc4IYqudVfp+p1ob8107z82zQbQfDZtb1pVZMqgE8meq3c6V6WYj1CJhW7/ax0YqL+fmIll+lNkCV5kd04cdEssFe4vdhzmmuMhxQm1mI8vkbJOK6PsRIgft0RRuLUT+KqcJBt8X7i8Sa5drtM7ZS1w7DbHDsMi726Tg/k2Q5tdQEbNsfxca6Q/bx7n+44g7B1wtb1ArfkqlPGUiRUCbAo7bUe53wmjwkga8Qj/WzcPRhGv3BJH2zdXfpb3mbvPqubnY6zWwy7PNthGHWheki2xQPes9wehgWgEo929gTpa3HOMOH6Ub7nRpaCmSQph5nQ/WR2r25ePdoEMRmwiuRyN1+48oZV6qJSplSR8ftb/bpEzbQACb8SYKDOrD5tbRFrtYagShLX5cqt/jpWrwv9vZ7h+vLv61mvz2ucA3gkJA9wYdfOMvxZmEFL+Iil4pC/tq0sPIceBCiRyzj08v1Fc44Mji0dTYowu/wSZTdLrlCgeNqnx1zlYuvFnrMMJ+Y8miIRUAOQvd3vsfA4elxDDcjIkgRI9Uzj3kB966kk3dimOhYI1t8ZtcoU2wQHxbIJkdsRrp2ydhh6m2OHIbFXN7Ahz3boVBcu2tSNzXF8nE2DFg+EHEfYupsIW+cMrstVpwRD1E8rNSkVW2c/PC8WKZNERiEY8IIxQNm+h9EvXNAHW3dDf9ssYh6X7qG/HY6zawy7PNthGHWhfNQ6X04tS6myQCwIiqoCtxf2uopzhgjXF0c4N8gcVEg+UlD1OOxereRqycb2rGKO3SY9k+WLDMgRZv/xf8zeUY3kHQjTccmdR1N5JLh2w+5Wf52q143+np+3+89Fo9r/Xj6Tx0wkkbUkqbEsF+lwtFT9/UDraO/Wa162Ocvw6XOcn57EkIMJ0vMJ0oBVrVA+LlLY22HT4Ru561hVs+2104Z998pN5s6rMXN5+s/XkEDicn59/sbvWDXMNvNQNavQIu2WnbJ2GHabY4dhsVfX6Uqe7dClLlzQjc1xfJzNMr19I72BsHU3ELbOIVyWq07xeOXGzNU4bSeSlolZBXzg9cvA4NxMDqNfuKQPtu6G/rZrRu1u/e10nN1i2OXZDsOoC1atvR+82Gzv9TrjB4cN9xdHgGI2T+VRGiWiM+nfZfsU8MRJRuuv1BjNr9QAl0tSVoUjo3ynelntziQaFtzq76jV2+D88D25SpK0opFK+slsn4InSirWkMlMC5l0gOPd1/ztMM7E4wkSWoRQUMbnU1A1BVXTSSY/8d1Sb7aC3i9J3U1zmHr1kinNB9YJhcwumZxBqVK9+i3tCb/+qHM7//jdhv68rVW1U9YGo2Zz7DAAY9WNPNuhe12o05XNcXqc7wrwHETYuiuErXMON+Wqe6x7yeSALEF1zyDJVR9t3egxIvJsh0HShRZcPk9uCpHsxjnDwkAsjlDcIH+SJh2MoOsBtrfLeGI6UR9QNdhr8U5U9eLxjlVka2VtoBJs9QK3+jtq9V4nkyuRnlJRJ1KwvYk3niIqA9UCmXzvDFWtnGf3Y56L8C0Uf0x6cppkxIeszbKayl0ePewkktT+Kbrc8GLn1Wu6GJrhcSMLe27tBWst9NSDt+XtZ/ViWVrytN16d2vF2oGydhgEmRwWBmGsOpZnO9jQhet0anMGYZztIGxdHWHrnMUtueqUc6tGDZDworSdRi/ehmDVzGqfWtYbhl2uOuWyv5IXuc1TdNk77LeRV4yaPNthEHRBktrLnvdy05MzfnDYcD0h6wWZfD3DrarHAYhNRKmvjeyx3yJ+PSufUAHwBVCVvjWzLb0WBrf6O2r1Xqec2ePIAoI6T8NjxJMxfICZz3DHITWOcpzf5f2Lb/lyAiARivYmi5UUUFtf8IwTaMxBpXxy9XFArZ8kVTXItUhuCKBGAi11o1Y+rSdtkgKobfJMqcHWW03tlG3m/GJ5XOLOhGaDIJPDwiCMVafy3EwnsmFHF67Tqc0ZhHF2EmHrnCvbzCjbun7J1XXuFROWy43XLRQCgTZ3k6pKQAKoclrubeDxUONYtzgrn9TnVwoQbmNyQmr/Mgf3/KZ1wOTZDiOhC4FQa1/giaM2cqCclq7lAXUozoHO/JGTZe/LwCyOlLPZ+pF0qs5MeJwJzQdUOczmWxc42qdQAVBJPXYvT3O1Wt9M5JUdPBOyFW71d9Tqvc7pLhnDAhQS0/OkNAmokMu0yDreB8qndVnrWeotJdryuDBvXCcsAZxQvLG1r7GRTvK2bpE3SkpvbfXPi4X6qRAEiektov6xCeLh1ibWTtlmrErjxCJvkNBdKuyoTGrMrL7l7du3vH37nPEem4++Mwj627E836Qj2bChCzfo1OYMwjj3AGHr7Jdtxj1bNzj0XK7oMCY83cao1FsUTsZbfiWsR+s3JFaRQrE3j5cffBzrFkd5DBNAITERvX09MEmyzaKJk/RtfgdEnu0wUrogxxjXbttCj6aj+QAqGMb1RGcOxTl0Gl85V/a+DMziCOXtxpF0KvrzaWI+wDwkV2ijPOcG29sGVUB5tMjy49aHQPu1CWZeLpLq0Ylgx8W64EixNJPhHubmdau/o1ZvE7lMniogxxJEJOAkx0aP8rl54zM8n2ztUDyhmcaNEpSMXiWUC5Kan+GGGI/FmZtN4AOsoywbx1eXzo+L9dzZkkY6Hbr1a6nFBZLtHorUsmTy9WcMamqex6GbpnZifpZYu5jfTtkmzosHGNVGH55M3PFlB2XSM0YgHCESiRCJqCgPYR/idQZCfzuT52Y6kQ1butBERzZnIMa5c4Stu+LB27o+4r5cdR4TZjIlLMAXm+XlxM2B9GpzzKeCQH33WLZHD9offBzrFueHfNmrz6+cXGA5dc12jEWZW5xG7YPv79v8MhjybIfR0gWF5Nws2g0/GGVuLl4/DKWUuRF7OBnndOSPHCx7XwYj50iDXO6I6UgEJdhQnsJe62OGGpxmlniv/YtFXSH25Bf+mCpRPCpTqYFX9hNQVYKyBJzwZbM3bS7v7VCYXCDmizD7y29MmiZmY+XxvLjJs/dtdr50gVv9HbV6r3NeyJA39UuFP8pmelMRgBwhOTtFcrZKpVSkVK5n9fYFVbSwWn9ntbLHVvb0zp/qBqtSoaZOsfprDMMoU/PIhDSNoA+wSuxsNJ3FXt7my0GaHxMykdlf+C1ewCibWFKQsBYmKFsYBwahhNYyOVP+0ydy2o/ossaTX/6PpGFQrnnwh2NEFKhUTBSltaW1U/YGtX02t9JoTyIo+gL/0ecvnxxQ3ODb19kbXx8EmRwW3B6rjuW5mU5kw6YuXKdTm+P2OHeFsHXC1rUhtfiWVODaHaPXX9+m7Ysy98sHpi8vWJS+rPB+/9oOH5flCjqPCcvbz9jR/2BKlUksfOC3lIFxWsMjh9C0YF2ezByfPjkXS9ptsx2G0V7ZkcnjzWd8jvzOE00mNv8P/pipUDFBVhR8lMgdeNATwZ62v5/zOwjybIeR0oXKCaaaZvVfUYzDY8xmP7jurB+8QYf+yLGy92SgFkdOc1mKsxG0xjnZhezdB23l175nyXjO3LRORFbREuqNd5Ass4RxsOP8sasXnGVZWYLZ6TRxLYAiK/gu4pRT51cd3ervqNV7yblBJlchmVbAMsju9S6oskoFDkp+NFVBUWMoN7ZbVjk52GZjfZvDHq22W8XPrGzrPJ9LENOvKrcqBbber7HdYgvk/pvv8C3+kxk9iBxJoF+8yl09Ibe+xnolza+JNlsGz/Z5twTW4jxJVUaN6agAlonx5R1bzLI61Sbot1O2ifLuC5ZqT5mdTKAFZXy+RhAktX6k47pMDhFujlU38txMJ7JhSxeu04XNGTaZFLZO2Lp2+EMR1Jb3ij4UtSnkbtpy57ZcAV3FhJtLS5jz80zrKnIkdiVbWFSMDBvvNuhhDviRiWO7xY5MAuwufYs5t8z0RIygTyHoszBLB3zeWCcf/QkdenvkaZ/n13V5tsMI6YJV2mJlK8HinI6mXwl43Q++c94PNtGpP3Kq7H34r7/85S//z5FfGgDGQhqRgB+vZGHVziiXShyfDuC+LYdwq7+jVu/E8u8sxHxYhXf81YEVyfsQCEcJ+GW8kkXNPCV/2LttwOPLf/BjTKKaW+HbtfqqeDg6jt8LtdMih8W7b848YyG0SADZC7XTMnnjK+8rtMAb0NBCY3jOz9jP370o6lRZu4yazbFDv8bKCXm2g11dAHs2Z9hkUti6/pS1i5Cr/qDFx/F7JayaSblkcHw6eHkZnGTY5Mppwk//xS+PFDDW+WaphzuTXWLU5NkObupCOBpv+MFSX/zgoPOgFkcEAsfxP+btr0+ISFVyK9+x9rX3vIaUVjcMAsGwMvTyPAI2xy2GXjYEAsGD4vHbP3gSkaj8+Xe+/zgcC3gCwUNncBKyCgQDyMTcVD0pYiVHpl1yYIFAIHAIYXMEAoHg4aBFbyevBBiLPyddN/bks2JhRCAYFAYq54hAMAhEZ16SViW8gTARpX6kdGFrC0PcpwgEgh4gbI5AIBA8QDxxUouvWD4/oWgYHJXKmJZMQIuRSKjIQGVvo2enIAoEgs4RiyMCQRMBLUHsIsmQVeHg8xpvsoOaPUogEAw7wuYIBALBA+S8hmlWkYJBND2Ipl+7ZpkYmXWWNsQrfgLBICFyjggETYyF6kdZWVWT4vGApEvvId6AhirXs2IXy6OTCE3wMBlGeR41m+MWwygbAoFg+PGMhYioCmOyjE+CqlliPy+2iwgEg4hYHBEIBAKBQCAQCAQCgUAw0oiErAKBQCAQCAQCgUAgEAhGGrE4IhAIBAKBQCAQCAQCgWCkEQlZe0QgEADLpHw6OO81BwIBymXxPnuvCQQCUK1QPhueoybckI1QNIrc/OH5KYfG3e2wU3ZYGUa5EgjcwI7/bVf2odicev+qlE9Fwt9BYdhs+6Dqgj8QQAKgSrn88OV7UPs7bPJsh0HVBYE9RM6RHhCY/MCvsyqcfOGbHzbdbg4A8Ze/8yrhwzr4mb++2Xe7OQ+W+OLvvNJ9WIWf+evr4RhnV2TDO8HqvxfQmj+v/Mk333/sXVkX8ASi6OFb7vNOrHKB/WI94BlGuRJ0jzcUJ6564dQga5y63Zyhwo7/bVt2yGxOOzzjy/z7xxhSNcfKd2vkH/69y8AzdLZ9wHQhNPGc+WmdiCJd+/SIT//zgt3BWS9wjEHv79DJsx0GTBeGjUGOc8TOEYHgK0RnlpmKgJnbYC0jVoIdo5Zl74tKqeHfParOI+2eCwh2yrqAHJ1m4Unk7i82Uc39L/trhz1okWDQ8SdnWEgHsQ5+HrigYSQZMpvzUBhG/zuMbe6IAdIFb3yRnxZ0ZMAyTyibNSwLoIT5lYW/YZ2jbvtrh2Edq74wQLowjAxynCMWRwSCr6BEYmgaVE62AeEYnCS7uUG28ffY43BHTsVO2X5jmSWMI/A0fe4NRAj6AMukVKpgNV2vlQbnlTyBYNQZJpvTjvOzEsUjL55aaSh2jQyj/x3GNnfKoOhCPB1HBqqFd3z7Onvn9y8Y1jnqtr92GNax6heDogsCZxGLIwKBQNBDzvY/stRid+n48h/8GJPAzPHsxUb/GyYQCEYLY5OlF243QiBwAo2wv/7I/jifd7kt/WDU+isQuMeDO61mbGzM7Sb0Fbf6O2rjLLg/QjYEAkGnCLsh6AVCrh4oHg9S43UGy2redznYdCWTQ9xfwf0R9mowGPqdI+OTT9FjGmpIQfFdJCiyqJ4UyWe/8H679Tv72swqczEvlvGZpa0aybk5pvUIslQvb5bybL17R+a4/d7T8bllpidi9a3xWJilAnufr7ZY9YJu+3sdb2iCmSfT6JpCvekmpfwOG5+2Mb6S0Ck08ZTZyQRaUOai5uqJQT6zxftd49b3L8f4aIsXH9uvdIcml1nQZSjv8Gzt9uh5Q+NMT6eJaxEU32XFGPldPm9kKDr49oE3/pzVabXxPw9yoP6Xoj/nQ6SpoqMtnn2lXx5vuCu56md/b9fduWw4IZOC+zNsctVNvU7Y507rjc69ZVaTKGW+YOpPSGsykmVi7Kyxsg2Trxbrn2FxcrDBD28yl2UvbVglw7Nrn99qU/wpy9MRJOuIrdcfyTs45qHxOWandDT1yj5jVamUDAq5DB93ndXDi/GqFTZYyfmZeTJNUlPqdVsVjvI7bKzvtpUru3bDjv91w3eDOzr4+OUHkkrTh7UCz5bul6y2n3LllP/tNFYZhDbD8Nl2O9jxC41fwN94gyE8/YEP6evjU+LL/75nvxGzODlH3dKNTHbbXzuMojzb9WV26MYPOhVv2BnnyzaUvvDs/T6B8TnmpieIBRs/ZFUwctuOz1e//NFQL454J1b5cfYiT7BF1axQs0CSFeSgRnJWIx7/zLcvtm+XVUKoqg+rFmN2NUValbCqJqblRfZJyKrO/KqH6t/etDQ4j1d/54lWFwKramLWPMhqgqmfVCLO+l5H+nuJkuTVagzNB1WzQgUZRZZR9VlWwyo//32tZX+jT//Jq0fBhrGoYpo1uKj3ySqx2Drfvb6ppKVSFf+Uhi+QYmIzT7aNgqRSMVQFTgqlW9f8E4uszusoDcNarZjUJC+KHERLzrOqabxbWmPfoVw+HlkhoKpIzRd8Cqrv5keW6W3+1hVShNnVhY7lqt/9vUEXsuGITAruz5DJVbf12rXP3dTrDaioqkRgbgFqJqZpocgy2tQiqzFQA1CpmMiKTDAxx2rqgKVMvfJysYJ3NoaiPmYmlGHzuPV4xNNJIqqEVdhxdGEkPPOB1amG3bJMKpUqFhKyoqBEEjxS4TBz6GieiYvxqlqTLKdiRHx1/TeRUWSFiP6E1ZDKyov3HDYHZTbthh3/64bvBvd0UAmoqMGmD6tl4h7ulId+y5UT/rebWMXtNgNDZ9vtYNcvNONTgtz41LJuHK/q2Bx1Sbcy2W1/7TCK8mzHl9mqt0s/6ES8YXecff4AqqqAJROdfMvibOSmTEoKWnKSiUyGYrHzsWlFP/3RUC+OQJUT408yO1l28zdHPzD+lMWFR6iRWf45U+CHNtIjaWlSlQKf/v6O3caxmYHxRZZ/1FF8CabTIfabyoZmPjCr+YAKB+srvMnUr3sC48y/XCCp3TIrDuFAf9UYmmnweelnthtbAcaiM7xanCKi6MwvFNhvSvTkjb9k4VGw/sQ0944f1q4SKGgzq7yc0pBjc3yYPOLZ9lW9tXyWw2oC3aeR1MfIZlpYQu0pMQWgRD57s80e7SnLCzoKUCl85v27HYzGuene0ATzi/PoQZ2FBYP9JWeCnbPMEn+99lOp1f8wr0HlzyW+/3j/yLkbuXKjvzfa3IVsOCGTgvszTHLlRL1u9Fcq7/DNs/pT9ckP/2FWlVEDR3x+9oLtMoRm/sk/poKE4zHI1PXh3PhI7uQRU8EgeirM5scW0YD/MamwBFQp7H39yaSZ3+WL5adWvIfOjKWYTatIWJR2Vni2cfPJSSCaIpXy30r46xS+SIyIWeDT39fYbTwi8kfnePUqjRpMsjCf57u15v52bzfs+F+3fLebtn3jh2+4yGh0eZTvfQq6IFd2/W+3sYqbbb5gmGy7Hey0Ob/2Ld+sXfxQlMXffkL3QeHdf/M62/6OyKk56gY7Mtltf+0wyvLcnS+zQ3d+0G684eg4yynmpoOcH/3J+tYumcN60l5/eBw9rfO1pcZBjnOGOudILfuGH5Y+3hIqgPL+R9YzJwAE4/pXfqXC3vuVS+Wtl11j46BaL6s1nWDtiTKVrK9cmXvrl8EVwHl5n/drO9ze/+AMzvS3ysGnlcubX4Czw01WNg0swBdLMxm4WWJiMlY/Oqy0c8OwAxibS6wfVAEJNZ0mev1IjvM8uUMTkAjriZat0cYT1NdGcmw2JcJOzyQJAtbRZ75/vX2pvAC14yxrjbGWtEnmwl/psit0KFcMQn87lw1nZFJwf4ZHrpypt//9rRhXgYRhVC4+ZLthn44Pi5iA5L+pDJnsERagJFI37WCDgJ4kIgFmnswd20bOjAybm5ts54NmRwUAACAASURBVO8+HcAT0QhJgGXw5fPtLaXlwwwbbzY57NnpJCa59atgEuD0cIOVz/XxkONpHje9Rt213bDjf1303e7b9s5xX646p+tYZSAYHttuh2Fssx2GWybtMIzy3Lkvs4Od+NlOvOHoOCtB5OInvnvx8XJhBOC0uM/22hs2v7JrZJDjnKFeHLmLknFMFUAJEG9ndCp5Phq3R/PIaEyWHOCGCkfi1E9qqnCQbfFu0/EmuSM7re6ee/W3eki2RWB+ltvDsABU4tFr2j+WIqFKgEVpb6flT+YzeUwAWSMeuXmtsFeo30iEdVLNRsWjMZGQAYujvdzNa4EZ9Eh91TO/3bpejjfJlQAUtHig9XfcolO5GoT+diob9+BeMim4P8MiV07V60J/a6Z5+bdpNvTh7Nre0qpZl2mfTPRaudO9LMV6BEUqdvt5ycRE/T3uSi7TmxtKyYvsximCZoG9wm27cZprjIcUJtZiPL5GW7thx/+65bsHwbbbwS256hSbsYrrDIttt8MwttkOwy6TdhhGee6BL7PD1+LnruMNx8e5Qvbz7n264wx98kdD/lpNnbHwOHpcQw3IyJIESPWszt5AffuoJLXf2nPa+llRrdZQEEniukyOBYL1d/usMsU2j5mKZRMivZs9W/0tH7V+H6uWpVRZIBYERVWBRvAYDFE/PcykVGyd7em8WKRMEhmFYMALxpVxOTeyFMwkSTnMhO4ns3t1k+HRJojJgFUkl7v5Yps3rFJXyTKliozf36pmiZppARJ+JcBAncHeoVwNRH87lY1r2JJJwf0ZErlyrF4X+nv9JIDLv6+fDnBe4xzAIyF5gAudOcvwZ2EGLeEjlopD/toraOE59CBAiVzGoRdwL5pzZHBs6WhShNnllyi7WXKFAsXTPj3SLxdbL/acZTgx59EUiYAagOztfndqN+z4X7d890DY9i5wXa46xWas4jpDYtvtMIxttsWwy6QdhlGebfgyO3QVP3cZbzg+zqZBi40vjtNvfzTciyNejZnLEwS+hgQSV0HsNe48EssjwbUA2OdviKhVw2xTtGpWwbH0SNdwor818/aHDS4eknq9V2ro8cqNntQ4bVfUMjH/f/beHrSNLX/4//zgr2mkwtN4thgVmkZqprEaubAaq1FYIp7Fhot5LhZcHPbGEK7Z4GASNmRxMNfkkpAl2UvMLjELYX/EXLBZrhqrkQurkZtprEYurEZuxoXUjIvnX4z8IluKLc1Io7HOp4kj6cycl+/bnDnne+pACILjMnDFuJ8Z5PZrpB4oaMkE7FzOMOqp5nLDcoGda35Dls/bGCP793+R7VhrGyk4XMsSupWrYWhvt7Jhf+BcJgV3xy9y5dZ9vWjv2Vmn/5xXqvP1irki5mQKWU+RHstznmZJT9v7e63D3RvbBx1zmuPT5wR/exRHDk+SWZwkA1j1GtWjMqXdbTZdDuauYtU7242Tc7shu2M3nPhfr3z3MNj2nvBYrrrFcaziMX6x7U7wY52d4HeZdIIf5bknX+YEh/FzL/GG6/1sVulv1p4mA/ZHvp4cSb94zqweAuuYUm6HXMGgUqtfxq76I359luRmrmcn3K6QZ316Aux3ey+eA9pqqXWnRDfteqecL1J7kEGJJZkZ32HrBAgkSE3YW2qM61tqgItpUqvGoVG91V1Y3zqD2A8MeXs7yYY3Oii4M17J1ajdt8nZwTsKtRQZRSedGie3dQKBCdLxpq3LtbF1LnC085I/HySYfjjNpB4jEpYJhRQ0XUHTk6RSn/h+pT9LX++WAK3VcPRuN5z4X49895Db9m/hpVz1Tu+xiq/wo1z5sc6uMCIy6YQhkI1efJkTnMbPPcUbbvfzbZNgLjJIf+TfyZHIPA/1EGBSWH/KeptcCQGCLoqxTf38FboU6LhN4MbbdTdwqb2S1PkxNXjxYu3KthirQQOQCKJ0bFaQYPPGDbN+8+vyBsXjDJlwjGRSZWurSiCeZCIE1A1227Slfj5Na5X5sro+VEnf+sEwtLdb2fBKBwV3xyu5GrX7XiVXqJCZ1dCm07C1STCRZkIG6iVyxf4F+41qkZ2PRc5Dg0jiIZmZOVKxELKeZS1duDh62E0kqbO/k5vR/lndHbvhxP965buHQSad4JVcdYsrsYqP8KNc+bHOThg1mXTCMMhG177MCS7Fz93GG8PQz04YlD/ybULWgKrZp5zUDQptEugAaDHV9QezRvXETpAjqWgd8tRoYfe31LjWXjXCzRzRQCCB1tx7dlK5kv+jWrWTRaGgqh0Mh6ahSgB1Tqrt65Yr2lmXtWQCgPj0BPbcyC57bYqcVo+pAYRUNOWWNg2Afj/gD0V7u5QNN3Xw7HxpikT7OvSp7H3HK7katftepZrb5dACwkkeR8dIpOKEALOY45ZDalzlqLjDu6ff8fUYQCIy0Z9sf5Kqtf8iMIXaHINa9fjyYwd2w4n/ddN3d2NzhkEm3WRQcnWVO/lfl2IVtxiJmAF/60LfX9wMmUw6YRTkuVtfdp1udMGt+LnbeGMY+tlN+uWPfDs5crEASgq2X4oWnCCddH/kz8olO0MwYeLJNhHW2DSJaD/MiEvtleNM6TevENCT6CGAGoZxZZPayRb2aZYS0VSi7SWjyQlbya0ypXL7achqPm8fk6glmY9OMa2HgDoH+Q5nhh/uUaoBaKQfevfIW6/b/R6UXTy/qx3D0N5uZcNFHbRqzRNAgmEiXXa1k7KgM7/2hjdv3vDmzU9M9XmYB45XcjVq973KyQ45wwIUJucWSesSUKOQa3NCygConth6KvVr0bYy0fa4v2Aiie0Kjym3LM3t3W448b9u+u6ubM4wyGQf6Ltc0aX/dSlWccpIxQz4UxcGNkZDIpNOGCl57tqXtdJdLOpS/NxtvDEM/dwH3PZHvp0cOTsq2/lzJZ1MJnLj+/TyEql+HBjTyJMr2nPBWnqRh5HWgZhezBLvw9yIe+1VSC1k0VuOAJhgYSHRPIs9x8a1nDa5XAULCMWzPJ9uDSqD+gKL6TBgz1TmO018V7eaxyRqJH+aIx4CzAMKpQ7O4Mxga8ugDigPlnn1sP1h2+P6NPPPl0n36cS3o7I9GSDFM8xE+3jeylC0tzvZcFMHz8r7GPXmtR5Nd1VrJ2UJjKFGY8RiMWIxDeW+7QHySq5G7b7XKOSK1AE5PklMAo4LN+yqWwQT8/w00z7wDkTmm8ESVIx+Jc8Mk16cp8U8jiVYyE4SAqzDPBtHl185shtO/K+LvrsrmzMkMtkt3stV9/7XlVjFIaMVM/hTFwY2RgyHTDphtOS5O192nW50wc34uat4Yyj6uXsG7Y/8m3OkusXX/QzPJmVi2V/4d6KEUTWxpDBRPUpYtjD2DSKTuuvJIIufPlHQn5GUdR798i9ShkG1EWA8GiemQK1moiguz8y41d7aMaaWYe2fExgHR5gBmYiuEw4BVoXtDzfPva5uPWE7+Ruzmszk0nv+nTYwThoE5Ai6HrbvZxb49KnDKpAmhcIhc7EYSrjpDEq77Y+ObXKSW+Gd/k+WkwrxR7/w22yF8mGVWgOC8jiqphGWJeCYr5u39F+PVHe3Kc0sEQ/FyP7yb2ZME7M5k35W3uTJu2+3uRs8b2+3suGmDjb22PySQX8UQ0ku8d/k4sUbC8obfPcy35+yI4BXcjVq973KWSlH0UxeBDeH+Vx/bgQgx0hlZ0ll69QqZSpV+/SDUFhDj2rIElDb5Uv+5NZL9YJVq9HQZln7NY5hVGlctxsb7toNJ/7XNd/dpc3xSibTy29Iq1dmfILj9jLt0AQLv7xn7uILi8rXVd7tXXkr6rFcQff+161YZZB1dsIw2Dq/6MJVBjlGwyCTThglee7al12nG11wMX7uNt7wup97YsD+yL+TI8De6+8JLf+D+WQYOTZJ8nyrUf2Ywod1PtQy/DrZh2VDp3u8XQFreZGUJqPFk2gAlonx9S1fyLI26/6yFTfaa1W+sPplkuWFJLp9ELb9ea3El3dv2eqwrG9zZQVzcZG5pIYci1/eG4uakWPj7Qa35Ro8KeQpZ2PozXPfS/nbD4Aqrv/AivETC3NJYrKGPqm17OWzzArG/rb7x2Oec5pndQWycxkSuooiK4TOh/bE/Vl0L9vbi2y4qYPVnaesNB6TnZlED8uEQs2gXrr9da6TsqOAV3I1ave94MwgV6iRyihgGeR3+/cAaVVK7FfG0TUFRYujtGybrnO8v8XGhy0O+vRW0ip/ZnUryU8Lk8STlze37ca6+3bDif910Xd3a3O8kMnxSAwt3O6bEIp2LeS+tmzOa7kCevK/bsQqg66zEzy3dfhDF1oY8Bh5LpNOGCF57sWXXacbXXAtfu4h3vBcB7tk0P7of/7whz/8P3cu5R2BsQh6TEUOQuOkStH4xronlwmqOnpkjMDZKXvFgZz27Fp7oxMJxoPQOKlwUL578K4nphgPSlgNk2rF4OhkMPskxyI6MXWcoGRhNU6pViocnQzhOkSX8LK93cqGlzoo6A6v5GrU7jv96j8sxUNYpbf8aUCrl9ToBOq4TFCyaJgnFA/6t+Vh6tVvPItL1AurfLduvz2MTkw17UZ5IHbDif/1wnef4zdfNki5chOvYhWv8JtcgT/r7IRRk0knDEo23PBlTnAjfnYSb/hNBwfhj+7F5IhAIBAIBEPD+EPe/PqImFSnsPo969/aP+hT2gWUAoFAIBD4Cd/7shGINwaNbxOyCgQCgUAwjEwvzNqJ0WoFcp2STgsEAoFAIBA4QMQb7uPrnCMCgUAgEAwDE/PPyWgSQTVKTLGPKi99+YIhYhWBQCAQCAQuIeKN/iImRwQCgUAgcIiqTxI/T6hm1dj/vM7r/LBm2RMIBAKBQOBHRLzRX0TOEYFAIBAIHDIWsY/8s+om5aMhSfHeR4KqjibbWe3L1eFN3iYQCAQCQSf86MtGLd4YNGJyRCAQCAQCgUAgEAgEAsFIIxKyCgQCgUAgEAgEAoFAIBhpxOSIQCAQCAQCgUAgEAgEgpFGJGTtE6qqgmVSPel+/1qnspGJCeTrPz474cAQ+816wckY3XbdanWwYyJkoztUVYV6jerp/U/tLWRD4BXCD3rPKNk6gcAJwl51xm5fneqJSPo5LPjNtvtJF0TOkT6gzrzn16wGx1/544+b7pQNTrP2v0vo1wvUfuePP3x0XOdRw8kYfYvE8//wYjKEtf8zf3q959p1v4mQja5ILP+HF8kQVuln/vRyQGPkFUI2HBGMJEhoQTgxyBsnXlfHVwg/6IyAOkEyeiOUvBWrWmKvbD/AjJStEwh75QBhrzoTmHrF/z6LI9ULrH6/TtEfz+L3Gt/Zdp/pglg54hcaeXa/alQk+78BLckDvfvASXAPGXHZmJh/xWwMzMIG67nhm4H2lBGXDaeMp+ZZyoSx9n8WDxvDwAjJszwxx9Kj2O0/vEa98Ff21g/6UCPBsCPs1ZAxQvZqmPBjTOjHOneFz3RBTI74iPzmBvnm32MPo0MtWILBMsqyocTi6DrUjreAe+hUHDLKsiG4f4yKPFtmBeMQAtc+D6oxwiHAMqlUaljXvm9U/HEUpUAwCtwHe3V2WqF8GCTQqPhi1YgfY0I/1rlb/KQLYnJEIBAIBAKBYIg43fvISpvV0lOvfuNZXAKzwJOnG4OvmEAgGC2MTVaeel0JgWBwiNNqrjA2NuZ1FUYC0c/DjxgjQSeEbNxvxPgKBAK/IOyVoB8IuRptfL1yZGLhDVldolHaYLUwzvyjOVK6ggRg1TgsbrPxYYdyh1WmUzOPScZ1tIiCEmpuhMKiflymmP/Ku61v79udWnjF3HTcXuKKhVkpsfv5ctlQv8o6IRiZYm4uQ0KPoYSaH9aPMYo7fN7IdewrJ/Taz/r8GgvxIJbxmZUvDVILC8wlY8j2AGNWinx5+5bcUed1fl71M0AwMs38ozmSuoJ9e5NKcZuNT1sY30j47cUYAUSmH5OdmUQPy5yPUv3YoJj7wrsdo+W3M2vvSQYtjM8rbBzcYZ2lmub5chqFCl//+o49BwnPg4mfWJvTmv8LIKv2X0ryJ97HrnXO4ReefCx2vFYgGO1JrgY9Rk5tnRN60d/IzCuWkjLUcjx5net47WDiMa/mYkjWIV9efqR4rf5O+vmiDpWvPHm3hzq1wMLcNPFw80JWDaOw5fp4RaYWyM4m0bVLPcKqU6sYlAo5Pu64mw9C+MHu8crGeolfbJ2T+7oRM3R733P9q+S+YiYfkdFlJMvE2F5ndQtmXizbn2FxvL/Bj1fsoVt20gnCXgl71Y6Hz9+TUq592CjxZOVuyWoHKVduxYTdxMDDUmfwn213wqDq7OvJkaCqoWkSdWuGV+k4sZBF3axhIqPICrHkI9YiGqtP33FwPeieXuNZ9jxvrl2uYYEkK8hhnVRWJ5H4zHdPt9re++Haf3ik2yNj1U3MRgBZm2T2bxqxW3TISVknjE8vs7aYRGkqT71m0pCCKHIYPbXImq7zdmWdPRfzeDnp56ASQdNCWI042bU0GU2y+8sKIockZC3J4lqA+p9ft33Y9qqfAVBSvFiLo4egbtaoIaPIMloyy1pU4+e/rLetsxdjBDDx+B+8eBBuBih1TLMB52P0aI14/APfv7wM3hqoaJpEMK6xcVC+9frBaIK4piHVDh1NjAAEZAVV0y4d7jkhBS3U+pFlBjtfSIqRXVvqWq480SMHts7RfXvU32q5RjAbR9EeMh/JsXnU/vqJTIqYJmGVtm8E/E77OTSuomkKWDITM29YzsZoEQ9JQU/NMJ3LUb5dhO9EdP49a7NN2bRMarU6FhKyoqDEJnmgwUHuwNV928IPdodXNtZTfGTrnNzXaczQy33P9U9dWIKGiWlaKLKMPrvMWhw0FWo1E1mRCU8usJbeZyVn39wNO+kEYa+EveqEompo4Wsf1qskAtwqD4OWKzdiwm5j4GGoM+A72+6EQdbZ15Mj54RicWJmiU9/WWenOW00PrHAixcZtHCKpcUi369fn3Wrc2z8Tm47z06xNTJWpx6zvPQALZblH/MlfrzmsSLz78nqIaDG/odVXufs7wPqFIvPl0jpN8TdlbJOCOiPebWURAFqpc+8e7uN0TwbOxiZZnF5kWQ4ydKSwd6KewbAST+fI+kZ0rUSn/7ylp3mEYXq1DKvniVRQpPMZSLsuThGbiBpcXTT4PPKz2w1l4mMTczzYnmWmJJkcanE3svW9w1ejVEw8ZylB2H7zVbhLT+uX2501+fXeD6rI8cXeD9zyJMtux+NwyroGoqmAbc/WWq67QTqFedRxGluhT9daX567b8s6lD7fYUfPt79+r3IlXd6ZNObrXNCb/p7ZnykcPyA2XCYZDrK5sc2MjL+kHRUAuqUdlvr7Go/y2kW5sKcHf7Ohy875A7sZGfj0SmSmSTfCDswizt8tcZplDs8tVxlLE02oyFhUdle5clG65sxdSJNOj1+I4GmWwg/eDte669X+MnWuXFfL9orVbf54xP7rfrM+/+S1WQ09ZDPT56yVYXI/D/4+2yYaCIOOdv3O7WT1xH2Stgrt9j48Y+cZzS6OMr3LgU9kCunMWEvMbDXdT7HT7bdCYOu8z3JOWJS+HBpYAFODjZY/XyIBciJDA+vbR9r5F/z48rHGwYWoLr3kQ+5YwDCiWTrl4EJZlP2g565++HCSAKcVfd4t75NpVM1nZR1SGY+RRiwDj/zw8utC6ECaBzlWW/eW9JnWIi6d9+e+7mFGrvvVi8U3y67zsZ+3S6rXzs528N+vqTO/qfVi4kRgNODTVY3DSwgFM8wo7aW8GqMpmfiyIBV2W5xCgDG5gof9uuAhJbJMNE8OqF6UMEEiOgkrh+n0IaoZmelrhr9XrLTDV3KFd6N0SXd2zonONHfXN6ukzKZvpCbq6jJFDEJMIvkrr0OdbWflTBy+RPfP/14MTECcFLeY2v9NZvfmNs7NXJsbm6yVbw9e3wgphORAMvg6+ebS4arBzk2Xm9yl11ovSH84G14r79e4R9b5859B9/emnH5IG8YtfMP2WqajqODMiYgjbc6fid28jrCXgl75TXey1X39BIDDw/+se1OGHSd78fkiFlit3TTaZwU8pQtQIoSj3/r/eBNKsYRdQBFbX34iyWwTx+qsZ9vs2fuaJPCYYeLOinrBHWeZMx+81Dc2m7/m6NNChUABT2htv9NH+jYz1epFflo3LSkh0YzAJBVWtTfq36+Sv2AfJtA5rSwi2EBaCQmrnh+r8ZoLM2kJgEWld329y3mivZEiKyTiDU/rJSoWEAoQvRKVcbTy7x584a1+SsjEpxCVwGOKX8r2cqg6VauhkGP+mDrnPAt/T3ZbdZJTpBuU6fpaXu/ba2Qaw2UXO/nGvnPO3dpjjtIQWQvTqgTfvDbDIP+eoVfbJ1b9/WgvQ3TvPjbNJt6eHplfXfdtHUpJDNxpVzPdtIthL0S9qofeCVX3dJrDDws+MW2O8GDOt+LbTVUy+2dxmmOY3MRXZFQNRXyN2ebx6JTJBM6miojSxIgIUlAULWXkElSy7LrMTWMDGBVKXeYLi5XTYjdtApOyjohGNWwRaVKpSYzPt7uVxIN0wIkxhUVt8/Z7rafWzhp31mNRtOxShJX/aBX/dxC9bD9fspGnkptiXiY5pYU29l6NkbhCOMSgEml3H7i4qxcpkoKGYWwGgSjAY09jOoz4ppCLBaEI3ssEtNJYjFAnkLfNDAANB1VAupHlIbp+PYu5WoY9MiJrXNCT/p7muP30jz6ZIh4OgHFK9vIogskwwAVCrnWurrez6ZBmxeNrnN2aHBkJdGlGNlXz1F28hRKJconA3pFJvzgNxkK/fUKn9g61+7rQXsty7r595XPOGtwBhCQkALAua72aCedIuxVK8JeuYPnctUtvcbAw4JPbLsTvKjzvZgcsepmx+9OmvIRlK+F7kGd+Yss4t9CAokLRxYab17HamB22DRXN+vATUPppKwTZPm8jTGyf/8X2Vt+LwVdXDfWYz9f5WrQ0ZaABFeCDa/6+SpWo7NMnr9UCgYvZdKrMQoE5WYvNDjpVGXLxKwDIQiOy4DdAOOwBppCRI9C7gCC08Q1qNfrhBSdRASMIxiPaCiAdVQaqqWU3cqVp3rUpCdb5wSH+lvMFTEnU8h6ivRYnmYeQvS0vXfUOtxl85oPc72fzSoD2cx1muPT5wR/exRHDk+SWZwkA1j1GtWjMqXdbTZdnrS6ivCD32YY9Ncr/GLr3LqvF+09O+v0n/NKdb5eL3bSMcJetSDslUt4LFfd4iQGHgb8Ytud4EWd78fkyJ1+1WpK0y+eM6uHwDqmlNshVzCo1OqX19If8euzJKEb17m908/aPeE7LuuAc/9i1Tg0qreqteXi1ofe+9kJHvXzHbmIm66KpIdj1LzinfToas9WDirUHyiEIjpwQECPE5XqHHzOoT6aRY+rcFQlqtvLgquHw+MQe8LzMerN1jnBqf6eHbyjUEuRUXTSqXFyWycQmCAdlwELI1e4Wcjtfr4teHCRo52X/PkgwfTDaSb1GJGwTCikoOkKmp4klfrE9yv92eIj/OAtDIH++gav+mrU7tukJzvpAsJeXSLslXt4KVe9030M7Ev8KFce1PleTI5IUuc3pXJTks/qV7ozMs9DPQSYFNafst4mN0SAYNtHjPr5a38p0HEbyNUVAW6VdUL9fBreKvNldX1wb+8d9LMTvOrnq0hS5+me4MWLiMv+8GqMzqwGDUAiiNKxS4IEm4PUMOuXZQ8NqkwSUzSmgwFOEjqhusF+voCWniUT1xnbDhLTJMCkcuD9kk8neKZHV+ja1jnBJf3NFSpkZjW06TRsbRJMpJmQgXqJXPGmExuGfnZCo1pk52OR89AvknhIZmaOVCyErGdZSxcujvJ0E+EHv43f5WqQeNVXo3bfq3RrJ91C2CsbYa/cxSu56hYnMbAf8aNceVHne5GQVVK19l8EplAV+89a9fjyY9Ve5k/doNAmIRSAFlPbGtlG9cRO+CSpaB1yvmjh9svrnJS9ztn58gMJbuYibuW0ekwNIKSiKXe6vCs46WcnuNnPPaNG2o9LIIHW3C93UrlM1ubmGHUjG1SrdqIpFFS1g2fQNDtnCHVOqlfG8XSH8jEgaehRjYQuYx0V2WscUTRqSNEEcSVKVAGsCqU+HxHU38OZvdOjq3Rr667TjWy4pb/V3C6HFhBO8jg6RiIVJwSYxRztDl8Yhn52k6PiDu+efsfXYwCJyER/MroJP/ht7ptc9ROv+mrU7nuVbu1kvxD2yr2y1xllezUoubrKnWJCJzFwHxiFOBaGXxfuxeQIykTbo3uCiSRRCW6ektFcPCUF2y+RCk6QTrYfgbNyyc6kTZh4so2lHJsmEW0v3k7KXseqNTOfB8NEbju683CPUg1AI/3w1sdlF+m9n53gZj/3jBxnSr/Z6oCeRA8B1DCMKyspXByjrmTjZAv71EGJaCrR9ifR5IQdlFhlSuXWKdvSkb3XVktl0BWLyn4JgErRwJSiJGbidiKlSom9PvmUet2Ws6Ds4hm27fBMj67Qta1rpSvZcEt/T3bIGRagMDm3SFqXgBqFXJvM/zAc/dwHqid2f0r9Wpgr/OC3cVWudObX3vDmzRvevPmJqT6bnoHjlQ6O2n2v0q2d7DPCXjkvex1/xO39pe9yRZcxocMY2C1GKo5l+HXhfkyOECa9OE+0JT11goXsJCHAOsyzcXk0OWdHZTuPraSTyURuXC29vESq00RwI0+uaM8zaulFHkZaFXx6MUu8k510UvYaZ+V9jHqzDY+mb/mxwdaWQR1QHizz6mH7Q6DH9Wnmny+TdunkJkf97AQX+7l3FFILWfQWmZxgYSHRPE89x8bVFBwujlFXsgHkchUsIBTP8ny69cJBfYHFdBiw32Dlr01wlI0jLEBLJtGoUjw4bTaniFEPMZm0337Vyv3LN3JUtieZpHiGmWgft0t5pEetdGfroUHChQAAIABJREFUrtONbLipv4VckTogxyeJScBxoVX+W248DP3cPcHEPD/NtA+uApH55sMOVIx+6YLwg9/+sYtyFRhDjcaIxWLEYhpK3/3JgPFKB0ftvtfoyk46RNirS+69vRog3stV9zGhkxjYLUYrjh1+XbgXOUesWo2GNsvar3EMo0ojIBPRdcIhwKqwvXHtXOTqFl/3MzyblIllf+HfiRJG1cSSwkT1KGHZwtg3iEzqbRMNFj99oqA/IynrPPrlX6QMg2ojwHg0TkyBWs1EUdpbaSdlW2jssfklg/4ohpJc4r/JxYuZR8obfPcy3/Lzk9wK7/R/spxUiD/6hd9mK5QPq9QaEJTHUTWNsCwBx3zdvP32d8JhPzvBtX7uldoxppZh7Z8TGAdHmNdl8sPNs7pdG6MuZaO69YTt5G/MajKTS+/5d9rAOGkQkCPoetgeG7PAp0/Fm7cyDqmiowEcl9g6XwxzVmS/bJGM22eTl43+7amp7m5TmlkiHoqR/eXfzJgmZrO9Z+VNnry7We9e8USPrtC1rbtON7Lhov6elXIUzeRF8HqYz33z9173c0/IMVLZWVLZOrVKmUrVznAfCtvbzmQJqO3yJX9y66V6QfjBIfWDPsWrvhq1+16lWzvpCGGvhL3qQHr5DWn1yoxPcNze7hGaYOGX98xdfGFR+brKu70rK3w8livoPiZ0EgN7VWcnDIOtG3ZduB+TI+XPrG4l+Wlhknjych+jVSvx5d06W22WQe29/p7Q8j+YT4aRY5Mkz7e/1Y8pfFjnQy3Dr5Mdlu+c7vF2BazlRVKajBZP2g+Hlonx9S1fyLI228FQOil7jerOU1Yaj8nOTKKHZUKhpjGT2k9jF9d/YMX4iYW5JDFZQ5/UWvZ6WWYFY3/b1SPjHPWzE1zs516wKl9Y/TLJ8kISPRm+/LxW4su7t21lEtwbo25lY3NlBXNxkbmkhhyLX44TFjUjx8bbDdrmhKseUDFn0WSoGa3G+6BYxorrSNYRxmEfMyid5lldgexchoSuosgKofOhPXF/Bt4LPbq4dg+27jrdyIZr+ntmkCvUSGUUsAzyu7cHRl72cy9YlRL7lXF0TUHR4igtW+rrHO9vsfFhi4M+vXkSfnB4/aBf8aqvRu2+F/RgJ3tF2CthrzoxHomhhdt9E0LRrk09XVs257VcAT3FhD3HwB7W2Qme2zqGWxf+5w9/+MP/c34Zb5h69RvP4hL1wirfrdsPZtGJKcaD0Dgpc1C+3bEExiLoMRU5CI2TKkXjG2vS2xBUdfTIGIGzU/aKxsDKOmUsohNTxwlKFlbjlGqlwtFJ/6yV0352gpf9DBCdSDRlsnInmTxn0GN0jp6YYjwoYTVMqhWDoxMfpLP2iEGNkRu2zglu6O/0q/+wFA9hld7yp2tvBW7DK13oFTU6gTouE5QsGuYJxYP+LSEWfrB3/CZXXuJVX43afZ3YyV4R9mowZZ3iN3s1SLlyk1GLgf0mV9D/Ot+7yRGBQCC4b/je1o0/5M2vj4hJdQqr37NevN/BxiDxvWwIBAKbEbCTwl4JBIJh554kZBUIBALBsDK9MGsnGKwVyJXuX8AvEAgEThF2UiAQCLznXuQcEQgEAsFwMTH/nIwmEVSjxJQQUKf05QuGiPkFAoEAEHZSIBAIhg0xOSIQCAQC11H1SeLnSc2sGvuf13md72dGM4FAIPAXwk4KBALBcOHrnCNBVUeT7Qy15epwJ48RCASCXvGjrRuL2McyWnWT8pE4+qNf+FE2BAKBzajZSWGvBALBsOPryRGBQCAQCAQCgUAgEAgEAqeIhKwCgUAgEAgEAoFAIBAIRhoxOSIQCAQCgUAgEAgEAoFgpBn6hKzjqooEQJ1q9f4nqRrW9qqqCvUa1VP/pFBXVZVqdbB7eCMTE8jXPzw74cC4vR5Oyt5XVFUFy6R6IvYmO8GP+isQ3BXbTtSpngyPz7yKsO3O8Gp8h12uRhER1w0/fow3hFz1zn20k0OZcyQy/ROLc0liinTl00M+/d+n7Nyfvr9g2NubWP4PL5IhrNLP/OnlntfVuROJ5//hxWQIa/9n/vR6QHUOTrP2v0vo1z+v/c4ff/jYv7L3FHXmPb9mNTj+yh9/3PS6Or7Fj/orENyVwNQr/vdZHKleYPX7dYrDFo8L2+4Ir8Z36OVqBBFxXX8JqBMkozceuW/FqpbYK9sPK36MN4Rc9c59tZNDt3IkmFjmb0tJZMAyj6maDSwLoIL5jU6fmH/FbAzMwgbrOf/MyPbaXif4ta+Gnkae3a8aleYcV0BL8kC/o6NxUlbgCV7pkdBfwX3i3suzsO2ecO/lSjAYRiiukyfmWHoUu/2H16gX/sre+kEfanSPGSG58iNDNzmSyCSQgXrpLd+9zN+5nBKLo+tQO94C/OMIe22vE/zaV34gv7nB+SiOPYx2ZbCclBUMHq/0SOiv4D7hVJ7PTiuUD4MEGpWhfWslbHvv9Dq+oyBXgsEwKnGdZVYwDiFw7fOgGiMcAiyTSqWGde37RkVse+6F+yBX99VODtnkiE503J4KOyoWPa7LIBi19goEAoFA4CLGJitPva6EoG94Nb5CrgQjxuneR1ba7CqZevUbz+ISmAWePN0YfMUEw8s9tZPDdVpNIIDUXCZkWdfnJoebsbGx7gv5uL2jRk/j62NEewX3CTG+gn4wanI1au11gh/7yo91dsKotVcwGIRc+R/PV47o82ssxIPN/wUZb64Mis69533m6hqdCl//+o69ZoLSYOIn1ua05ncBZNX+S0n+xPvYtSVeh1948tH9lRmR6cdkZybRwzLnqVTrxwbF3Bfe7Rhty/TaXie42VeBYJTUwgJzyRiyBGBhVop8efuW3FHnNVXByBRzcxkSegwl1PywfoxR3OHzRo5yH1flBSPTzD+aI6krhMBeGljcZuPTFkaH/p2aeUwyrqNFFJTQ+eha1I/LFPNfebd1v/ZX9trec3m2jM+sfGn0JBtTC6+Ym47byzaxMCsldj9fLhnsB7201yubM8r6G5laIDubRNcubSxWnVrFoFTI8XGnvVz2Mr4TC2/I6hKV3FfM5CMyuoxkmRjb66xuwcyLZfszLI73N/jxda7tvQfZVxf6d/iFp98Y98jMK5aSMlS3ebJ+U7Oc1Pni2pWvPHm3hzq1wMLcNPFw80JWDaOwdXEdN+T54fP3pJRrHzZKPFm5e+LmsWiaubk0k7rW1AXAqnNcPqD4+1c2945ulPGbXziX6UZpg9XCOPOP5kjpiq1LVo3D4jYbH3a+Pb49xDkXZXvU317GdxjkyklM6MSH9opTee51fN1AxHXDj9/iDfveQq5uw7Gd9NBu3BXPJ0eCSgRNC934PKSEafnUslqOLQrICqqmXXbsZUGuX84yg9d/5ZiJx//gxYNwM8ioY5oNkBXksE7q0Rrx+Ae+f3kzeO61vU5wra+kGNm1JTKahFU3Ma0gckhC1pIsrgWo//l128mc8ell1haTKE3jWK+ZNKQgihxGTy2ypuu8XVln78RZO9uipHixFkcPQd2sUUNGkWW0ZJa1qMbPf1m/Uefg9BrPsud5oC3qZo2GBdL5+GZ1EonPfPd0qw8VHjxO2nsuz1YjTnYt3bVsPFz7D490WwituonZCCBrk8z+TSP27bh74O31yuaMqv5G59+zNttst2VSq9WxkJAVBSU2yQMNDnIHN/a59jq+QVVD0yTUhSVomJimhSLL6LPLrMVBU6FWM5EVmfDkAmvpfVZyrR026L6qVOqMz+qE1DTTm0XyHYLGdDqOpsBxqXLjO6d1Do2raJoClszEzBuWs7FWXyYp6KkZpnM5ymV35FlRNbTwtQ/rVRIB7rTvWZ9/w/PZy3raMiIRlGXCepKwLnNysELuSn/60S+cy3TdmuFVOk4sZNfbREaRFWLJR6xFNFafvuOgjez0GudA7/oLvY2v13LlNCbs1Yf2ilN5djK+jhFx3fDjs3gDEHJ1R5zYSU/tRhd4PjlSXP+OP643/xOYYPnffyMZgtLb/8PLfOfeOc2t8Kcrfia99l8Wdaj9vsIPH/v0VNUkmHjO0oOw/Qax8JYf1y836enzazyf1ZHjC7yfOeTJVuvbp17b6wS3+krSM6RrJT795S07zWO71KllXj1LooQmmctE2NtsbW9Af8yrpSQKUCt95t3bbYzm2efByDSLy4skw0mWlgz2VtoHWU6QtDi6afB55We2mtO+YxPzvFieJaYkWVwqsXcjEW6dY+N3ctt5dorllm/UqccsLz1Ai2X5x3yJHzdvvl30H87b24tsRObfk9VDQI39D6u8ztnfB9QpFp8vkdJvhLku0Vt7vbI5I6m/Y2myGQ0Ji8r2Kk82Wt8kqBNp0unxG4nhbJzJs1Td5o9P7DcgM+//S1aT0dRDPj95ylYVIvP/4O+zYaKJOOQubYcXfdUo5jmoT5IM6aSSY+RzbaJN/TFxBaBCMd/H8ZXTLMyFOTv8nQ9fdsgd2Ekwx6NTJDNJzh9H3ZDnjR//yPnO94ujBO9UEsanX11MjNRKn/nwYZuDk0vfG5maJ3uxAuEq/vULoVicmFni01/W2Wm+dh2fWODFiwxaOMXSYpHv11tXUjiJc5zpb2/j66VcOeqrJr3YZ2c4kGeH4+sUEdcNP76KN87rLOTqTvTsfz22G90wXDlHfML0TNw+erey3eIEAYzNFT7s1wEJLZNh4nraZ19TY/fd6oWhA6jurbOxXwcgrN84dZvMfIowYB1+5oeXWxeGDqBxlGd9fZsKIOkzLET7Uec6+59WLwwdwOnBJqubBhYQimeYUVtLNPKv+XHl4w1DB1Dd+8iH3DEA4USyHxUeOO60t0vZCEwwm7Jnj83dDxcTIwBn1T3eNeWiH4za+F7iH/0NxHQiEmAZfP18c4ll9SDHxutNDtrMJzsd35px+ZBoGLXzD9lqHnhxdFDGBKTxVsPhSV+dFSkcmIBENDnZ9if61CT23EiBzWuHdrhaZyWMXP7E908/XkyMAJyU99haf83mzeEYPIEJ5rJxQkDd+MQPL7daJkYAjvY2efnjy5ZVI+B3u2FS+HA5MQJwcrDB6udDLEBOZHh4bZu8kzjHif76EXdiwu7tsxOcyLP34yviuuHHP/HGJUKu+on3duPuiMmRbhlLM6lJgEVld7vtT4q5IiaArJPo/sjw4aVW5KNxU2oPjWYgLKu0mDt1nmRMAuoUt9r3FUebFCoACnpCbf8bJ9QPyBdvrhc+LexiWAAaiYnukidVjCPqAIpK4l5NfrXnTu3tVjZiCeyTx2rs59vsLzzapHDopNa9c2/H14/6KwWRXT6h7rbxbZjmxd+m2bQdp1fW8NZNu3xIZuL8Mw/7qrRbsidroknS101ZQGd6UgYsDncLrd+5Xuca+c87PbRgcATiKRJNu1P44u6bx6G2G2aJ3dJNP3hSyFO2AClKPH5lq4lbcU4f9HfocKuvurXPfeZO8uzV+Iq4bvjxY7wh5Gow+MAveL6txneEI9in75pUyu03gJ6Vy1RJIaMQVoNg3JMzwE/av8tvNJrtk6SW89GDUQ3bfFWp1GTGx9uVlmiYFiAxrqhAtd2Peqd62H7vWiNPpbZEPAyKpgE3H9DHolMkEzqaKiNLEiDZpwsFVXsJmSThfjYb73DU3i5lY0wN2zl1rCrlDktEylUTYv2zoKM2vn7S37NDgyMriS7FyL56jrKTp1AqUT65+yuFXsf36slhF39fPU3srMEZQEBCCgBnHveVkadkpkjJUaaT4+R2LidyAvo0cRmwyhQKrZu0Xa+zadDm5dlQoUYjdp6RepmDw95eT/nSblTL7d/GneY4NhfRFQlVUyHfHECHcY4b+usb3IoJu7TPbtGLPHs+viKuG358FG9cIOSqr3huN7pATI50SSAoNxOlNjgxO/zIMjHrQAiC4zJwPyZHbj1uOCBB82EBQJbPMxHHyP79X2Rvub4UdN/1W41OgwTnL4WDwWsmK6gzf3EyxbeQQOKivb7FhfZ2Kxuh8WafWw3MDkXrZh1cS0t8hVEb3ya+0t/THJ8+J/jbozhyeJLM4iQZwKrXqB6VKe1us5nv8CTucHzPzjr9p0mbbvS0r84Mcvs1Ug8UtGQCdi5Xb+ip5nL/coGda89trtfZrNLfbF/OkeVmZk6z1n3CNx/bDave2Q+enPtB+dIPOo5znOivz3ArJuzWPjvGiTx7PL4irht+fBVvNBFy1Wd85BfE5EjPWHdKGjPSq6jObYhV49Co3jpFZHU6J6tPXDz3XLNo6RfPmdVDYB1Tyu2QKxhUavXL8dYf8euzJDfPHPIn3rT3ds0465MXGbXx7RmP9fdo5yV/Pkgw/XCaST1GJCwTCilouoKmJ0mlPvH9ys1tHJ6Mr8d9Vc4XqT3IoMSSzIzvsHUCBBKkJuwtNcb1LTX9qPNtwfAwIDXtTg+mxc92424j0y607z3O6VV//Yu/YkKn8jys4yviOp8inhdGgmG1G9cRkyNdcmY1aAASQZSOa6SCBJsK1DDrA6rZ8FE/fyVllfmyuu5Jkh1J6mySgheLF66Y4cg8D/UQYFJYf8p6m/2HAYJ3Phlh6PGovfXzaXgp0HGp4Y0ZejcYtfF1wDDob6NaZOdjkXNXGUk8JDMzRyoWQtazrKULrcfpeiXPXvdVeYPicYZMOEYyqbK1VSUQTzJhZx5lt00/eF5nD2iYDSAEsowOd1/p4nO7IUmdbal8Pl9Uv7ItxqU4p2v99SG+jAldkmevxlfEdfePYfBHQq4Ggx/8wr1LyNp3IaxW7cRaKKhqB0+oaagSQJ2T6vBuqel3X51Wj6kBhFQ0pc8364QaaZ/ELJBAa+5pPKlc2aOvavbJDnWDQpsEdgBaTL1T352dTzVLdJ1IzUnZbnCzvd3QqJ7YSaokFa1DXi0t7P6Wmn601yvHNxL6e42j4g7vnn7H12MAichEa3ZDr+R5GPoqV7Sz4mvJBADx6YnmqSy77LXpimGo81UGoUfVStV+oydrTHSRz29Y/EKvSGq7o4mBwBRqc+xr1ePLz/sU59ymv/1AxIQ36ZedHNj4irju3jEU/kjIlSd44Rdu495MjtTr9iKmoNxdJuGuOdnCPt1RIppKtP1JNDlhK4xVplQevtdxA+urwz1KNQCN9EOPVFaOM6XfXMga0JPoIYAahnE1qVNzMZwUbL/8NThBOnk3y23VmqdaBMNEuuxqJ2W7vJP9jwvt7Yazcsk+JYEw8WSbp5SxaRLRfoS17rV3YHrk1X2HQX87UD2x++BmikJv5HkY+qqaz9vHX2tJ5qNTTOshoM5Bvti+wBDUGQarR41S4eLUgeTMxG0/v8Jw+IWeUSbaHn0ZTCSxzewx5avL1Psc53TWX/cQMeG36K+d7Pv4jmRcpzO/9oY3b97w5s1PTA027Og/w+CPRlKuhodB+IW7cm8mR47KtsBK8Qwz0f7mBM7lKs0zr7M8n259sAvqCyymwwCYxRx5718S3GBgfXVmsLVlUAeUB8u8etj+YPJxfZr558uk+3AyFyikFrLoV5s5NsHCQsJOVFjJsXEl/8/ZUdnOfy3pZDKRG1dLLy+RuuOChrPyPka9ea1H013V2knZru7jYnu7opEnV7Tft2npRR5GWo3h9GKWeB/mRtxs7yBtjif39VB/g4l5fppp/6ARiMyT1m3hqBitybs8k+dhsHXVrebx1xrJn+aIhwDzgEKpw8PYMNSZAevRaZ4vOXuFhJJa4tVMuxmDKOnlx0xdqcqw+IXeCZNenKele8cSLGQnCQHWYZ6No9YSTuKcXvXXTURM2Bmn8uz9+I5gXBcYQ43GiMVixGIayn3bqzEU/mgE5WqAeG837s69yTlS3d2mNLNEPBQj+8u/mTFNzOabg7PyJk/edXh71su9tp6wnfyNWU1mcuk9/04bGCcNAnIEXQ/biXfMAp8+uXdPNxlkX53kVnin/5PlpEL80S/8NluhfFil1oCgPI6qaYRlCTjm66Zrt72kdoypZVj75wTGwRFmQCai64RDgFVh+8O189SrW3zdz/BsUiaW/YV/J0oYVRNLChPVo4RlC2PfIDKp355gqbHH5pcM+qMYSnKJ/yYXL95mUd7gu5f5/pTtBjfb2yXFT58o6M9IyjqPfvkXKcOg2ggwHo0TU6BWM1EUl59kXWzvIPXIq/t6pr9yjFR2llS2Tq1SplK1T3sIhTX0qIYsAbVdvuRbj6f1Up49t3VAoXDIXCyGEm4+jJV2v3kqyzDUuVt5Ti+/Ia1eeTIIjtvLlkMTLPzynrmLLywqX1d5t9e6d7m88SOftH/zSJeJZ3/ht3QFo1LFPIOgHCEWDSNLBh8+XK3kkPiFHrFqNRraLGu/xjGMKo3rfnBj+0YZR3FOr/qL8/G9qP8A5cp3MaFTeXYwvq4g4rp7ief+SMjVrTiyz17bjS64N5MjnOZZXYHsXIaErqLICqHz56oT998abK6sYC4uMpfUkGNxkhdbpCxqRo6NtxsUhzXP2ID7qrj+AyvGTyzMJYnJGvqk1rIvzjIrGPvbbLp8ZDmAVfnC6pdJlheS6Mnw5ee1El/evWWrzRLXvdffE1r+B/PJMHJs8nJs68cUPqzzoZbh18m7Lfur7jxlpfGY7MwkelgmFGoaFen2aX8nZbvBzfZ2xekeb1fAWl4kpclo8SQagGVifH3LF7Kszbr/mt+19g5Yj7y6rxf6a1VK7FfG0TUFRYujtKRMqHO8v8XGhy0O2ryF9Uye8dbWAZwU8pSzMewXMCal/O0pR72uc7fyPB6JoYVvfAyEULRrIWiH16s7K99TnX9ONj2JpmjErwqYVeNwd5fcNdkaFr/QC1b5M6tbSX5amCSevGyr7QfX2/pB6D3OcaK/bowvMHC58ltM6ESenYyvG4i47v4inheGW66c2Emv7UY3/M8f/vCH/+d1JfyOnphiPChhNUyqFYOjk2HYUzqcjEV0Yuo4QcnCapxSrVQ4OhmMJkQnEowHoXFS4aB8+8xkYCyCHlORg9A4qVI0jm4t42e8bG9Q1dEjYwTOTtkr3vkMCUeM2vi6gRf6q0YnUMdlgpJFwzyheHC3JZdej6+Xtq5X/Fhnp4xHJ9DO5evkiKLx7ajba7nqhqlXv/EsLlEvrPLdur1qITox1fSD5Tv5wXN6jXN61V8/46eY0Kk8ez2+Iq67v4jnhfuL13bjNsTkiEAgEAgEAsE9o93kiEAgEAgEgs7cm4SsAoFAIBAIBAKBQCAQCAS9ICZHBAKBQCAQCAQCgUAgEIw0YnJEIBAIBAKBQCAQCAQCwUgjco4IBAKBQCAQ3DOCqo4m2yc8lKv3O7GuQCAQCARuICZHBAKBQCAQCAQCgUAgEIw0YluNQCAQCAQCgUAgEAgEgpFGTI4IBAKBQCAQCAQCgUAgGGn+P68rMIqoqgr1GtXTM6+rciciExPI1z88O+HAqHpRnQvGVRUJgDrV6qmndRkEw9pev8mzE4ZVFwT3H1VVwTKpnnSfO6JTWSHP7uJkjG67brU62DERstEdwg8K2RD0H+EHvWcUbJ3IOTJgEsv/4UUyhFX6mT+93PO6OrcTnGbtf5fQr39e+50//vBx4NWJTP/E4lySmCJd+fSQT//3KTvDM1/gGsPeXt/JsxOGTBf8RjCSIKEF4cQgb5x4XR1foc6859esBsdf+eOPm+6UFfLsKk7G6Fsknv+HF5MhrP2f+dPrAdlYIRtdIfwgQjbuiPCDvSP8oDMC6gTJ6I1poFuxqiX2yvYDx6jYuqFaOTIx/4rZGJiFDdZz/pix82Odu6KRZ/erRqX5bB7QkjzQu1cuNwgmlvnbUhIZsMxjqmYDywKoYH5jAtOvY9Rre53g174aCEOkC35kPDXPUiaMtf+zCAqHASHPgk6MuGwIP/gNRlw2nCL84JAxQvIsT8yx9CjWdbl64a/srR/0oUbDy1BNjiixOLoOteMtwB8OyY917pb85gb55t9jD6OeGY5EJoEM1Etv+e5l/tbfn+PXMeq1vU7wa18NimHRBYHADYQ8CzoxyrIh/OC3GWXZENw/RkWeLbOCcQiBa58H1RjhEGCZVCo1rGvfNyqjdwz8UE2OCASd0YmO21O7R8Wix3UZBKPWXoFAIBAIBAKBQOA2p3sfWWmzE2bq1W88i0tgFnjydGPwFRtC7t1pNWNjY15XQdAPAgGk5rI3y7o+rznc9CSTPm6v4O4Ie3W/EeM7GEQ/Dz9ijASdELJxvxHjK/Abnq4cCSZ+Ym1Oa/4vgKzafynJn3gfu7aM5/ALTz62f4MemX5MdmYSPSxznrayfmxQzH3h3Y4xlHUGCASjpBYWmEvGkCUAC7NS5Mvbt+SOOieVCEammJvLkNBjKKHmh/VjjOIOnzdylIdwBVQvddbn11iIB8+vwHhzpVt07j3vM1f7p8LXv75jr5mg1M0x6pVeZLLX9jphFOV5YuENWV2iUdpgtTDO/KM5Urpij5NV47C4zcaHnb7o0dTMY5JxHS2ioITOJcOiflymmP/Ku62b+zojM69YSspQy/Hkda7jtYOJx7yaiyFZh3x5+ZHitfo76eeLOlS+8uTdHurUAgtz08TDzQtZNYzCluvjFZlaIDubRNcu9QirTq1iUCrk+Ljj7j5Yp7LRy/i2lF94xdx03F7iioVZKbH7+XLJb7/KOsELf9RrP5/bWMv4zMqXRk/2yqt+BghGppl/NEdSV7Bvb1IpbrPxaQvjG/7Aq5ihGz84s/aeZNDC+LzCxsEdkmqpaZ4vp1Fc8IfCDwo/KPzgJcIPdo8fn8uc4hdb1wueTo4EZAVV05CufxFS0EKtH1lm8PqvAJh4/A9ePAg3lbaOaTZAVpDDOqlHa8TjH/j+ZWdD6kWdAZBiZNeWyGgSVt3EtILIIQlZS7K4FqD+59dtnf349DJri0mUpiDWayYNKYgih9FTi6zpOm9X1tkbojxPvdY5qETQrncqEFLCtHxqWS3HcLksBU9UAAAgAElEQVQ2Rj3Sq0z22l4njKI8B1UNTZOoWzO8SseJhSzqZg0TGUVWiCUfsRbRWH36jgMXjXRweo1n2fOc6PY9GxZI57KR1UkkPvPd062WctVyjWA2jqI9ZD6SY/Oo/fUTmRQxTcIqbd8ICJ32c2hcRdMUsGQmZt6wnI21yqSkoKdmmM7lKJe775t2ROffszbblE3LpFarYyEhKwpKbJIHGhzkDii6mJzYiWz0Or7nPFz7D490u1etuonZCCBrk8z+TSN2yxy/k7JO8ER/HfTzuY21GnGya+mu7ZVX/QyAkuLFWhw9BHWzRg0ZRZbRklnWoho//2V9aGwsdO8HG6homkQwrrFxcLsRCUYTxDUNqXbo+EWB8IPCDwo/eInwg93hx+cyx/jI1vWCp5Mjp7kV/nTlGTG99l8Wdaj9vsIPH2+X5GDiOUsPwkhYHBfe8uP65WYqfX6N57M6cnyB9zOHPNnqYEkHXOdzJD1Dulbi01/estM8IkmdWubVsyRKaJK5TIS9a9Y/oD/m1VISBaiVPvPu7TZG85zpYGSaxeVFkuEkS0sGeyvuTQg5wUmdi+vf8cf18wtNsPzvv5EMQent/+FlvrMncGuMesGJTPbaXieMsjyHYnFiZolPf1lnpzlVPT6xwIsXGbRwiqXFIt+vu7mqqM6x8Tu57Tw7xdbISZ16zPLSA7RYln/Ml/jxSl+dGR8pHD9gNhwmmY6y+bFN1DX+kHRUAuqUdlvr7Go/y2kW5sKcHf7Ohy875A7sZIXj0SmSmSTfmmo0izt8tcZplO9gi8fSZDMaEhaV7VWebLS+aVIn0qTT4zcSh7lFb7LR2/gCRObfk9VDQI39D6u8ztnfB9QpFp8vkdJvPLa5UtYJ3ulv7/18Ti/2yqt+vqizFkc3DT6v/MxWc5nI2MQ8L5ZniSlJFpdK7F1L3O3VGPXiB43DKugaiqYBtz9Zarr9wFivOPfpwg8KPyj84E2EH7wdr/XXK/xo67rB1zlHpmfi9jGnle0W5wtgbK7wYb8OSGiZDBPX0/N6To3dd6sXQgVQ3VtnY78OQFi/ceo2mfkUYcA6/MwPL7cuhAqgcZRnfX2bCiDpMyxE+13/u+HHOjvB3zLpBD/Ks0nhw6XTBzg52GD18yEWICcyPHRxq2wj/5ofVz7eCBgAqnsf+ZA7BiCcSN74Ppe366RMptvKjZpMEZMAs0ju2usyV/tZCSOXP/H9048XASHASXmPrfXXbH7jmebUyLG5uclW8fbTHwIxnYgEWAZfP99cgls9yLHxepO7rL7vje5lo+fxDUwwm7If9MzdDxdBHcBZdY93zfFpi5OyDvFKf53o0SVd2isP+/mSOvufVi8mRgBODzZZ3TSwgFA8w4zaWsKrMerFD1YPKpgAEZ3EHXxjVLPXT1aNfi/Z6QbhB29D+EHhB0H4Qf/jR1t3d/w7OTKWZlKTAIvK7nbbnxRzRdvZyjqJ7o927i+1Ih+Nmxbt0GgaTFmlRbTUeZIxe0a8uNW+vRxtUqgAKOgJtf1vBokf6+wEv8ukE/woz2aJ3dLN9cInhTxlC5CixOPub7vqRMU4og6gqDceDk52m3WSE6Tb1Gl62t4vXyvkWgMl1/u5Rv7zzl2a4w5SENmLU/X6IBsdxzeWwD45sMZ+vs1e7KNNCocdLuqkrBOGQX878C09uqBbe+VVP1+lfkD++j4B4LSwi2EBaCQmrjypeDVGvfrBSomKBYQiRK9UZTy9zJs3b1ibvzIiwSl0FeCY8reSrQwa4QcdI/xgG4QfFH5w2PCjresC/x7lG45gn3RqUim3d45n5TJVUsgohNUgGEOQ5eWck/bzmI1Gs46S1HIWdTCqYYtKlUpNZny8XWmJhmkBEuOKCtw+M91P/FhnR/hdJp3gR3multu/cTnNcWwuoisSqqZC3qXNw03GolMkEzqaKiNLEiDZJxMFVXtfsSTdXJZ7muP30jz6ZIh4OgHFK8vnowskwwAVCrnWurrez6ZBmxdCrnN2aHBkJdGlGNlXz1F28hRKJconfXtF1ooD2eh2fMfUsJ1DyKpS7vB6q1w1IXYzOnZS1gnDoL896dE5Xdorr/q5heph+7wCjTyV2hLxMM0tKfbDgWdj1KsfbOxhVJ8R1xRisSAc2WORmE4SiwHyFPqmgQGg6agSUD+iNEwhg/CDd0b4wdsRfrAV4QeHCD/aui7w7eRIICg3k1I2ODE7/MgyMetACILjMjA8D6K3Hs8akCAANA2TLJ9nqY6R/fu/yN5yfSno/Z4NP9bZCX6XSSf4UZ6teqdBgpPmsARlF9+YBXXmXyyT0a9knG+LBBIXfXVOMVfEnEwh6ynSY3lyzecOPW3v4bQOd9m85ktc72ezykAWsZ/m+PQ5wd8exZHDk2QWJ8kAVr1G9ahMaXebTZeD9av0JBs9jm9ovHkdq4HZQY3qZh3apGF2UtYJnuqvQz2C7u2VV/18FavRWSbNc5kMXsqkV2PkxA8ahzXQFCJ6FHIHEJwmrkG9Xiek6CQiYBzBeESzbd5RqY9bCrpH+ME7IPzg3RF+sAXhB4cHP9q6bvDt5Mgl1p2SEfleJM/tj1Xj0Kje+khtDcNSUz/W2RVGRCadMASycbckZu4l8Uq/eM6sHgLrmFJuh1zBoFKrX9ZDf8Svz5LcPK/I5uzgHYVaioyik06Nk9s6gcAE6bgMWBi5ws1CbvfzbQ7RRY52XvLngwTTD6eZ1GNEwjKhkIKmK2h6klTqE9+v9Gdpcy+y0fv43m4Jzto94Tsu6wAP9depHvWGR/18R87Ob31VJD23sd37wcpBhfoDhVBEBw4I6HGiUp2DzznUR7PocRWOqkR1e/tE9XAAr+/7iedjJPxgO4QftBF+8BaGQH99g8/6yreTI2dWgwYgEUTpOKkdJNjU24ZZH1DN+kP9fJrWKvNldX2o3pZ0wo91dsKoyaQThkE2JKnz2zC56WvP6i6t7InM81APASaF9aest8kdECB4awiaK1TIzGpo02nY2iSYSDMhA/USueJNZzIM/eyERrXIzsci56FfJPGQzMwcqVgIWc+yli6wknPfiXYtGw7Gt37+2l8KdNwGcnVFgFtlneCZXLmkR93iVT9fRZI6T/cEL16cXvaHV2PkxA+eHRpUmSSmaEwHA5wkdEJ1g/18AS09SyauM7YdJKZJgEnlwN9L1IfBPgs/OPwIP2gj/KB/8VtfDWVC1jsFNtWqndALBVXtIPSaZu9Lpc5Jtb/bF/p7iB+cVo+pAYRUNKXPN/sGZ+evqCS4mYu4lWGp8zn9HqNhk0knjII8S6rW/ovAFGqzTrXqccfy3ehCQLWXgVM3KLRJcAagxdRb+72a2+XQAsJJHkfHSKTihACzmKNNHDIU/ewmR8Ud3j39jq/HABKRif5kNe5WNpyMb6N6Yieok1S0DjnItHD75cBOyl7HD7bdLT3qFjf7uWfUSPtxCSTQmvu3TyonFx+7OUbdyIYjP3i6Q/kYkDT0qEZCl7GOiuw1jvj/2Xt/0DaytYH79xaaRio8jeYWo0LTSM00UiMVVmM1CkvEd7FhMd9iweJwN+YLMRu8mIQ3+OJg1mRJyCXZJWYvNhfMvcQs2FxWjdXIhdXIzTRWIxdWIzfjQmrGxfsVkv9LsaUZaSTr/CDgjHR0zpzznOd55plznlMwqkihGFElREgBrDLFHh8RJOxg409hBwcLYQedK3uTYbCDw8iw9dVABUdqtcbCK698j3PDTrYwqgASoWSs5VdCiUhjololiqXehKk6arMdDvcoVgE0Uo/vdE96hlU1G0rIGyB41y0PSJv7NkYDIpN2GCl5ViItjwvzxhKEJLjrJISO5sL5olLJ23oBqDdCKnEPi3GyQ9awAIX49BwpXQKq5LMtMrTDYPRzD6icNPpT6tXmtI5lo/vxPSsVG5n/CRBNtPDsxiaIhVo/Ltgpe5Ph0O0OzaMOcbKfu0aOMq7fvmuPnkD3AVQxjCsrKRwco45kw6YdLB41cgNoyTS6YlHeLwJQLhiYUojYZLSR2K9cZK9H7xeEHRR2cBgQdtB+2Zu4Zwd1Zlbe8vbtW96+fc54j1VP3xmyOThQwZGjUsOwS9E0k6G7l0Bls2UswBfN8HLi+oTw6rPMpQJAI5qc65ER7bTNXXNmsLVlUAOURwssPW59CLRfn2Dm5QKpHp2CdFbax6gBkk76ycQdXx6MNvdtjBgMmbTDaMlzgNTcDNducyzGbCaOD7AOc6wdtS/dyVw4Oyo18m5LOul08NbnqYV5kvd88ZzPFqgBcjROWAKO86y123o/EP3cOd7YDM8nWz9YeYIzTWcYykavcg50Jhu2xreeI1tovGvXUnM8Dl53KyfmMkTb+XV2yt5gGHS7k/OoIxzs5+5RSM5m0K/JZITZ2RgyYJWz1/WAg2PUkWxgzw6WjCMsQEsk0KhQODht3k4Bo+YjnmisEqiWepdvRNhBYQcHAWEHL3nwdtAzhhoKEw6HCYc1lJ7bkz4zZHNwoHKOVHa3KU7OE/WFyfzyLyZNE7MZwT8rbfDsfeH697eesZ34gylNJj7/gX+lDIyTOh45iK4HGgl/zDyfPxduV+ZSm+1wkl3kvf47CwmF6JNf+GOqTOmwQrUOXtmPqmkEZAk45suGY9Vep77HxmYa/UkYJTHPfxNzF29ZKK3x7evcta8PQpv7OUaDIJN2GCV5tqpV6toUK79FMYwKdY9MUNcJ+ACrzPZam7PYz+lkLlS2+LKf5qe4TDjzC/+KFTEqJpYUIKSHCMgWxr5BMK7fmUjyrJilYCYunIzDXPar33e7n7tCDpPMTJHM1KiWS5QrjdMtfIHGcntZAqq7bOZO7vypbuhYNmyOb+HzZ/L6TyRknSe//JOkYVCpe/CHooQVqFZNFKW1V2mn7DWGQbc7OI86xbF+7pbqMaaWZuX3CMbBEeZNmfx4W185NkYdyoYdO1g3DqmgowEcF9k6XwxzVmC/ZJGISkCNktG7PTXCDgo7OBAIOyjs4ANimPpqoIIjnOZYXoTMdJqYrqLICr5zWT5pHb3fWFzEnJtjOqEhh6MkLrbeWVSNLGvv1miRn8nVNtuhsPo9i8ZzZqcThGUNPa5d2xdnmWWM/e1bR5k5SWXnBYv1p2Qm4+gBGZ+vGeKUWoc6XW9zn8fIdZm0wwjJs1VaZ3krwfPZONHE5d5aq1pk8/0qW/fY9tTJXNh78x2+hV+ZSQSQw/FLuagdk/+4ysdqmt/i91hueGaQzVdJphWwDHK7dztGrs/BDrHKRfbLfnRNQdGiKNe2Ptc43t9i7eMWBz1afdWNbNga39M93i2CtTBHUpPRoonGw6FlYnx5xyYZVqbaOHZ2yt5gGHS7Y/OoUxzs526wypssb8ZZmE2gJwKX16tFNt+/a6uvnBqjTmWjaztYOaBsTqHJUDWuByEOCiWsqI5kHWEc9nBbqrCDwg4OAMIOCjv40BiWvvqfv/zlL//nbhOcQ4+N4/dKWHWTStng6GTwcjo4yVhQJ6z68UoWVv2USrnM0ckA7tW4wjC22Q6jJpN26JdsjC/9wU9RiVp+mW9XG853KDKO3wv1kxIHpd68hTnHMxZED6vIXqifVCgYX1mz3IaJpX8zH/VhFd/x1xtvMu5i2OagGoqg+mW8kkXdPKFw0Lvl9E7Iht3x9ao6enAMz9kpewWjb2Xt0m+5cmIedYub/QwQisSaMlnuSF+5NfeFHbw/wg7eH2EHe4Owg90zbHLlJoPcVw8qOCIQCAR30crwDxX+x7z97QlhqUZ++TtWC+JBwymGXjYEAoHgHgy9rhN2sGcMvWwIBDYZqISsAoFAIPg6E7NTjQR01TzZonAIBQKBQDBaCDsoEAh6xWDlHBEIBALBLSIzL0lrEl41RFjxATWKm5sYwicUCAQCwQgg7KBAIOgHIjgiEAgEA46qx4meJzazquyvr/ImN6hZfQUCgUAgcBZhBwUCQT8QOUcEAsFI4VV1NLmRFbtUGYzkT3cxFmwcn2fVTEpHIuV5rxhG2RAIBIJOGUZdJ+xgfxhG2RAInEQERwQCgUAgEAgEAoFAIBCMNCIhq0AgEAgEAoFAIBAIBIKRRgRHBAKBQCAQCAQCgUAgEIw0A5GQVVVVKpX+7h8MRiLINy+enXBg3N0OO2WdRlVVsGpUTkRSqkFBVVWoVamcjmYK9X7J5Kj381X8qooEQI1KZXB0gRgjgeB+NPSmSeWk8z3+7coOkq/yELAzRoJLhF0QPGQG/blM2IW7cT3nSOzlv3kV92Ht/8xf3+z1p1LvBCv/mUe/eb36J998/6l3ZR3GM77Ef36KItXyLH+3SkHYGdeJLfybVwkfVvFn/vq6T/I8QPRLJke9nwGCE8+Zm04QVqQrVw/5/P++YGcAbLIYo9HCG4wR07xwYpAzTtxuzlChTn7gt4wGx1/45ocNZ8oOkK/yELAzRoJLhF0QPGQG/rlM2IV7MRArR/pOPcfuF41y85nCoyV4pN+KozlfdsSJzCwxFQYzv8ZqdjgilMPYZsH9Gdbx9cYW+Pt8AhmwzGMqZh3LAihj9sgYD2tfCfqDPznDfDqAtf+zCI4MAsJXGSnc0s/CLggeEg9enoVduBejGRwBchtr5Jp/jz0OdSQcdso6ydlpmdKhF0+9PHjRyRYo4Si6DtXjLWA4lM4wttlNhEz2h1g6hgzUiu/49nXuzu87wbD2lUAwqgyKryLoPW7pZ2EXBA8Ju/I8DD6wsAt3M7LBkQeBscHiC7cbIRBcQchkH9AJ+Rth/6NCweW2CAQCgUAgEAiED/wweHCn1YyNjbndBEEPEeMreEh0Jc8eD1JzSaTV2EsjEAhcQNij/jBq/Txq9ztqiPEV9IJRk6te3u9ArRzxBieYeTJNQlfwAVgm5cI2a5+3MNokGByffEoiqqMFFRTfeWJCi9pxiULuC++3DvrU+v7w+OUHksqNi/UizxbvlyAsOD5LZiqBrslcpHG0alTLBsV8lk87zvWXN/aclWmt+T8Pstr4S0k850P4Rrb3w02efWr9Fjw48ZTMZBw9cNnm2rFBIbvJ+x3DsfY62WYAjzdEcnaW6UQYWQKwMMsFNt+9I3vUfr2dNzjO9HSamB5G8TUv1o4xCjusr2Up9ShRfnByifmEDOUvPHu/hzo+y+z0BNFAsxFWFSO/dasNdmVyfHaJ6Yko59XUjotk196R9WaYf6RAdZfF9+23jnTSz06Ob7d0I8/6zAqzUW/zf178zVWQoekPfEhfvccyX/73PXsOJGQd5bnQTb3nY2QZ6yxu1vtyv5HZt2R0iXL2C2biCWldRrJMjO1Vlrdg8tVC4xoWx/tr/PAme1H2Yr5Xszy7cv1Wm2JPWZoOI1mHbL7+RMHBPu+nPYLL/qoX11jO+5l5Mk1SVxp1W1UOC9usfdxpK1d2/Y3rus7CLBfZXb9c4tyrsnZwYw52289OzEE3+rmb+3XLlo2yXehWX3UzvnZ0+1X62VcX8+9wkxdfGfcL21PZ5tnq7Zllp82d+rFOyLNdHxhgLJRiejpFXNeacwGwahyXDij8+YWNvaNbZYbt+deu/YX+PQ8OTnBESfJqJYrug5pZpYqMIstoiQwrIY2ff1y95fB7J1b4KXOec9eiZlapWyDJCnJAJ5nRicXW+fbFVt9vp1coqoYWuHGxViHm4c79baGZD6xMaU1BNKlWa1hIyIqCEo7zSIOD7IFj++Q8soKqaUg3P/ApaL7rlyzTe/NbAESe/sqrR4Fmm2uYZh3Ox/fJCtHoR7573d6xd6PNAEhhMivzpDUJq2ZiWl5kn4SsJZhb8VD725uWD7D+iQVW5hIoTUehVjWpS14UOYCenGNF13m3uMpeD/Id+vwqmqaAJROZfMtCJsy1W5YU9OQkE9kspdLlZTsy+Xjl3zzRz6MiJtU6yIEoU69WUA3Q9QCMHbb/gQ772bHx7ZJu5dmrBNFuNhDwKYHrY2RZt49o65JRnQvd1ns+RlY9SmYl1Zf79aoamiahzs5D3cQ0LRRZRp9aYCUKmgrVqomsyATis6yk9lnMNiqvlKp4M1EU7TEzwSwbt30vAGLpJGFNwipuOxoY6bc9gsv+qlmTLKWihH0Nv8FERpEVwoknrAQ1ll+85+DGvdr1N67qOqtmYtY9yFqcqb9rhO/w6eyUtYMbc9BOP9udg270c7f365YtG1W70K2+6nZ87eh2t/qqXK7hn9LxqSkmNgrk2tiLVCqKpsBxsXzrM7tt7tSPdUKe7fjAAPrMW15OXbazISMSXlkmoCcI6DInB4tkr/TnMD7/2rG/0N/nwYEJjkhaFN00WF/8ma3mMpGxyAyvFqYIKwnm5ovs3Uo8WOPY+JPsdo6dQunaJ+r4UxbmH6GFM/w6U+SHdp7fkLH2wzesNf++ODLqPgXHUmTSGhIW5e1lnq1djyiqkRSplB8nF+mfZhf56xU5Ta38lzkdqn8u8v2nuz0Nb+wl848Cjch4/h0/rF4e+6bPrPBySkeOzvJh8pBnW86Mr902nyPpaVLVIp9/fMdOqSHP6vgCSz8lUHxxptNB9m7IpEd/ytJ8AgWoFtd5/24b47ShWb3BCeYW5kgEEszPG+wtOhcQuoWcYnY6wNnhn3zc3CF70EhK5Q+Nk0gnuGkeupXJ4MwHMroPMCl+Xub1TmMOe/wxZl8t8Ch696902s9OjW832JHnwuq3fLPa/I8nwsK//k7CB8V3/w+vc73J+jWKc8GJet24X6myzTfPGm+pJj/8l4wmo6mHrD97wVYFgjO/8o+pAKFYFLINO3pmfCJ//IipQIBEKsTGp9Kt38X/mFRIAmoUd7/+5tks7PDF8lMv3UMXu2CPruILRwmbRT7/uMpO8zWVPzLLq1dptECS+bkC363evN/u/Y1LXVdl/+Myb7KNzz3qOHMv50nq7XWdnbJ2cM8e2ffrupmDbvVzt/frli0bRbtgT1/Zk+dudDu401f1Qo6DWpyETyeZGCOXbRHd0p8SVQDKFHI9HN97+rFOyHPXz2WAf2LpIjBSLa7z8eM2ByeXPl1wfIbMxcqWqwzv82839rffz4MDlHOkxv7n5YvACMDpwQbLGwYW4IummVSvl6jn3vDD4qdbggFQ2fvEx+wxAIFYopcNHwo8YZ2gBFgGX9ZvL7WqHGRZe7PBwQBlV56YjDaOKi1vX5sIAMbGIh/3a4CElk4T8bjSxK9QZff98oXRB6jsrbK2XwMgoN86ZZz0TJIAYB2u8/3rrQujAFA/yrG6uk0ZkPRJZkM9bLoSQC595rsXny4MCsBJaY+t1TdstHiG6hhPhKlkI1pv7r67CIwAnJ0U+LS6SfleT0ad97NbDLc822F45oIz9fb/fqvGpSNhGNXzi2w1p+/RQQkTkPzXjWg2d4gFKPFUS5lTE0nCEmAWyN6xbOTUyLKxscFW4e4M/+7bI5P8x0vHDODkYI3l9UZ/yLE0j29sZ+7a37im6z5ePHQDnFX2eN8c25bYKWsTt+agM35dh3PQxX4eXT92eOyCHX1ld3y71e2u9NVZgfyBCUiEEvGWX9HH4zRiI3k2bpgKR9vcDz/WLp4I05koPqBmfOb711vXAiMAR3sbvP7h9bVVIzDseqNz+9tv/3lwgiO1A3ItnK/T/C6GBaARi3SWfKVsHFEDUFRiD+phwwaSF3kYTm0aSxHXJMCivLvd8iuFbAETQNaJhfvZuHtQLfDJuG0pD42mkpZVrpl+dYZEuPGGtrDV+n452iBfBlDQY2rr7zhCldz6Tg9/HwjHaJweVmU/12JfZGWL3ft4o532s1sMuzzbYVjmglP1unC/ddO8+Ns0m3b09Mq645rZsIU+mciVcie7OUoNb4RU9PaS4YmJxhuraj7bm0CFW/bILLJbvO1vnOSb/SGFiLboj6/R1t+4S9cdbZBvt3PQTlk7DJQ9us69/LpO56Bb/XwPHqwfOyx24So90Fd3jW9Xut3FviruFhvBmlCC1M1HNo/ORFwGLA5389c/c7zNffBjbeKJJok19U5+09nV4AOtNzq1vy74zwOzrYbKYeu9WfUc5eo80QAomgbcNlxjoXESMR1NlZElCZAapzl41cbSJkm6tRVg1Dg7NDiyEuhSmMzSS5SdHPlikdLJAC0VuUogSOO0UpNyqXV2ybNSiQpJZBQCqheMHmXh6oaT1k/29XqzjZLEVX3lDWk0VH2FclXG729VWqJuWoCEX1Hp5gz2e2EatAhGO8qYGmjkxrAqlNo4nUdlE8J3eCId9rNrDLs822FI5oJj9bpwv1dPLbr4++pJRmd1zgA8EpIHOFf7p1n+LM6gx31EUzEoXNm6GpolEQAok886qxBct0eVUutgz2mWY3MOXZFQNRVyt++7U3/jmq5rE/AtVVrrOjtl7TAI9siWX9fhHHSrn68ycn7skNgFcEZfdTu+3eh2V/vKyFE0kyTlEBMJP9mdy0COR58gKgNWiXz+etIQx9vcBz/WLmoo2MgzUitxcNid7RtKvdGp/XXBfx6Y4IhVN9t+dh4s9XpvDLFXZ+YiY/PXkEDi0iEcRU6zfF6P8fcnUeRAnPRcnDRg1apUjkoUd7fZaOEIuoXHKzcTS9Y5aScalolZA3zg9cvA4DxM3nnEqkeCKw8psnwuw2Ey//gnmTt+X/L28JHfrNDb7Bvg8zfnslWn3fCa9RrckV600352i2GXZzsMy1xwql437vfsrN1/zhvV/vcK2QJmPImsJ0mN5TjfJq6nGnu/rcPdW8ufbeOyPbJq7f2Nk3N/Q3bG37im69qMQ81srevslLWDq/bIAb+u0znoVj8DI+vHDotdAOzpK5vj241ud7Wvzgyy+1WSjxS0RAx2Lldv6Mnm1ohSnp0bz7iOt7kPfqxdZLmZgtWsdp54fIj1Rqf21w3/eWCCI1/jQh/ckIDUq5dM6T6wjilmd8jmDcrV2qWu0J/w208Jbp/xMJoc7bzmbwcxJh5PENfDBAMyPrqrjMYAACAASURBVJ+CpitoeoJk8jPfLQ7aMjTrXkn5BmJ1gB3O9YBV5dCo3DmtrXZnWzvBXU6LwAYjIs92cGsujFq9Tc4O3pOvJkkrOqmkn+zWCXgipBqv+DCy+Tt/oxvctEf303DXHY7u/Y27Z/NZW8/VTlkbuCiT7vh1LvUzwo+9Ny7ryW71lSvj63JflXIFqo/SKOEEk/4dtk4AT4xkpGlTbm6p6UWbh8GPlZp6pwvVMsx6oxv7e16yX/7zwARHJKn9EHovgvpXpktwhsfNky7yqy9YbZGvxIP33hmDR4V6pcDOpwLnKjwYe0x6cppk2IesZ1hJ5W8dB+YGZ1adOiDhRWm7JsyLtznAdbPWp5b1htp5uNQqsbm8OlCJcXvBxf1K3saZ7i3uV/YOolrvjlGTZzu4NRdGrd6rZPNl0lMa2kQKtjbwxlJEZKBWJFvonT1wyx5JUvuFxvK5v1pzxt+onS99lTxtlzffWhXrQFk7uCaTLvl1bvWz8GPvzyDoyY71lVvy7HZfldYoHKdJB8IkEipbWxU80QSRRuZRdlv0g+ttdoG6WQd8IMvocP+VLkOuNzq1v274z4OTkFUNtk6c6ImhNfeenZSv7F1TtUbG45pBvkViFwAtrN5LOM7Ol6ZIdJy80U7ZQeCosMP7F9/y5RhAIhjpfSbIe03YSqW53UJBVdvMBk1DlQBqnFR6uwWh10rmtHJMFcCnoik9rmwAOK0cN8ZXUgm1OqUMCGr9y9TYcyMyYPJsh4c6F0at3qtUsrscWkAgwdPQGLFkI4O+WchyxyE1jtIveySpbZSOZxy1OQbVyvHlZRv+Rr1y0kiMJ6lobXIIaoHWus5O2Zt04qu4JZNO+nWd4GQ/d0Iv7tetB6KHahe+xl36yi15HoS+yhYa+lNLxACITkSap7LssteiKwahzVfpxzyqlCuNlRCyRqSDnLiD8vzbLZ3aXzf858EJjshRxvXbi2E8egLdB1DFMK5ufG4urpG8rZfQeCOkEvebYVa1me3ZGyDY2YE4tsoOEpWTRn/2Mn1lrdaowyvfo6NOtmicWiYRSsZafiWUiDQUhFWiWOpNmLmjNtvhcI9iFUAj9XgYw2wdcljAMAEU4hOR25+rkyTb6E8n6dv4Dog82+HBz4VRq/cqJztkDQtQiE/PkdIloEo+2+Lkjj7Qc3ukRFoeBemNJQhJAMeUri3b7t7fOCsVGxn4CRBNtPCAxyaIhVq7sXbK3qQjX8U1mXTOr+sEJ/u5M5y7377pZ7fqHQQ92Yb2+sodeR6Evqrkco3jr7UEM6FxJnQfUOMgV2hdYADaDP2dR/Vi/uI01sRkCz+4LYPx/Ns1ndpfF/znwQmOoJCczaBfS/MeYXY21jzbOMvalXxHZ0elRp5iSSedDt76tdTCPMl7BvrPSvsYteZvPZnoqNV2yvYTb2yG55OthcoTnGk6w1A2epcE76jUCG5J0TSTobuXqGazZSzAF83wcuK6w+LVZ5lLBYDG281cj95udtrmrjkz2NoyqAHKowWWHrc+xN2vTzDzcoFU/05O7A1nB3zZbYyvnJxnKXVlDo9FmF2YRutD6L5v48tgyLMdHvxcGLV6b5DPFqgBcjROWAKO89dsrpO4b48CpOZmuCbGYzFmM3F8gHWYY+3o8iNb/kY9R7bQeO+lpeZ4HLzuzk7MZYi203V2yt6gI1/FJZl00q/rCAf7uROcvN9+2jJX6nVRT3arr1yT50GwKZWt5vHXGonn00R9gHlAvtjmwXUQ2kyf59Fpjs1sY4WEkpxnabJVxCBEauEp41eaMijPv93Tmf2F/vvPA5NzhOoxppZm5fcIxsERpkcmqOsEfIBVZvvjjbONK1t82U/zU1wmnPmFf8WKGBUTSwoQ0kMEZAtj3yAY1+9OSFPfY2Mzjf4kjJKY57+JuYvoIaU1vn2d603ZDkktvCWlXrHQXn9j2ZQvwuwvH5i++MCi/GWZ93tXIm9ymGRmimSmRrVcolxpZPb1BTT0kNbI+1DdZTN3/XgtJ6nsblOcnCfqC5P55V9MmiZms6/OShs8e389olzZesZ24g+mNJn4/Af+lTIwTup45CC6HmiMq5nn8+c2kWgX2myHk+wi7/XfWUgoRJ/8wh9TZUqHFap18Mp+VE0jIEvAMV82HKvWFnZk8mjjGevhf/NEl4nO/YM/ZqpUTZAVBR9l8vseEvFAT9vfz/EdBHm2wyjMhVGr9ypnxSwFM3HhVB3msr2pCFy3R1a1Sl2bYuW3KIZRoX7T31hz1t8ofP5MXv+JhKzz5Jd/kjQMKnUP/lCUsALVqomitPZm7ZS9Roe+iisy6aRf1yGO9XMnOHi//dTPbtXrmp7sVl+5KM+DYFPy+UOmw2GUQPPBtbj71VNZBqHNncqzrecyoLT2A5+1fzX84Mwv/JEqY5QrmGfglYOEQwFkyeDjx6uNHJDn3y7p2P7Sf/95YIIjVnmT5c04C7MJ9MTlA5FVLbL5/h1bLZbJ7L35Dt/Cr8wkAsjhOInz7X61Y/IfV/lYTfNb/H7Lsyo7L1isPyUzGUcPyPh8TWGX7n5dYKdsJ/iDYbSWz4o+FO3GFFCu122Vi+yX/eiagqJFUa5tWahxvL/F2sctDnr5xvo0x/IiZKbTxHQVRVbwnfsaJ60jtBuLi5hzc0wnNORw9HKMsagaWdberdHDfIFdtdkOhdXvWTSeMzudICxr6HHt2j5Ayyxj7G87f7Rml9iRSYCdxW8xZ5eYnogS8CkEfBZmeZ/1tY8UIn8nAb09gqzP4+u6PNthRObCqNV7wZlBNl8lmVbAMsjt9i5Q7rY9skrrLG8leD4bJ5q4rLzhb6w672+c7vFuEayFOZKajBZNoAFYJsaXd2ySYWWqzYO3nbI36NRXcUMmnfTrOsLBfu4Ex+63z/rZrXrdkEk7+so1ecZ9m3KSz1HKhGksrDEp5u5OOep2mzuVZ7s+MMDO4ndUZl6SScXRFI3oVQGzqhzu7pK9IVuD8vzbDd3YX+iv//w/f/nLX/7PmZ9yjlAkht8L9ZMyB6W7HTTPWBA9rCJ7oX5SoWAc3VlmlFFDEVS/jFeyqJsnFA56t5XGSfTYOH6vhFU3qZQNjk4GLy+Dk4wFdcKqH69kYdVPqZTLHJ0M4H6LHhF6+ju/PFLA+Mg3iz18i+0SoybPdnBrLoxavRNL/2Y+6sMqvuOvPXhj1Ip+2qPxpT/4KSpRyy/z7WrjDVMoMt70N0p98Te8qo4eHMNzdspe4d7nE9gua5d+y6Sbfp0b/Sz82M5xQ092q6/cHt9h9CeHsc128YciaOfydXJEwfh6FMhtueoEJ+zvOb32nwcyOCIQCASP3/7Bk7BE9c8f+f7TcATwBIKhxf+Yt789ISzVyC9/x+rX1j8PKa2cM4FAIBAIBL1lmOzvACVkFQgEo4YeuZ1MCmAs9px0uHFiRiEnAiMCQa+ZmJ1qJGKt5sm2S5onEAgEAoFA8IAZmJwjAoFgxPDESC28YunsmJJhcFiuYFoyqh4lHteQgeruWs9OzBAIRp3IzEvSmoRXDRFWGkctFjc3MURsRCAQCAQCwQgigiMCgcAdzuqYZg0pEEBPBNATVz6zTIzsRxbXBnvpnUAwzKh6nOh5UjOryv76Km9yg5oRWCAQCAQCgaC3iJwjAoHAVTxjQcKawpgs45OgZpbZK4jlIgJBrxkLNo7Ps2ompaMBOQKrh3hVHU1unHhQqjzsxH4CgUAgEAwKw2R/RXBEIBAIBAKBQCAQCAQCwUgjErIKBAKBQCAQCAQCgUAgGGlEcEQgEAgEAoFAIBAIBALBSPPgErKqqgpWjcpJf5PKuVWvQCAYLBq6wKRy0vmeynZlg5EI8s0vn51wYDz8PBHdoKoq1KpUTsWxKwLnUFWVSmW459xD8FXs6FhBex6CbDw0RsmWCT9nOHgIdvAuHlTOEc/4Ev/5KYpUy7P83SqFPukSt+oVCHqBNxgjpnnhxCBnnLjdnKFCnfzAbxkNjr/wzQ8bzpT1TrDyn3n0mwWqf/LN959st3mQ8KgREqFb7tGdWJUie6WGQx9b+DevEj6s4s/89fWe000UjCixl//mVdyHtf8zf30znHL1EHwVOzr2vgRjj0nGdFRZwqpXqRT32MgZPalrUHgIsjFICFvWISPk5wwzD8EO3ocHt3KkGyIzS0yFwcyvsZp92NEwgeAu/MkZ5tMBrP2fRXBkEKjn2P2iUZYa//VoCR7pnTtdw4AcmWb+SfjuL96glv9f9lYPetAigcBZhL8xwHh1ZpZeMhX2Xb+eeER6Ms+716vsCZPoGA95Lghb1iEj5OcIBn/uP6jgyNlpmdKhF0+93FHUWwlH0XWoHm8BnQ9St/UKBALBfchtrJFr/j32OPRgnQbLLGMcgufGda8aJuADLJNyuYp14/N6WSyvFwwHdv0NOwhf5eukFs4DIybGn9vsGlUkLcHjdJxAIMH8ksnpszWMB9h3bsiGm3Oh1whb1jmj4ucIBn/uP6jgCMYGiy9GqF6BQCB4QJzufWKxxUrN8aU/+CkqgZnn2Yu1/jdMIHgICF+lLZ7IAtNRH1DD+PwjizvNJSJ7e+SN53z4exIlkGImneXF1uA587YRsuEowpYJBMOLOK1mABgbG3O7CR0zjG0WCNoh5FkgGE2Gce4PY5sHnViqmQyymr8MjDSpH7xny7AAifDEhBvNuzdCNgSCBmIu3J9h7KtetnlgVo4Ex2fJTCXQNRnp/KJVo1o2KOazfNppvQfv8csPJJUbF+tFni22T9TljT1nZVpr/s+DrDb+UhLP+RC+saTtcJNnnwqO1HuV4MRTMpNx9MDl/daODQrZTd7vtE78pc+sMBv1YhnrLG7WSc7OMp0II0sAFma5wOa7d2SPnF8TOT75lERURwsqKL7zFlvUjksUcl94v/X1PZLdjq9dvMFxpqfTxPQwyvk24toxRmGH9bUspRYrGJ3o507rjcy+JaNLlLNfMBNPSOsykmVibK+yvAWTrxYa17A43l/jhzfZi7LBySXmEzJUszy7cv1Wm2JPWZoOI1mHbL7+RMHB1Zv9Ht/z/qoX11jO+5l5Mk1SVxp1W1UOC9usfdxpOb5gX57HZ5eYnog2lsdiYZaL7K5fLgntVVk7dDMXhh2PN9SX+esUQl9daVMv9VUX9vda24ITzDyZJqErNKaxSbmwzdrnLYwbB3044W/Y0Vfd+ipuyNW1e+6nnvREiOuNBprF1kkG9/Ml5nQdAlEm/RtsOZR7xK4tg+7lud+y4cRcAPf8STcZFlvmhDx3Szd60il7ZKefL9pQ/sKz93uo47PMTk8QDTR/yKpi5LccH69RsoOdMhDBkdDMB1amtObkMalWa1hIyIqCEo7zSIOD7EHLfZCKqqEFblysVYh5aLtv0iMrqJp2qVTP8SloN/JwWaa35W90U+85kae/8upRoHm/NUyzDrKCHNBJPlkhGv3Id69vT1KvEkTTfFj1KJmVFGlNwqqZmJYX2SchawnmVjzU/vaGPQdPYvNOrPBT5jyHtEXNrFK3QDpvc0YnFlvn2xdbLcvbGV87+CcWWJlLoDQNSa1qUpe8KHIAPTnHiq7zbvF2gjW7/dxNvV5VQ9Mk1Nl5qJuYpoUiy+hTC6xEQVOhWjWRFZlAfJaV1D6L2UbllVIVbyaKoj1mJphl46h1f8TSScKahFXcdvRBw43xPe+vmjXJUipK2NeQSxMZRVYIJ56wEtRYfvGeg5tGzKY8P175N0+ajrRVMzHrHmQtztTfNcJ32BM7Ze3Q7VwYaqQwmZX5vsxfJxD66jq90lfd2t8LlCSvVqLoPqiZVarIKLKMlsiwEtL4+cfVa/1s19+wq6+69VXckKtz+q4nFQ21GYQpl8otv3JaPqaKjoKfkOaBE2cMmh1bBvbkud+y4YTv7ZY/6SpDZMvsynPX9XapJ52wR3b72edX0TQFLJnI5FsWMmGuTQdJQU9OMpHNUip13jetGDU72CnuB0fGUmTSGhIW5e1lnq1dj/yokRSplP9W0qJz1n74hvNdexdHkd1R5Wl2kb9eGfPUyn+Z06H65yLff7qf5e2mXgBv7CXzjwKNN2r5d/ywevmWQp9Z4eWUjhyd5cPkIc+2Ws9SSU+Tqhb5/OM7dppHfqnjCyz9lEDxxZlOB9lrN8O7osax8SfZ7Rw7heszUx1/ysL8I7Rwhl9nivxws16b49stHv0pS/MJFKBaXOf9u22M5jnx3uAEcwtzJAIJ5ucN9hZbK4Bu+tluvVJlm2+eNd7aTH74LxlNRlMPWX/2gq0KBGd+5R9TAUKxKGQb79DOjE/kjx8xFQiQSIXY+NRCe/ofkwpJQI3ibuu3MeeYhR2+WH7qpXvIkEvje44vHCVsFvn84yo7zZC6PzLLq1dptECS+bkC363evN/u5Tk484GM7gOq7H9c5k228blHHWfu5TxJvb0WsFPWDk7MhWHEjfnbLUJf3aADfdUJjthfLYpuGqwv/sxW8/XYWGSGVwtThJUEc/NF9l5frm+w72/YsL9076tc3G+f5coVPelXG1tqqGOetHliq1YwAQUfsl8GnI2OdmPL7Mpzv2XD9lxw2d9wi2GyZed055vZoTs9adceOdrPcorZ6QBnh3/ycXOH7EEjt5E/NE4inaB1uLBzRtEOdorrOUc8YZ2gBFgGX9ZvL4mpHGRZe7PBwQOJAk9MRpEBq7x9TSABjI1FPu7XAAktnSZyM831BVV23y9fKEmAyt4qa/s1AAL6rZPCbVHPveGHxU+3BLJR7yc+Zo8b9cYStz53a3zTM0kCgHW4zvevty6UFUD9KMfq6jZlQNInmQ21+5XO+9luvVXjUvEaRvX8Iuf5344OSpiA5FevlcvmDrEAJZ5qKTdqIklYAswC2Ttew54aWTY2Ntgq3J10zv35a5L/eGl8AU4O1lheb/SHHEvz+Ma2xK7l2RNhKtmIfJu7Hy+cdoCzyh7vm2PbEjtlbeLMXBhG+j9/u0Xoq+t0oq86wRn7W2P/8/KFQwhwerDB8oaBBfiiaSbVdmU7x479dYY+ypVLetLjlZsPHjXqjdsi+PglH37/lZXZSLPhdc4l0Ss79Zhylc5tmTPybIf++qLu+xtuMTy27JLO5dkOdvSkHXvkaD8rAeTSZ7578ekiMAJwUtpja/UNGw6tGhF28G5cD45cIHmRH/qpTWMp4poEWJR3t1t+pZAtYALIOrF2R6RXC3xqcZbcodGcTLKKsybp65SNI2oAikqs3UTq5/iqMyTCjShvYat1P3O0Qb4MoKDH2szgTvvZgXrrpnnxt2k2lfDplTdUNbPR1z6ZyJVyJ7s5Sg2LQyp623GbmGjs9avms71xHNyav2aR3eLth6eTfLM/pBDRFv3xNdrKczhG42S5Kvu5FnsbjzbIH7b5UTtl7eDUXBhGXJi/XSH01a3f7Ym+csr+1g7ItQjYnOZ3MSwAjVikf8nt7mV/7dBPuXJLT0o0V0ycYZ0B3gkymTiaEkBPzzIbBLCwmksSJKkHq1c6tWVOybMd3PJFR+F54SrDYsuu0gPfzA5f05Nd2yPH+7lKbn3nPrfTPcIO3gvXt9WcHRocWQl0KUxm6SXKTo58sUjJof2cA0UgiF8CMCmXWmwQBM5KJSokkVEIqF4wWrw1O2n97qReb35Xkm6dre4EY6FxEjEdTZWRJQmQkCTAqzYcC0m6tezLjfH1hjQaKqhCuSrj97f6lkTdbGSf9ysqLc/Z7rCfnajXsqzbf1+5xlmdMwCPhOQBzrvxNMufxRn0uI9oKgaFK2nrQrMkAgBl8lmHQs/nzXF7/lZKrR+eTrMcm3PoioSqqZC7fd+dyvOYGmgsvbYqtNmWTqliQvi212anrB0cmwvDiAvztxuEvuqTvnLK/lYOW+czqOcoV+eJBkDRNMDZpJDd2F9H6KNcuaUnL/GAB7BOqDb20EDthLJ53uoe0qktc0qe7dBnX9R1f8MthsSWXcOGb2aHrvRkl/bI8X42DVosjHAWYQfvhevBEU6zfF6P8fcnUeRAnPRcnDRg1apUjkoUd7fZcHjyuIXHK1/saz0x23zJMjFrgA+8fhm4LZRXHdLWFUkNA++UvfDqzFycPvA1mq9frtbrwvjK8nk7w2T+8U8yd3xf8rY23532sxP1np21+895o9r/XiFbwIwnkfUkqbEczfyH6KnGfkjrcJcNp597XZ6/Vq3dRILzreO3lkB3Kc8+f/N3rDpmm3GomTXgtuNup6wdnJoLw4gb87cbhL7qj75yzP7W2+uc88UzXq+DYQo79tcB+ilXbulJ6haNx5emo31m8OnHHzHiKnUjz8Ep4L1YXoJlOX/URqe2zCl5tkPffdERel64yrDYsqt05ZvZwaae7MYeOd7PZoUe5uUHhB28L+4HR4Cjndf87SDGxOMJ4nqYYEDG51PQdAVNT5BMfua7xR4vNeor1r0SRg3KY0rq1UumdB9YxxSzO2TzBuVq7fIe9Cf89lMCX5vyfR/f8/loVTk0Kne6A9bNM6eGrd4mZwfvyVeTpBWdVNJPdusEPBFSURmwMLJ5R+s7x835e7/Ea9dVaffyfPeMPGurke2UtYHLMjlUjJreGFF91Uv7exEfcnCJgV3723dsyZU7evKsbjaTrXqRvc2nzNMSe1ffFMvyRUjmtO1TRfd0Y8vOSw6TP2mX0Xte6IIBsPvdy3N32NWTXdkjp/v5riCYowg7+DUGIjgCUK8U2PlU4FylBWOPSU9Okwz7kPUMK6n8xVGAw8qZ1UjoJeFFaRtQ8+JtClTdrPWpZV8hOMNj3QeY5FdfsNpij5kH751zoJ/jWzsPS1slNpdX+5acy616r5LNl0lPaWgTKdjawBtLEZGBWpFsoXfzx635K0ntI9NyU6uf1a7IrA15rp2HwyVP22V77SLldsraYRBkclgYNb0xCLLRT33llP2VpPbul/di4YNDb+gdsr/9xI5cuaUnOb48icavemksFbmO5+JEG5NqxfmVI53asqH0Jx1iFJ4X7DAIur1j38wODunJTu3RIPRzpwg7eD8GJyHrDY4KO7x/8S1fjgEkgpFeZJO6Ts8djErDAIOCqraRSk1DlQBqnPTAAHeKR9VQAGoG+RbJlQC0sNpx3/VyfE8rx1QBfCqa4tjPDmy9V6lkdzm0gECCp6ExYskoPsAsZG+dzd5L+jV/JVVr/YFnHLU5BtXK8eVlG/Jcr5w0Ej5JKlqbvFpaoPVybztlb3J2HpaXuDPZ3SDI5LAwanpjEGSjr/rKKfurBlvPO08Mrbnn/KR89zGv97GZvbK/vcSOXDmpJzvidIdS87AlVW9tqxQ91MyHUsbowZE5ndqyYfQn22FXft14XhhkBkG3dyzPN+jEz3FKT3ZqjwahnztG2MF7MbDBkXMqJ41FM71JMdqgVmvU4ZV7nFn3ZIvGaYcSoWSs5VdCiUhDCKwSxdIghCHP07N7W4+AN0Iq0b1W6Mn4Hu5RrAJopB738dwet+q9yskOWcMCFOLTc6R0CaiSzzqbFOm+9Hz+KpGWx6N5YwlCEsAxpWtLGbuX57NSsZHRnADRRAvPfWyCWKi1erZT9iZWtXkCiDdA8C6V5ahM6sysvOXt27e8ffuc8f4lIu8Po6Y3Rk1fOWV/5Sjj+m3t4dET6D6AKobRPllKZ/5Gb+1vT7AhV07qyU4pNBqNT08x3uKZIRULAGCVCuR6EWfo1JYNpT95Had97/v7G8KW9ZyOfbPrdOTnOKUnO7VHg9DPnSLs4L1wPTjijc3wfLL1AHmCM03hhLLRuyRLR6XGAErRNJOh3h4tlc2Wm2dAZ3g5cd34e/VZ5lINA2wWsr0xwB1ydlRq5FaWdNLp4K3PUwvzJL/yIseV8T0z2NoyqAHKowWWHrc+XNyvTzDzcoGUU6eYuVXvDfLZAjVAjsYbZ7Mf51nr0fRxf/4GSM3NcG3ajsWYzcTxAdZhjrWjy49syXM9R7bQiLlrqTkeB6+r6Ym5DNF2frudsjc4K+1j1Jr38GTiji87KJOeMdRQmHA4TDisoQzS62onGDW9MYL6yhn7q5CczaBf0zkRZmdjyIBVzn61/Z34G3btryvYkSsH9WSnGDtZyg3h4Mnz8WufhWY+0BANk8KXXuXC6cyWwfD5kzfp1Pd2zN8QtgzotW7vXJ6v0omf46Se7MgeDUQ/d46wg3fjfs4ROUwyM0UyU6NaLlGuNLLk+gIaekhDloDqLpu528tzUgtvSalXtJrX31hW44sw+8sHpi8+sCh/Web9XusoZWV3m+LkPFFfmMwv/2LSNDGbUa2z0gbP3hccq7ey9YztxB9MaTLx+Q/8K2VgnNTxyEF0PdBIJmPm+fz5ep2uUdniy36an+Iy4cwv/CtWxKiYWFKAkB4iIFsY+wbBuN46EY6N8bXDSXaR9/rvLCQUok9+4Y+pMqXDCtU6eGU/qqYRkCXgmC8bw1/vVc6KWQpm4kJZHOayvakIXBvfc6xqlbo2xcpvUQyjQt0jE9R1Aj7AKrO9duMcd5vyXPj8mbz+EwlZ58kv/yRpGFTqHvyhKGEFqlUTRWmtpe2UvUZ9j43NNPqTMEpinv8m5i6i8JTW+PZ17trXB0Emh4VR0xuDIBv91FeO2N/qMaaWZuX3CMbBEeZNnfNxu31ZOvQ3bOorp3ykTrEjV47pyU6pbPFuM8YvmTBy/Cf++D2NUa4jqSH0QKN3q/mPrB70JsrQsS3Dnjy7JRvX2t+h7+22vzFMuK3bu5Hna3Ti59h9TrlCp/bI7X7uhlGzg93genDEKhfZL/vRNQVFi6Jc26ZW43h/i7WPW7SyR/5gGC3Q6ld9KNqNLvpaaPg0x/IiZKbTxHQVRVbwndvek9sRLbv1biwuYs7NMZ3QkMNREhfbIy2qRpa1d2v0MHdmx+y9+Q7fwq/MJALI4fhle2vH5D+u8rGa5rd46yVldsbXLoXV71k0njM7nSAsa+hx7doeOcssQ7CFwgAAHa5JREFUY+xvO368rVv1XnBmkM1XSaYVsAxyu71zFNwcXwCrtM7yVoLns3GiicvKrWqRzferbLVYEmhHnjnd490iWAtzJDUZLZpAA7BMjC/v2CTDylQbx91O2RtUdl6wWH9KZjKOHpDx+Zp6Rmqt51yXySFi1PSG67LRR30F9u2vVd5keTPOwmwCPXHpCDR0zruWOucaHfobdvSVYz5SF3QtVw7qyU452nrBovWS59NxAkqY6PlKbcvkcPcjLz717qVVN7YMupdnN2Xjgg7ngtv+xrDhpm7vVp6v0omfY8uvu0oX9sh1G9oFo2QHu+F//vKXv/yfY79mEzUUQfXLeCWLunlC4eDhnVd+Ez02jt8rYdVNKmWDo5PB2xd6jmcsiB5Wkb1QP6lQML6yJq4Fbo7vWFAnrPrxShZW/ZRKuczRSe8tqFv1Tiz9m/moD6v4jr/eWEnQK/o5vuNLf/BTVKKWX+bb1YbDGoqM4/dC/aTEQelug2ZXnr2qjh4cw3N2yl6hs9Pp7ZS1i1syOYyMmt4YJX0F9u1vKBJr6pzyvXSOHezqKzfpVq7c1JPBSAy10dk9rdsJW3bOMPmTdhnF5wU79Eu3OynP3eCEnrRjj4bRvxJ28DYDFRwRCAQO4H/M29+eEJZq5Je/Y7Xw8BykVgZYIBAMISOgrwSCdghbJnhIDL08C3skYAASsgoEAmeZmJ1qJJKq5skWhWIXCASDi9BXAoFAIBgEhD0SwADkHBEIBPaJzLwkrUl41RBhxQfUKG5uYgjdLhAIBgyhrwQCgUAwCAh7JLiJCI4IBA8AVY8TPU9QZFXZX1/lTW6AsvoKBAJBE6GvBAKBQDAICHskuInIOSIQPADGgo0jtKyaSelogFJi9wivqqPJjSzgpcpgJ7sSCATXGTV9JRC0Q9gywUNiGOVZ2CPBTURwRCAQCAQCgUAgEAgEAsFIIxKyCgQCgUAgEAgEAoFAIBhpRHBEIBAIBAKBQCAQCAQCwUgzkAlZVVUFq0blZHgT4jTuwaRyMhx77oaFhyAbAkGnBCMR5JsXz044MJzZHyv0lWCYUFUValUqpw//OIFez32BoB127EK7skKeBQLBoDNwOUc840v856coUi3P8nerFIbQ91EnP/BbRoPjL3zzw0ZP6gjGHpOM6aiyhFWvUinusZEzelLXoPAQZGPg8OtM6H6gTi5XaPs1fWICP1AvFygciQfovuKdYOU/8+g3r1f/5JvvP9n++X7oK4HAKWIL/+ZVwodV/Jm/vt5zuzm9pcdz/6HjDcaIaV44McgZJ243Z6iwYxfalh0QeY6kJomGNPyyF8mqU60U2cvmMU6EUykQCAZ05YjgK3h1ZpZeMhX2Xb+eeER6Ms+716vsCR/AMSIzS0yFwcyvsZp9eG82PKHHzM3HkaiiVQqslVp9aYLJ+XmiwPGX/4/C0VG/mzna1HPsftEoS43/erQEj/Rb794EgqHkoetYW4i5bwt/cob5dABr/2cRHBkEXJbn8adveZIMI0s3P0nwKJ2huP6/vN4R/o1AMOoMXHDk7LRM6dCLp14WKwNakFo4D4yYGH9us2tUkbQEj9NxAoEE80smp8/WMB5g37khG0o4iq5D9XgLEI67wB1yG2vkmn+PPQ6JByTBg0Ho2K8j5r7gIeGaPHvGST4KI1Pj2DjgoGhQNsGrRUhOxNF8MtEnf+d55W+8PxCrYwWCUWbggiMYGyy+cLsRg4knssB01AfUMD7/yOJO803I3h554zkf/p5ECaSYSWd5sfUAnUwhGwKBQCAQCASCjjijWtzm57V19ipX3q7lsmSzk6x8yBCWZBKpCO8PHvh2PYFA8FXEaTVDRCzVTGRVzV8GRprUD96zZViARHhiwo3m3ZuxsTG3myDoIaM2vqN2v24xav08avcr6A9Crh42YnzbcFbg0+u164GR848qW+SaW4olRelzwwQCwaAxECtHHr/8QPKmPqoXebb49SRQ+swKs1EvlrHO4mad5Ows04nz/YQWZrnA5rt3ZI/a78HwBseZnk4T08Mo52k8ascYhR3W17KUvrK6bnx2iemJKAHfeX1Fdtcvlww6iidCXG800Cy2jmrv50vM6ToEokz6N9hyaIttZPYtGV2iXlxjOe9n5sk0SV2h0c1VDgvbrH3c+WpfBSeekpmMowdkzrd71o4NCtlN3u+0TyTbb9nwxp6zMq01/+dBVht/KYnnfAjfuMHDTZ59ap3ENDg+S2Yqga5d3i9WjWrZoJjP8mnn4KvtHzY6Gd/JlQ8kvBbG+iJrB/fYH6WmeLmQQqHMl/99z16XBxU5WW838hyaWWFW93BW2mBx7fZ3PJFZVqZDUC/w4vVWF3f4dfqpr4KTS8wnZKhmefYm2/Z73thTlqbDSNYhm68/UbgxxYaln891ZDn7BTPxhLQuI1kmxvYqy1sw+WqhcQ2L4/01fmjTJ53e74WeO9zkRRtdBFfGo7LNs9XbI27HDnaKUzoWwOMN9d3ud4MTNrRbxiefkojqaEEFxXcuVRa14xKF3Bfeb922RU7NXzv9fNGG8heevd9DHZ9ldnqCaKD5Q1YVI7/l+Hj123bblY1uxvdaeRt2oa8+8BV6MX/VZkzJMk3H2ikQCIaTgQiOKKqGFrhxsVYh5uGruSW8ShBN82HVo2RWUqQ1CatmYlpeZJ+ErCWYW/FQ+9ublg9U/okFVuYSKE2nqlY1qUteFDmAnpxjRdd5t9g6wenjlX/zpBmssGomZt2DrMWZ+rtGuBeHxigaatMAlUvlll85LR9TRUfBT0jzgEOZt72qhqZJ1KxJllJRwj6LmlnFREaRFcKJJ6wENZZfvKfVVs3I01959SjQNPY1TLMOsoIc0Ek+WSEa/ch3r1s7YP2WDY+soGoat/J1+RS0GzlwLdPbsu7QzAdWppq/YZlUqzUsJGRFQQnHeaTBQfbgweTU6XR866homoQ3qrF20CoD7HW8oRhRTUOqHnYdGHGy3m7lWVaChMM+rHqbN3uySjgchtoJEQ/cJ35zX/qtryqlKt5MFEV7zEwwy0abHHexdJKwJmEVt289WA1TP5/rSHV2HuompmmhyDL61AIrUdBUqFZNZEUmEJ9lJbXPYva6MHdzv+VyDf+Ujk9NMbFRINfmoSCViqIpcFy8bTvs2MFucELHAiCFyazM99Xud4tdG9p1vRMr/JQ5PxukUWfdAulcrjI6sdg63764HiR0Yv7a7WefX0XTFLBkIpNvWciEuSYekoKenGQim6V0tzq/F27Ybjuy0e34nmPHLvTdB27Si/mrPl5hIgBgUtxtH4wVCASjwUAER9Z++Ia15t8Xx7V2UF7S06SqRT7/+I6dUsMbUscXWPopgeKLM50OsnfDunv0pyzNJ1CAanGd9++2MU4bFs8bnGBuYY5EIMH8vMHe4nWHNDjzgYzuA6rsf1zmTbbx2x51nLmX8yT1Tlp/T/xq82z4Oma7M+erFUxAwYfslwFns7P7wlHCZpHPP66y0wzN+yOzvHqVRgskmZ8r8N3qdcPijb1k/lGg8cY0/44fVi9XvegzK7yc0pGjs3yYPOTZ1m0PrN+ycZpd5K9Xhju18l/mdKj+ucj3n+5h8cdSZNIaEhbl7WWerV1/a6NGUqRSfqwO7mGQ6WZ8jcMK6BqKpgF3e7Wa3nBWa2V7HpcT9dqVZzdwQ1+dGZ/IHz9iKhAgkQqx8alFf/sfkwpJQO2WQzqM/QwgVbb55lljVdvkh/+S0WQ09ZD1Zy/YqkBw5lf+MRUgFItC9vL9arf3Wy/kOKjFSfh0kokxctkW0QD9KVEFoEwh55wd7BbbOrZJv+2+E3RjQ+1R49j4k+x2jp3C9Tmojj9lYf4RWjjDrzNFfrjSV3bnr6P9LKeYnQ5wdvgnHzd3yB408qn5Q+Mk0gm+Ej7DLOzwxfJTL91DR7hsu7uTje7GF+zZBVd8YHozf9XUEitPdHxAdfcjb/ZEMlaBYNR5IDlHquy+X75wkAAqe6us7dcACOi3TlUnPZMkAFiH63z/eutCwQLUj3Ksrm5TBiR9ktnQlYKeCFPJxkOTufvxwigAnFX2eN8s5zQer9x0AmrUG7dF8PFLPvz+KyuzkWbD65yrda/8NZehW0zyHy8NN8DJwRrL64dYgBxL8/jGy9qJySgyYJW3rzn8AMbGIh/3a4CElk4T8fSgyV3Ihh08YZ2gBFgGX9ZvL2etHGRZe7Ph6KoAZ1CYePU7v//e4t9vGdr1UjfjWzkoYwIEdWL3GPOQ1ggLVgx7wREn6nVfnjvEJX0FkM019IIST7XsCzWRJCwBZoHsjdfOQ9fPTarG5cOLYVTPL3KeH/vooIQJSH71Wrmu7/esQP7ABCRCiXjLNunjcRqxkTwbN/J0d20HB4I+2n3H6NyG2qGee8MPi59uPTgDVPY+8TF7DEAglrj1uZ3562g/KwHk0me+e/HpIjACcFLaY2v1DRtfiXOfGlk2NjbYKtydoN592925bHQ9vnbsgos2xen5q04ssTLX0L3V/M98/16sGhEIBA8lOFIt8KnF2bWHRtMgyur1hzt1hkS48cajsLXd+jePNsiXART02BVHNhyjcfJYlf1ci72cRxvkD7u5iTuQaK6YOMM6A7wTZDJxNCWAnp5lNghgYTVfa0hSDyL3ZpHd4u2o+kk+R8kCpBDR6JWgzFiKuCYBFuXd1v1cyBYaD6yyTizsfJM7lg2nkLzIQ3biok9WUJRW/+TWq3W6Hd9ykbIF+IKErkwtf2qBt2/fsjJzZUS84+gqwDElw8aeGifqHQR57hS39BVwstvUC3KMVPR2sHZiopF3oprPXn/gGMZ+blK/sl/dNJu68vTKCr6aSQ3AJxM5v2bzfou7xUbAJZQgdfPB2qMzEZcBi8Pd/PXP7NjBQaCfdt8pOrWhPaZsHDXkUVFvBYy7nr+O93OV3PrOfW7HGdyy3T2Qjbbja8cuuGVTHJYrT2iWl1cDI6vihBqBQNBgILbV2OakdZy6Xm8aGkniql3whjQaarNCuSrj97cqLVE3G6e/+BUVaDhcY2qgsb3FqtAm9QelignhXllXD3gA64RqYw8N1E4om+et7iGVUuu3JqdZjs05dEVC1VQu0n4HgvglAJNyqfWD7VmpRIUkMgoB1QuGw0saO5QNu5wdGhxZCXQpTGbpJcpOjnyxSMmh/C+9w2T/8zuyrV6wSVEyr9JoN693O771PYzKT0Q1hXDYC0eNsYhNJAiHAXkcfcPAANB0VAmoHVG0ezq13XoHQZ47xFV9dZrlz+IMetxHNBWDwpU0faFZEgGAMvnsjbeeQ9jP51iWdfvvK9c4q3MG4JGQPMAZtu/3zMhRNJMk5RATCT/ZKyeZefQJojJglcjnr2+ztGMHB4I+2n3H6NSGOsRYaJxETEdTZWRJAiQkCfCqDZ9Bkm5vT+ly/jrez6ZBi4URjuO67bYhG52Orx274JZNcVquEtMpAhJY5XURGBEIBNd4EMGRqw5pSzxSI6DQNDyyfP4mPEzmH/8kc8fvS95LF8vnb5oYq47ZptqaWQMcftioWzRUftPonRl8+vFHjLhK3chzcAp4L5aXYFnOPyxYtfZZvM/ToFzdzuPxyhd5Uk7aFbVMzBrg+//bu3/QNtK8gePft5C2kApPo9lCWtDAIjXTeBqpiBqr0RIiOGxYDIsNLzEvZzhiCAkmB8ceORaMQ8JC7kLChoQ9wkHEQsyCGruRC6uRm2msRoJYjdTIhVTsqHivGNnxH9nyaEaWZP0+XWJJM888zzO/mWfm+T0QCCmAt/vttG24dpTn9bsEf18xUCJJsqtJsoDVqlOrliltf+K9xxe+3rBolPfpmafUp5Dt9d8u6tc8qIOmEtVjkN+HwByGBq1Wi6Cqk4iCWYVQVEMFrGrJk9eZ3Wx3HNqzUyM7X3UV80WayTSKniYzs8NxSgw9Y88btw62L0z1mMTjfKzTuewfXT3qwHV5Oyb5vTrp71S0VAK2vjxl19Pd6TrlAlvnxl3cxMFxcJNx3ytOY6hrAZ2lk5WSrtK9djjXZAfpv54f52aNIeb3/GLEsXugtjFg/bqJC6OKKd62K51Y2P61WkGm0gghzroVgyOOHccXq86BWet7WW2deZ2//wVTx7M77VO/2W52k60GUALdK76jMrunn9ooykk4Orr0Kntw10tE1itEW9f67nhdeg+uuvU3/m8/wdy9OZJ6nGhEIRhU0XQVTU+RTr/mh/UbfE146JzXb2W/Qus7lWBUB/bx6QYxf4v9d3nCKwvoRhiqNWK6/b5K7cCbi1JvtjtJ7Xk056uT395/QaGeJqvqZNIh8rkG+GbJ2K8zYOYLV3x7ko6zFwYvb3mnSP27LGo8xXxoy17G3ZcgPds9zuen1IDLODiBxqC8g8fQwWT++oQFPQjWIaX8FvmCSaXe+rIf+gqvHqcIXvL9gfqv18e53yCYh0YZuwdpG4PXr5u4MKKY4mW78vkInjxIbHmxd0KIW2QqB0dax8PwVpkPTzccPZFuHc8j9/suzZIeCAxhzvDhl5VoQuEA9qsiZ/lOVrRpUq95/yTV77+8XEo3XnZap173tuwEsX4CqJd+NUCgG6TazdsTpNq1Ilv/LHJ8GRVN3CM7v0g6HkTRl/kpU7iwlOekcVO/nQOTGkniqsZcwEcjoRNsmeztFNAyC2QNnZlPAeKaH2hS2ffm9XY32x12ex5GnqCRna9OyRcqZBc0tLkM5N4TSGSYVYBWiXzxYh+YxOPshiflLb+heJglG4mTSoXJ5Wr4jBSzQaBlsn1+nVXcxcFJNA7ldRpDXYkucU8PAk0KGw/Z6NEGfAT6DsU47b/jcJzdGFXsdtw2XNSvm7gwqpjiebu6PaPqQgiP3Y6ErA4d1Q6pAwTDaKqz77ZrDTvBlT+Mdkm+Jy0yjPn7W5S7ix+E9d4ZCFU91p0LWsEcQrpwf/hC1gmb7w7h7nGs1w6//H/NHtABlXD4kmCpaXZuB1o0hjCg4xW3t1PV4hYvHn7Px0P716KzY5RFclBu6vdoi/Ih4NfQYxoJXcGqFtltVymadfyxBIYaI6YCVoWSV+3ZzXZdtmfLsq/mLrs5D4Wut0xF53i6hp++yYRHdr46pZbf5sACIin+HJshkTYIAs1inh7X82NznG+MR+fJfNE+92qpBADG3Cz22Mg2vVandBMHh2HYQ1bjUF7HMfQcJ33fF7anBtIyKfRI9AmgxcN9j7vT/jsOx9lLNxW7nbYNN/XrJi54GVOctGdP21Vnn43v73L37l0enp9vKISYelM5OMLBLqU6gEbmnrO1Sjrlkp05nAhGqkdkmJkjERvOZV7R3mmCeoY7Pa6hM4kIAFa5yM4wxhnU2Z7LowUSKewin1tRpJHDXs3STyyd6PmTsdSsHeCtMqXy+D1iarXsF1QDijc3VLWG/Xv908DqLP20yebmJpubD7gzZvdzgOv6LVXteclaOouuWlT2SgBUiiZNf4zEvGEnYKuUet7cDWrg7bosb/P4iX+o9xqDhhG51v5b9e6KJ4EI0T7tYpTnqxONLfKmBagkF1fJ6H6gTiHfY6UDGJvjfGM8Ok/WdnbsJTS1FEuxO8zpQaDF/s4lc+pdxEEveX2OvdQ4lNdpDD3HSd8/majhD/SONoFZMqlr3GU67b/jcJyH4Pqxe0CO28bg9esmLngZUxy1Z4/b1UwoRKh3VlchxJSbzsGRjkkuZ9IC1O8e8eO93hfRIX2OpSePyJw+/7d3yBft53xaZpV70bNhaW51GWNI9xrmVr67FKnByoM7Z/4WW/qZTASgSfHjVfP43YiQWV0idibteYL7y0mCgHWww5vq2W/k8xXsXV7mydzZQBrQ77Nq7zTNYn44AzouVcv2tAq/kWU+1v9V0UBiiQfzvW9wfNGl7oUlVMw+OTR8M4RjceLxOPG4hjpeMwFOuKnfslnFArRUCo0axe5UsY5ZxGwFSabsJ5T1srdJ8Nxs1015a2bVfkNATfFj5uxFWWx+k/lLHhye1ynvYbYAv052Ze7qD4/wfHVaIV+kBShGkrgfOCzw5opqHYfjfJM8OU/Wct0lNDVSDxYxgkBzn0LpkkFnN3HQQ07PsQMbi/I6j6GnOen7nWrZXqvDr5PNRi/8PfNojfQ1Xxpz1H/H4jg751nsHpiztuGqft3EBQ9jiqNY5mW78s2x9vYtb9++5V9LF4+dEGK6jTznSObRJpnwqTNpIGS/Bhic5f6zn1k8+YNF5eNTXux68wpcI7/OC/0XHqVUjJVn/LZQoXxQo96GgBIirGlEFD9wyMf3Z79bfP2agv6YlKKz8uwtadOk1vYRihnEVajXm6jqEF5Vr+V4/iHBs+U4SvIxv/2Sxay08Ydj6BE75Va98JKN/eGMMlj1Om1tgZ9eGZhmjbZPIarrRIKAVeHTm4trz9dyf+FT6jcWNIXk2s/8mjExG218ShRdj9iJwpoFXr+++HRzVG3jzP5vf6I0v4YRjLP87Ffmm02a3SednfJ7/vLi3H4rcdLLC6SXW9QrZSo1e5WJYMSexqH4gfo2H3YaFzc2gdzUb9s8oIZuLxF8WCJ3nN6jU2SvbJEy/ECLssdzxNxs1015O/sbFA5TZCNBjNVX/DJnUmlCMBxDj3Qo7VUwkte4c2/v8v5DFn0ljppa4/fU6snTd8pv+P5vO2c+PrLz1SmdUp5iM3VysX6wk7/y82NxnG+Qm/KeVigcsBiPo0a6gymlbYpXvJDnJg56xfE51oVRl3eQGHqGk75fy/FxL8vjpEJ8+Rm/JkqYtSaWP0JMjxFRLMw9k2hSvzQh6zGn/XfUx3kgI47djtuGy/p1Exc8iykOY9lEtishxMQZ+eBIKBpH6/mWcxBVO3dK9/jxeXHjf1k3H3B/MUVc0dCT2pl5j1azgrn36cJSdRzt8nwdrEerpDUFzUjZN1pWE/Pjcz6wzE8Lw7nZqOYesm494cFikogaxzh+a9JqcrD9kof/HN6yZFb5HU9zKR7cT2KkvtxcWPUSH15skLvkde/36+s0V1dZTGkocYPUyZRdi7qZ583zN/TI6zbStnHiaIen67C8mCWhh1EVleBx1TYuPuW0KiX2KiF0TUXVDNQz92AtDvdyvHmZY0jjVyMxaP1S26fSXEBToG6ebbf7xTKWoeO3qpgHHk+3crndgcsLvNt4Seiv90mqftS40Z0qcUjh5QavrWX+nbxmEbYest7+M8vzSfSIQvA49X6vPBsjPF+d6JjkC3XSWRUsk53t/jcY43Ccb5Kb8h5rFHYoL8exH3I3Ke30XwR14DjoFYfnWLdGWd5BY+hpTvr+7j9+IPjoXyylIijx5Jc21bL7wst6llfJa0xRGKD/jrxdOTTq2D1I23BVv27igocxxVEsY/LalRBi8vzP119//f+j3olxMBPViYdDBPwWVvuIWqVCtdE/CgbCOnp0Bl/niN1i/wtRL0VnE4SVALQbQ932nR9/47Hhp1V4yvcb9s1kbPYOoQC0G2X2y9d/kqIn7hAK+LHaTWoVk2pj/PKMeCUcmyUcUgj4LdrNBsX9Yb2OOz6mqX5h8PKG9QTRUACaNXZvsF2M8nw19+N/WDOCWKXn/OncE8F+Ju04uzWqfjRoHJxUN1VeL2PoIHwzUfR4GPtyoUbRvGLuziXc9N9Ja1c3Gbu9aBtu69dNXBhlTJm0diWEmAwyOCL66hW8hRDi2kL32Hy1QtzfovD0BzaumushxC0z8TFU+u/QTHzbEEKIW2Y6E7IKIYS4MXP3F+xEjvUC+csShAohxpL0XyGEENNi5DlHhBBC3D6zS0/Ian4C4Rhx1V5WtvThA6bcWwkx9qT/CiGEmEYyOCKEEMJzYT2JcZwg0Kqz926Df+x4v6KUEMJ70n+FEEJMI8k5IvoKhHU0xc4CXq5JsishRH8zUXsZSqvVpFyVpQPE9JrEGCr992ZMYtsQQojbbGSDI7///vvA3717966HeyKEEEIIIYQQQohpNtJpNX/88QefP3++9ue/+eYbvvrqqyHukRBCCCGEEEIIIabNSAdHPn/+zNra2rU///z5c7799tsh7pEQQgghhBBCCCGmjSzlK4QQQgghhBBCiKkmgyNCCCGEEEIIIYSYajI4IoQQQgghhBBCiKkmgyNCCCGEEEIIIYSYajI4IoQQQgghhBBCiKn2XyQ2kDMLaWDBAAAAAElFTkSuQmCC;" vertex="1" parent="1">
          <mxGeometry x="110" y="260" width="130" height="107.33" as="geometry" />
        </mxCell>
      </root>
    </mxGraphModel>
  </diagram>
</mxfile>
